# vtk DataFile Version 4.2
written by meshio v5.3.5
ASCII
DATASET UNSTRUCTURED_GRID
POINTS 646 double
1.83697019872103e-15 -4.499279347985573e-31 30.0 1.83697019872103e-15 -4.499279347985573e-31 -30.0 5.852709660483822 -1.433500430410061e-15 -29.42355841209692 11.48050297095265 -2.811912243195768e-15 -27.71638597533862 16.66710699058804 -4.082263845414022e-15 -24.94408836907638 21.21320343559638 -5.19573633741295e-15 -21.21320343559647 24.94408836907632 -6.109539595767606e-15 -16.66710699058813 27.71638597533858 -6.788556673726195e-15 -11.48050297095276 29.4235584120969 -7.206693325779928e-15 -5.852709660483939 30.0 -7.34788079488412e-15 -1.139292911588991e-13 29.42355841209693 -7.206693325779937e-15 5.852709660483742 27.71638597533864 -6.788556673726212e-15 11.4805029709526 24.94408836907639 -6.109539595767625e-15 16.66710699058801 21.21320343559647 -5.19573633741297e-15 21.21320343559638 16.66710699058811 -4.082263845414042e-15 24.94408836907633 11.48050297095271 -2.811912243195784e-15 27.7163859753386 5.852709660483863 -1.433500430410071e-15 29.42355841209691 6.90128168745155 5.311401466119847 -28.70821007196627 22.97734260211808 5.446670462269353 -18.5033917923264 22.66136835611016 -4.924736453450894 19.03179852490932 29.44910508001626 -4.965972782566155 -2.844173748028215 29.42355841209663 5.084878994869351 2.897967559769065 13.93728123988826 5.084878994867602 26.07481921793156 18.86279104873598 -5.126985037207062 -22.75761714855008 2.897967559768549 -5.084878994867203 -29.42355841209706 9.078031769393 -5.255493130349101 28.10638950756118 28.27535547663224 -4.878429482597912 8.758150401392005 28.29282756324052 5.084878994869173 -8.582535411186809 2.897967559727565 5.084878994736221 29.42355841212373 22.54096178289898 5.359024690192539 19.05743677076732 26.12419647372772 -5.038788607940502 -13.86134798519108 12.86807867881563 5.911010198058839 -26.44754259953569 18.6481187403107 6.014661009860207 -22.71720758332195 19.92064360716673 10.58514422723326 -19.77682178624558 9.202120871574001 10.70898374217085 -26.46957949561842 23.71738338243582 9.83305832818864 -15.51762512129344 20.60842159654119 14.81617176746199 -15.99293636129015 24.03004064858554 14.03498129818708 -11.20608970100033 20.52299481861603 18.65084614381722 -11.44345322858087 16.67519245284845 19.188165065631 -15.92960382666702 16.21862810373155 22.62649628028153 -11.18024009184306 12.06201624688098 22.7874313257989 -15.33755970263779 11.33110336591106 25.78520116709135 -10.33099691625497 15.21437260212151 25.16747120827177 -5.92631920374068 10.0753704525787 27.81920641586005 -4.957687428133727 13.71883753221269 26.67511176585032 -0.4815693554891912 8.34343154377588 28.81071389256542 0.5743823422279661 11.77338047503142 27.12804465324792 5.045463851969978 6.202327167538894 28.72134414090736 6.051076635308415 9.457901728318115 26.49690474888184 10.41451552527338 3.73493548569494 27.55455649112984 11.26040290108799 0.382963946872299 29.23308832737739 6.729033025565218 6.947570444372191 25.47495613361009 -14.2393073887436 -2.12437365122797 27.51542891853459 11.76385175098016 6.217076194289064 25.00911300861322 15.3587834842743 14.81561003663829 24.38997888340126 9.253465799877556 4.741624657671742 29.38928704983155 -3.71305834971159 18.4021296949184 23.64882320380099 -1.447336784154225 7.506207780486696 22.12668850191066 -18.81665487528471 23.51834562540672 17.41641619722996 -6.599686802324688 26.43872958004139 12.75197370126214 -6.195219521192367 25.57603836154338 15.61820477962038 -1.39209956206615 15.05457226285882 11.26270499085322 -23.37758178835809 10.52666083563389 15.47263475534747 -23.44753687232723 4.877252812401791 16.0895004189763 -24.84633536905755 2.256892444010314 24.29004185316078 -17.46139465414681 1.60391294676651 27.21963630573729 -12.51074988330369 -3.141889763370547 25.52260511128463 -15.45073322040916 -5.459452546830807 28.64346855504056 7.053090600956801 -7.893222810113183 26.38103658627578 11.90537451336529 -11.09877332356017 26.9753078998301 7.010705700683271 -13.34276153155984 24.24860564638005 11.5747932559624 -16.31671084782081 24.29317773350832 6.603518964671986 -9.936705444908508 23.11039986887333 16.34537557849024 -15.16591567425226 20.46576146139557 15.84763734967222 -11.544722778151 19.03734963175991 20.10718018454534 -16.51582467118235 15.98634703993924 19.27859548176138 -13.8012280626147 26.57586309510546 1.802666001761717 -18.73565698427936 23.39408406217048 1.300764490415375 -19.58574447680991 17.65606542087973 14.30601157355623 -12.58758900272295 14.2051465797085 23.23287355768813 -15.84904352581711 25.18734809486665 -3.795433475213646 -20.42765879432807 21.54615102817815 -4.298154493901791 -22.94151459315854 19.31395965508045 0.8110922350871046 -24.29340291267009 17.08019896891345 -4.254101327542671 -26.26695537289674 14.48640906735424 0.4370443587651125 -27.14965581985248 11.93828780937224 -4.513698377621698 -28.58858538795593 9.092204143439925 0.1568736101655661 -28.89147211687765 6.495060253169198 -4.805937081088627 -29.80894708250106 3.38026115951551 0.02254608884699242 -29.41565267752317 0.4913827572896311 -5.871790233068799 -29.89323423751355 -2.518600224985913 -0.2262735686031453 -29.0530923328065 -5.367766641604437 -5.206237334457439 -28.8224153649316 -8.319607357674489 -0.2291417584884297 -27.48718795811504 -11.0229180918791 -4.790592332371849 -26.64944938915878 -13.77673538914153 -0.09170208416279946 -24.75350980588682 -16.2495956657938 -4.81813169061209 -23.45243669778104 -18.70677972185821 0.1990109907708995 -21.10794597496015 -20.86304087866189 -4.380427149656363 -19.35141123582867 -22.91796652444841 0.5382318887858466 -16.5810726683464 -24.6280645458177 -4.304238131662006 -14.51223467472425 -26.24329948002848 0.8272104612901476 -11.44033778317429 -27.46092128270837 -3.875109509648663 -9.118068169750915 -28.55311564275066 1.257147542447935 -21.37853524093045 -20.36114351463867 5.327482119029836 -26.47461786235597 9.83269091108826 -10.11992087366421 -5.835174001723477 -29.2137102504759 -3.536930557821236 -3.45380593178722 -29.7485019289689 1.760073171116909 -0.007834314406264848 -29.84200235894025 -3.074871352190542 -6.545787573289603 -28.53603861603853 6.545774602697904 -0.7135501762858374 -29.17529169762049 6.949330939355171 -26.95689454661636 -8.547103944717575 -10.01363323478537 -29.10066944196937 -5.654134406660328 4.602369187782539 -18.4984313926441 -21.58824806965903 -9.578913367104963 -2.403702962686245 -28.73025959539515 -8.294238702158143 3.446508049654178 -28.78523267155475 -7.715695840825122 -3.806780965356108 -27.39364638627083 11.62310441946356 2.069306159081841 -27.48414928533069 11.84649779815294 -17.24334708867366 10.76679282433132 22.06225630930475 1.042016868946476 -27.1059919736501 -12.81325095240265 6.847178806808168 -26.62844841612099 -12.0017447622244 9.218452783169324 -27.73291701027439 -6.775355517292898 -1.007070158365407 -25.17015881464109 16.29260307445914 4.858712685864185 -24.74988562095478 16.24303151464893 12.39728710483805 -25.08566467606186 -10.81742576588343 14.49288550647418 -25.71463105215387 -5.358546402508273 9.905968385408862 -23.44231184669814 -15.88489237072244 -6.836460248152511 -24.5697577516245 15.79841179682054 -3.960662831032908 -21.863765307262 20.15660974786785 -9.700531875993134 -20.89740353044913 19.2145311420397 -6.67714382316822 -17.69295305746331 23.2889493638319 -12.24307085571332 -16.26859245276617 22.03270559027608 -13.02763771003464 8.67966829711213 25.59187398273503 -17.57480379637727 5.223008989794224 23.7454511140844 -9.051363249521525 -12.81916638881439 25.56837492726322 -21.30218885478968 7.105283101607403 19.8930063600474 -21.10594821832556 1.392167534160042 21.27441701580071 -21.74178930751207 18.52036098869304 -9.181003570212305 -28.77117422883716 6.026710706691508 5.991518301044111 17.47750747507121 -22.5373590197437 -9.306136731963877 19.26297527218595 -22.69825423840271 -3.705001780294536 7.852992548155544 -26.61028064037455 11.41154995077886 10.55328880231454 -23.36613401737902 15.57728720081984 -6.386280278912073 17.98703635576339 23.14480389494853 7.414982699949682 -21.14799650638402 19.9444296816283 12.87674097173777 -19.19640096079734 19.12296347585982 15.83970982172627 -21.09567678617893 14.28551762088374 -12.91166482499964 2.951280317018066 26.91800245072521 21.89448781228069 -19.08942650726625 -7.49834642181683 23.27613782483746 -18.84161020366178 -1.793079165134339 19.81315449464375 -18.68331122951138 -12.58462516218073 -4.793491773276826 -26.49981053250184 -13.22053245376418 -1.312888431796248 -24.36519614395546 -17.45318139572936 -7.089161787606677 -23.26559582989276 -17.56291080172116 -3.527053882991174 -20.66893625097992 -21.4558841616794 -9.200344038809353 -19.14314652509412 -21.18710954062215 -10.67975544937767 27.8282805892293 -3.395529853883162 -2.493656467216672 22.0918871759372 -20.14274555340384 -7.846593125972193 22.88028292730982 -17.74608772326172 -7.078779180123037 18.89949440262975 -22.19684654729188 -12.22976990214497 19.3525303752684 -19.38845780909102 -11.32837554024804 15.00866961503905 -23.37536617907222 -16.12539374140971 15.04944403537601 -20.33435297496801 -15.08131839176892 10.49358066656062 -23.71578799788187 -9.87226744045067 10.19853588161348 -26.4296840967814 -13.38314662070412 5.482721886381905 -26.28366692920386 -18.4532040232525 5.699668496875435 -22.95632898139299 -16.31040454432333 0.5041992419954485 -25.17372611920787 -20.90743820755952 0.5848298173960189 -21.50667342202798 -18.54073254391112 -4.54432277313348 -23.14282539511404 -13.60562345501994 -4.585761901801074 -26.34118065273843 -5.514773291619294 -16.16028758606613 -24.66642212964174 0.2462276197112122 -17.32881334383089 -24.48778471103419 -3.332860945498844 -13.9475424533057 26.35067546442033 -5.58694650486549 -8.814103812341813 28.12645734423432 -14.40391129723349 -11.3935188767235 23.72161602731093 -17.34387339708955 -14.29645122154784 19.8696134349824 15.95090266768702 -25.40589434006834 0.3305100108297964 -24.57399453390235 3.242239320590605 16.89990168124518 -23.93463303024203 -2.515832572553496 17.91100020028268 -12.08494996521081 -23.12880526829386 14.7990658894301 17.87277922474681 -16.53827305337785 17.52282189589836 20.47744698137133 -18.03473566317683 12.46685504385384 14.64310042239725 -14.33046367418828 21.91386366897357 -15.68593761578768 -9.655870164806412 -23.679432689024 -20.12877503081161 -9.367596658180275 -20.17623722621799 -13.52862830526018 22.56030279787485 -14.42251551728453 -8.264916856287886 6.345340624803986 28.13232663172139 25.46750147646072 -14.85384619148194 -5.547037215150887 26.49161364347142 -14.07529666755933 0.2836023364356873 -24.47868930004043 9.07061953938764 14.78234187548661 -2.551637563527483 29.83865515974536 1.773077551094969 2.296169606865066 -21.33168041772642 -20.96871516551494 5.999086234844874 -17.61500727038211 -23.53130857413756 -22.53262016234978 5.643200875791771 -18.98513398674687 -24.7025892075037 0.5448276847244584 -17.01426605056121 -24.51828006876723 16.22046426933001 5.979170624499687 -3.647349466649197 27.9836142177885 -10.17910493010653 -16.76630353293355 -14.18552123087044 -20.43678187117688 -21.01306185741182 -13.77892252300733 -16.38879267919225 -12.60443467086786 -21.32841770125488 -16.91823941752278 -7.943519343416508 0.5267702476746596 28.92443627016666 -12.38796041905386 -2.90102908624789 27.16840935529164 -26.80749430293302 -0.5661234282304983 13.45502707028946 -25.96538251300682 -7.371975762861363 13.09400184454792 0.2180828955920236 -9.721679240358105 28.38029937471133 2.502383535532037 -14.62551325814164 26.07359657924126 18.06080975810346 -22.17480966018029 9.060075464165275 -7.948505210383052 5.035560174945229 -28.48621418590085 -3.784092887428408 10.19614234031972 -27.95924395249724 22.29136930946227 -13.36565002044966 14.98179741686616 24.36103840893436 -14.37372882657108 9.996785846392063 -1.908425676501673 -13.15496416570227 -26.89432708279496 -20.0296680098829 -4.355004182752589 21.90539517977434 -7.381490839792572 -11.04880083978337 -26.89679521773664 -1.983921698819269 -4.408433187969862 29.60793426634422 3.838237320788769 -5.178938661536045 29.29925815800379 -1.52496708247718 18.10828204190762 -23.86974228784397 23.85236999082985 -17.97496844768615 2.822225208102125 -12.44488174777721 25.84399730217069 -8.787076972989134 -3.469099277528783 -7.155424117426324 -28.92689502698834 -11.06599553475831 -14.46777738486357 -23.83751581786029 28.24741370643429 10.08269762370784 -0.6502518945951166 26.52484335772369 13.4293197312872 4.010742624886571 23.53274890742777 18.28714026184938 3.433690420437518 24.0768726859613 15.65875088033665 8.66647116948802 26.65900777182791 10.38692257439665 9.022701594040894 23.67863157613285 12.61337152868198 13.42480038440792 20.54879543804116 17.66958185123916 12.86595831051455 19.72343560676316 14.04266019385504 17.7141125249273 16.34737063482124 18.7417945839678 16.77821829337488 15.06928968425322 14.9645917014303 21.18908925889792 11.45103792797777 19.30837765245441 19.90126334688865 9.85488827425862 15.22693330970951 23.89605990709638 5.909143548128327 19.25756410726654 22.23124484103698 4.45146634245153 15.37767964827404 25.37146854317029 8.09067943281642 10.49743205069758 26.91365502224454 18.43272388223728 9.766027191361015 21.56059839565675 0.2374659003444948 18.51959428388783 23.60017452279459 -6.734319889814545 21.63815577653972 19.65805560608295 -1.433448591636943 13.75815238094429 26.6206398908413 1.887619298346148 22.69514806593364 19.52862380327553 -8.201513495052698 25.89722542466238 -12.73062809505835 -24.09001535117688 -9.043875918489652 -15.42334168560838 25.60228908166454 -9.251773183943929 12.60664454689417 -3.139540523013478 3.85416725544221 29.58527809690883 25.73140691491946 7.003011642272572 13.74236246491228 -17.30694016221257 22.57683176732614 -9.5266200497053 -18.98513852484798 18.92278522762553 -13.47192318941471 -22.76005206648172 14.6339191764723 -12.95486161514345 6.119241242389825 -8.783340874492428 28.02512818346967 11.05062868269449 -9.431390408689397 26.24752332461277 -23.9935078831912 -13.69243161786039 -11.6973884200474 -21.01858702398876 -17.4829661572417 -12.35171623134829 12.37361504502693 22.61468120768644 15.34502670548987 13.48025268033712 11.13612989488957 24.37764136741721 3.274893822962039 10.25958406016021 -28.00028580855616 -7.609743920202469 12.35326731365426 26.25811463426769 8.027341863757254 4.239669917504634 28.59347795552294 13.86670074566519 -5.035552839101061 -26.12197959640099 15.63955644465399 -10.02225801266897 -23.55755968987396 20.19562070178899 -9.925036531969432 -19.84012485617327 10.46360490727567 -9.826862711334817 -26.34284991410409 16.73113081750265 -14.66891569116308 -20.12193266098371 29.43919064795726 4.959936337432493 -2.955179439872048 18.81754556669359 4.488838862093115 22.92924561592843 28.34286344071203 -5.07503084539836 -8.421766673293943 26.27764794429646 -10.02787557052972 -10.43680650666598 29.44397039486145 -4.96683401696385 2.895369965039582 27.69974663704892 -10.10493586868657 5.533019730041508 -26.03637182765169 5.293518481061698 -13.93147530389096 -27.56475329559886 0.4963919528823569 -11.82953806291206 22.93935980667599 -4.924119221291579 -18.69595735859399 28.40931408338376 5.37732172420967 7.9997052686956 -17.38831659515269 -18.67117338738846 -15.78080258810731 4.85635068244782 -28.78443665147805 6.918964135341061 10.37502191623328 -27.36979674786728 6.57671241716658 7.942889231112476 -28.83524644584744 2.332182040390531 13.34730527364877 -24.66584217579413 10.65108781725337 2.897018489264886 29.8210203640189 1.521193058631115 -0.8492991913894833 -18.36006295316039 23.71047825834588 -19.40174021373648 10.53025906911695 -20.31467746768235 15.16285506242223 -21.64477142661588 -14.19829906170206 12.34828088804472 -19.37600124404698 -19.28964838716972 -18.0583667763843 21.4038355632981 10.75970318126272 -8.171298825697395 -27.58514095191316 -8.502345215541405 -10.31004642523229 -24.92221676395238 -13.13720115854689 -21.05629976293131 12.96891253541275 16.98350811647561 19.88119408001132 -10.84121679568459 19.67755422662809 -17.23173012068257 -0.2283769890122866 24.55637027328858 -11.25245549639819 0.2177129896860873 -27.80889869009019 -6.541486751329298 -0.728826009277698 -29.26905812851489 -9.799436909227367 -5.11125426787638 -27.88989272247543 -3.046624792205104 5.586139019332126 -29.31745432728115 -8.359121899759 28.74253331063714 1.997963951597737 -16.97423779539245 -24.11215555517307 5.520797564537838 -18.81771206707377 -21.10261609951216 10.02862434820033 -22.61059543245034 -16.99700512862822 9.99313718746231 -19.27505140685519 -17.7660046418189 14.58908743993122 -23.07303461666516 -12.8997048718081 14.18565077105809 -25.79315551810958 -12.30088446703758 9.132435039309449 -21.5378363124072 -9.179026734139148 18.75812024681344 -25.038304328237 -15.80416118814173 4.828230059330544 -29.5853059467156 -0.2374043215652274 4.965210088942556 -20.66119792264185 20.92534776215556 5.936726491448924 -26.86664506037135 5.021377436044245 12.36806985122617 -26.38340942019541 10.23210667404299 9.960908612036807 -9.424441036838083 -26.2913884178065 10.95184031143592 -22.84912845621031 -4.463210067047245 -18.92081088878086 -3.721733690714295 24.64637353570353 16.69445925671074 20.04307430782165 -22.1231860220764 2.97318222175217 9.515174610193 -16.76589605254501 22.98621721146813 12.16223359722821 -14.76538080350971 -23.109816175249 4.366158037003289 -24.4279537414396 -16.85858060460603 1.246806591925598 25.77844764623306 15.29434896531239 1.916917033454662 -22.00791113023158 20.29722337588765 -5.963972591847578 14.52728845793482 -25.5614733727077 -14.67748360633484 -19.01480649992164 17.97244025602283 2.960217452648543 20.44824571583083 -21.7510082473903 16.75189719134257 24.58169236080661 3.887716703844461 19.9122934134081 21.08385059718796 7.679310842373883 6.047326112949617 27.83880147167614 -9.403774747634072 12.23979654615454 18.94194209051759 -19.78358436553451 -12.00418379215201 -26.86123395186066 5.862907305052925 19.75322267937105 21.63540208536393 -6.459068848047004 8.448444712619414 -4.973894091403474 -28.35285099430593 26.20563174347443 5.069683852432715 -13.69537040615508 16.35396357687963 15.35801189027579 -19.91681064086924 23.5779603709303 -14.60626285595398 -11.43402248246956 20.68318212288414 -14.49799165859286 -16.1868531573922 27.88290528392473 -9.881391195860154 -4.990160414461638 3.579863242239859 -14.34280039459142 -26.10495462566001 14.57337292208287 -5.066431602082235 25.72835153085646 18.7277690675518 -4.988691309791483 22.89942411433224 -23.35045619663283 10.11783507411809 -15.88664875995179 11.29251632614856 -27.75463689105152 -1.46942372022175 -1.16786430352718 8.59131920283346 28.71977241072032 2.994626280788104 11.0132692926924 27.74419061578571 7.15497377391217 -21.70113875310382 -19.43879952860167 -13.54315050272679 -25.31144500488046 -8.712854080346062 -14.51143837454414 -24.15886420417975 10.28432966536031 15.0539162777422 -9.626029969866977 24.09811510724337 -27.37737090975076 11.40013033080813 4.529524313934245 -23.43215990658032 14.78221185806434 11.50739304515804 -26.20935273409831 -4.093224019836051 -14.01125784442819 0.7534237136179439 29.08859894675366 -7.29970985880123 -4.577795723900384 29.36317323899444 -4.104612484393654 2.440822156743378 -29.8363444521966 1.958299499317651 28.63504506783195 -8.944429953325743 0.1771066720430778 22.24128766325438 20.06549499424356 -1.643482192284058 -10.99141952481818 -7.431060446225935 26.90665414862989 -8.81898261491342 -4.476401329529405 28.32291257577233 15.30173013262195 -25.18269856592237 5.629275964660208 26.62044869899398 9.367558815269206 -10.17843568072726 -27.60844916862529 -10.92486857759039 4.291943739823685 23.80145395268492 -9.86374351543792 -15.36871346599564 17.09835295424559 21.28569645647317 12.43243550616395 26.0171925205771 -4.624130546620782 14.20292610820162 -19.91255364623447 14.90898037063961 -16.7693921056703 5.938259553247874 -9.489995317324825 -27.83302107848541 5.824337109615956 -29.32580912908979 -2.464551918248905 4.610732052300249 -18.39639647635963 23.24464984951319 -0.304850671746029 13.61347911451861 -26.73163392811037 -15.18377583722926 -6.65459713373374 25.00338553701229 -28.22310574430204 -3.892570420005363 9.397031322244521 -8.003294087291323 27.87403970848552 -7.680181904232487 7.54335321138236 -13.21031037701376 25.85702075010364 -14.72948557231398 -22.7444017145216 -12.87378908571447 -24.86001909063252 14.63741459173273 -8.229553139941226 22.48309702874564 10.02222981763184 17.14833104061676 -17.98499525861361 -9.00329663382577 22.25939341651043 0.2570862677762805 29.90462746822351 -2.376375946203175 -28.15747202068228 4.446329416535113 -9.348097353159575 -13.69081965436013 -17.95581499013898 -19.75221924826896 -28.48810010583975 1.410180413083852 9.297286892540622 20.4425924744118 21.82555148392197 2.397022183417099 -11.4570038513428 -9.19002942343541 -26.15875421243733 22.23817251931894 -18.7122348265254 7.43746938131361 7.559026204847436 18.73046042479558 -22.18177123472327 -28.27053224727629 -3.458541851881928 -9.424197298151832 2.068208371073484 6.685588839967973 -29.17233991295037 17.27787095920955 -18.04635753524013 -16.6073524327987 23.52839947147223 -8.775942950403705 16.41332518541215 25.29040827431395 -15.26393613918524 5.235217555879335 28.17135464499274 9.08499926428133 4.882372971624919 7.719837034644894 21.96986220989979 18.91373232962078 -16.1632732633214 -21.10044126092007 13.91114574755299 0.8150987740583754 -9.384364555210295 -28.48278981917749 -21.54511910433036 18.46699100600449 9.735403739155773 28.24013928828349 8.381019397770915 -5.679176598111303 -27.7050840648978 -8.13056627523693 8.14384485368709 8.074128224815107 -13.50464771210232 -25.54276695233415 12.58946283579962 -27.10000947072004 2.663627637809782 -22.71451748472553 -17.72117379851092 -8.367239367860117 -2.587753336661218 21.58098813710545 20.67763244897037 -16.13740479054779 18.41939465181006 -17.32945663565007 11.30537819810752 -13.20757108763828 24.44889547122193 -25.60231806184517 -13.40948250634398 -8.04407165384367 -1.874056465567264e-13 4.938272013532696e-13 -4.662936703425657e-14 5.107390757364687 -14.04357462175224 1.922073696533386 -8.905593077209094 -10.48672450551918 6.094534024120725 10.27401002572958 11.01992512618301 -0.2266742578515879 2.834340710728207 -6.170261601301268 -13.45930772078167 -13.67496621554494 -2.548825507412338 -5.79213329321953 14.96905229444966 -3.087660620308966 -0.03257514326681202 -9.900220252941223 9.675038616748289 5.960690067701234 8.392338209370248 2.72833833735445 12.20405271344926 -1.957218282387232 11.94116652970598 -9.001576561065935 -5.504397776349043 -14.19047453560534 -6.458631095469024 11.82993353626435 3.549411013836933 -11.27004805558879 2.010297550924494 13.93971829756746 9.593118307260404 -1.531433499738338 -5.341920354788616 15.92258315459074 -6.83662963843059 2.063018820035543 -15.70896666433523 -16.64435853871758 -0.7623151608495458 6.142943643057328 -13.86931990051182 9.74648675731604 -5.678320778645562 11.67564105048056 -11.57438271434659 -7.658378878639928 12.21723385177934 -8.884339325253581 10.15192454749516 1.568567500359779 18.76992114176077 -0.6597992568646232 -10.08708216285524 2.558039102988168 15.20397326183415 -0.4921608906113606 -15.32443329611408 11.34135020404423 18.0730169630161 5.847713164442276 4.762761222926775 -15.06661086432944 -12.43349239838169 -2.284102458561517 8.560891426442476 13.80055888140212 -10.50714101094028 -10.04998654514103 -8.223555848428916 -14.32004824078849 -4.476384224893931 -19.18017031219442 2.575822271668616 3.122142371974404 6.738161548875092 -17.43645318654369 3.858922885419786 -18.08812247257197 -7.336253053597397 -8.89247803825233 17.64895102398987 -0.8305075919076836 -1.708616204648695 4.252162708076637 9.314318291684565 12.136524724844 12.84809674115923 9.61820111409791 15.09262761693836 -13.26236650260369 1.609201382012481 19.21250061547477 4.625281041145734 -4.90235727508246 1.97343039309893 8.150323760541914 17.99984686385374 -11.23061743588176 -7.296657803316983 15.19621081789953 12.41042354838798 -5.652261592303141 -15.41653627900029 -6.327980283581175 12.50833185022637 14.76772301610517 3.224974548950669 -5.916038652776852 7.256413963566382 -1.752551560899483 9.626751557152458 0.5176313691675566 7.986080641993764 -5.060447337322864 18.07459005787615 -4.372020913596456 -4.644218285717041 -7.234030682324228 7.053928482978998 -3.575445983339938 -5.31785272053183 -18.67155743653375 7.882128519445888 2.444368580068951 -0.9491476058289239 -14.69303110063992 -14.66919386877549 -9.885712003042636 11.02662409951997 -14.2893862189809 4.556250769245364 5.935446064802366 -5.750847988187701 -9.1152071747915 1.685161878993323 1.179178026632383 -15.70380934190719 3.632811996151704 -12.70491778965401 18.51830737247661 -3.893033480961159 -8.60714021141705 18.9806926231896 -2.704179349731561 8.383276151332224 -2.237670541499379 -9.163156217856631 0.2269155606965854 8.342666362113501 2.584866888032926 2.977713093755421 -20.35508148114519 -5.412439468929827 -0.5548416487636327 -20.37245367432673 3.342081111053565 -5.076664352389769 -6.143241994176298 4.204962769641228 -6.965475305102355 6.161225766538893 -1.302674835539531 -20.36717657698805 8.204426750143774 -16.89411638101828 9.836699152349194 -3.95019551307159 19.81942726770749 6.346136590707766 9.176174724829348 18.78860272381226 3.806757226929376 -17.69032918737556 -9.539716348971155 6.825346763626754 -16.51160695904965 6.63321596735522 10.84838789291849 16.19339445277684 12.67244475344283 -6.425118868458777 -7.283883133210403 -2.354378923410811 8.630731361651957 -3.112860351880146 -7.812931880633666 -19.82919488559006 10.4033007338128 -19.10831435417564 -2.176293002023215 2.23572251758581 19.38547113615971 -9.156769952463485 -8.729962665643228 -15.09640972664519 13.16190654455515 2.906381849197656 -21.73442629328169 -0.01811709134257677 5.486675734089477 -12.94268233744989 16.70978716571057 -12.45655518301917 -17.49496036959884 3.653343487139479 16.12523887902145 6.161700909946207 13.03189855993429 -8.149568479271394 17.93193615881045 -9.419891376273066 -17.12782184128916 -9.145318347369013 -9.792806529087173 9.145969478516074 19.54712995563104 -4.495551422126971 2.390729042710277 -10.14899873445964 -6.383596203475581 16.2168206885267 15.11163806475238 3.157568289719163 0.357231507773133 1.560464194753551 -11.49442820631429 15.19725999536122 -1.65533306445404 15.7147400015275 7.644937514997229 -13.24232523220829 -15.22424463904256 1.556713840320673 14.72166207931879 -15.95218897878372 -11.81270275733777 17.51146510182901 7.223681441105819 -12.85236394491802 -15.89369673229727 -9.164443156868812 22.19691842442271 -0.1603813612008921 1.561473755112459 20.94492953075783 -7.958218718270476 1.686722992481345 -3.357610463821619 -21.64972716308318 -4.869018159398475 9.965602841397448 9.926178362065476 17.01710345072998 7.707292576660191 2.799511886886322 20.3673205446177 -3.386034779488499 1.724142037565768 20.96910643849627 -9.352883685166972 -5.984354234951883 -0.2699373609029934 8.417474852889523 -6.999118616412849 1.548015309524654 -2.79434992333023 -12.73971682655347 18.47144083822881 -3.857613326393853 10.01205279533187 -19.36904542923898 -1.453104829356272 1.538886592847325 -21.98759820956008 -16.35896400864043 14.99076697859222 -0.2516631283210229 -13.33303891159329 -1.928861304079078 -17.79970634942849 10.75447153070423 9.295861774191376 -16.83573136252036 -10.54927446579347 -19.97841488096929 -3.230822118488334 -16.87140113286707 -1.64757476155703 14.14320425451291 2.404839516969421 -21.23202521803965 7.544992819227121 -22.51528719528947 1.398521891676041 1.904304401393934 4.677287398021421 9.039598360757118 4.473391317874635 11.70321584488385 4.352428613753895 -3.63020682801653 4.34423638030332 -9.45725220080361 -20.62928215828178 -19.93632331466445 -2.140159358077262 -10.26700403425222 3.259879586660043 21.02957366740465 7.719836571665853 19.24290044277955 2.688234317308521 -12.16465365253748 18.93263140162452 -10.78732022780343 -5.191808026077467 7.37237001986952 16.27196151976483 14.1673594216629 -5.744695381705509 -19.48210139982441 -11.47329179163595 4.572159473164548 13.16076763279107 -4.356496754036598 -17.43731636192134 12.95996227922029 7.454141139319253 -5.329021512590115 -20.45315595004146 9.659594912070343 -10.52729329883601 -8.992327578361511 -6.743274321845445 1.743654171191458 1.282661413940072 15.18154216104417 0.1037008691415933 15.91465378191041 16.57052126208224 2.279450790625139 -8.331065141782808 21.45810469488621 20.49331028599662 10.3774388434581 -0.5018443739899794 -12.30879429941166 5.806907257482667 -18.81879618156252 -6.653481648318719 -6.976030577306066 20.96483385601422 11.70181007193231 -1.993572075104488 7.64524314782351 -2.929678664912936 -8.738840288265642 9.722825409345845 10.67686132582422 -18.40783076257783 -9.215705353667518 -7.90151336597007 7.64780740925168 20.23713248727048 17.03205621040242 -9.945258142987383 -12.08166396550325 12.77423919812981 2.169087924909652 -18.73096417400606 15.10610715481319 -15.28395529826936 8.526889535948726 -13.49547451761995 12.6691582020087 13.55680300500407 -0.2708050002602098 -15.88331128328062 -2.145769254149062 -8.645839078245872 8.482217905043813 -0.9708872742740056 16.82570083578202 9.47576615011849 -12.89229253296185 -8.483052642420779 -13.3240413182932 -0.2375797185619524 8.548037961543605 -21.05584378839211 4.254875492137179 -4.193304574578542 23.06786375071725 -0.08720635871684168 -22.37422920218771 -4.482165139954575 5.908986160233972 -16.6362522106195 10.64179236894603 -12.14737218684351 -14.40961665962585 -16.12682808973447 9.860736083254643 -5.376399335808014 16.33096794495058 -15.77870066398494 -7.802115731647744 -14.61348418363696 -16.04897607921932 -11.86238514007992 -2.233531000857453 20.12516923218501 2.652233129874169 -1.401514775206678 23.1841904038739 -15.79628909362799 1.181594534600819 -0.4076676376604409 -20.650846607216 10.1296801691231 -5.366637588304162 -3.858963826361573 12.94872046211143 6.154922219159859 -11.20200224762964 3.144428997069491 7.528862085331212 -7.21180849122889 -2.314428634919015 -21.13444149171488 -3.703590099910927 -3.923172520595868 -14.10772606568648 -0.9578478488794238 -13.91197493182207 4.795449110594032 18.83051827264531 -8.677662653019055 11.54990557904932 6.650740625014771 -0.4158476816036005 -13.53650602096637 -14.5858057396588 16.65223217084313 -6.862244882245042 11.99016294589084 -13.96825731515797 14.76127154540688 11.82621708345307 6.342566449790646 7.51494473571872 -9.353252786318148 -2.008038181771656 -10.94906290811538 18.67992243228214 11.07102168220771 9.077309510861438 22.85748481213895 -4.349366701229872 -3.574598135970729 -18.53012963284735 -14.85003259104881 2.878183287484417 3.767128860043737 7.649784645089797 11.4660976004177 -20.9983899814005 -10.6826263588318 -4.329044642180952 -3.964815109579046 -9.89065886402264 -11.25194692669969 15.27266767068824 17.99676850191319 -2.67631994805689 3.824950101971875 0.7857696608876961 7.644430474321233 15.93346715173684 -16.82859323343365 -5.294405072160156 -3.27275775187035 14.95098086898813 -3.198355400013402 -13.09210296989697 -5.429088889967102 9.153861738186087 -2.483430777645196 -4.140087279560643 4.48483834304635 -3.504276066503081 22.11403693631514 -6.772483534507995 0.6138797025033176 -20.6085793024694 -12.4041909980475 7.945093540332845 15.11495326454004 -16.84009457939256 -2.969472945433729 7.033714242003455 -13.44026638586375 12.08595067425495 -2.788079260662633 -9.494191077465665 -4.904609989751815 18.97496756063059 13.06354429868344 -3.655781146287818 5.576176992300619 15.54354168803205 3.689790248296144 9.370608394882401 -11.36691463874048 4.668293134547877 -11.44099526257172 10.41310542666884 -21.93936536728472 2.642642148939938 8.47685868990871 4.746611838887116 23.67546364585758 2.041099149449147 -17.46737341067447 -8.146536723401333 13.25838192208159 14.04034015547344 -8.105373548761056 17.52693997371976 13.68796363013884 4.944508871834401 18.94539522675326 6.997736209958806 -13.73793894366425 -4.063135290297949 13.14276320822798 -8.689231367069247 -2.256373634050282 15.21258899901836 -7.557286506734703 4.602919616820784 2.820745976516204 -5.572473066133275 -1.051029946704026 4.036826697656031 -18.7013179080601 14.33747209646432 8.338005076321402 20.17105036523822 -10.8605071903055 -12.53774556869603 3.631138950795687 -7.117599219025829 -14.48765636793184 7.160536671801496 17.17873310715258 -5.211938059899796 5.72886430512317 4.193716071945521 -7.827347951903027 11.77682539598984 -6.415814316009374 7.086822952063104 -3.578328250546437 11.86252831711638 10.14141425362533 -12.67838420203826 5.52050532001219 1.067723407321326 -1.60558389631359 -6.04347617941629 -1.146370251707499 -2.134643953590377 10.40590803120148 -14.93401504570657 -5.715754272055758 2.643394684142425 18.18194652282696 -2.973319315310887 -14.91431270901877 7.68154264969322 5.01385050925983 -22.04924197485945 -23.54374490934842 -2.179764333303247 -5.019521649206825 4.053955821315612 15.21887131483364 3.833945064635906 -17.80203972721496 -5.697285288524801 -15.15942360593893 -2.37974631948547 -4.144915274896031 -25.34975046544852 7.935600721270215 -7.327220604510296 -10.15676287879625 22.76820523504555 2.381334354743337 7.421948546941525 3.998947030347274 23.17761119520134 -4.446638352238263 14.11448346926873 16.72417828583764 -10.75072307200348 -2.94313354662228 11.58034862480931 20.03762562742025 19.7628866229227 -12.59167894414316 5.550345748402068 -9.650382800722676 7.947321328798148 11.99890859488533 11.46616286307544 8.863120893692727 -7.971427727515306 22.89374196079282 0.3980651146143964 -7.583010852939913 -9.204861305409372 21.99641711308914 3.68810673173178 11.15415230222763 19.17226417579278 9.887297565736006 -20.99069068597721 6.493272759448431 -10.4406275251546 -14.63182408271329 -12.76166966540747 -14.51705484742548 -9.216402934130066 -12.09789390974619 18.57397816403185 9.818069103142555 -6.377488230255999 -21.1116398312071 -6.852724377192764 5.037404361265956 -22.14434164642878 5.231908224053223 13.40398405678046 19.39891118210206 -11.05861732922905 -7.108602043329772 -20.33360889250486 -9.468566987469972 -22.60774396812554 2.37143263015837 -1.103969345992668 4.973234049289542 -3.485085256593467 -7.034200499285851 -2.789583267958672 14.78240792712885 1.894813119996734 11.49648091119568 -21.2864400211897 14.39161169507863 -19.41040598804188 2.660842279990612 12.08781284055899 -1.518083903834573 21.06549078409773 -4.045405673382501 -18.3614875294551 15.20582433359013 13.31409238176735 -14.67891891755315 -13.3303403028013 23.72578182732342 5.223003564347538 -0.8511693347075786 -16.21157154328239 -18.35407338400355 -1.878574513404828 -8.05435484979843 -0.8665765911714645 -4.227526302366591 -12.93659009695251 16.0634673651916 -12.70389481833649 0.9909972117532533 -1.152759663066953 -17.00096094929932 -1.369382680453912 -24.30891918103922 3.408306302963866 6.450927923271774 -22.8239756356564 -4.729083447770174 6.403783314899673 -18.99749067929137 -13.55603171532939 16.23598038688411 2.77068614966378 -0.04167608690477199 15.35854488516223 -0.1137624940879256 -5.210352618118812 -0.7655886973638015 20.07159070071592 -14.35982775759033 -2.248236342276008 9.968501796362226 11.13583612835832 -21.9635934196878 -10.03513007002256 2.765996598698203 -12.98643177111807 6.074435462932719 2.339877763438572 5.472793429653158 1.248219982554075 -2.119067516586946 0.6795813077929024 4.600106961511961 3.80909588696581 20.84372605741034 9.315885606711037 -8.365870086866826 -5.591192451774441 -14.79106920339402 8.24386397392564 -2.139144187366199 -13.66872848197794 -20.42489038769583 0.7418378474342495 20.45363268273274 12.95513354458727 -9.386896115917375 5.67828596775237 -11.73077328923991
CELLS 2648 13240
4
393
421
480
556
4
427
470
219
564
4
433
575
465
612
4
426
442
408
473
4
229
230
429
484
4
229
429
469
484
4
438
467
411
572
4
393
480
421
626
4
398
439
449
627
4
396
467
438
576
4
74
525
479
569
4
441
452
87
540
4
400
421
468
554
4
192
477
442
632
4
439
487
449
627
4
156
427
219
564
4
401
460
422
472
4
195
168
446
597
4
438
572
411
588
4
401
500
460
515
4
459
509
441
573
4
219
470
427
548
4
366
438
396
467
4
442
473
426
477
4
147
521
486
537
4
421
556
393
626
4
393
480
471
556
4
421
451
403
556
4
521
537
147
585
4
488
559
450
581
4
448
518
469
550
4
448
469
420
550
4
87
452
441
498
4
115
565
483
631
4
366
251
396
438
4
448
420
518
550
4
468
510
340
617
4
440
444
409
547
4
483
565
426
631
4
384
223
420
552
4
401
500
515
633
4
136
537
496
585
4
12
469
448
476
4
448
469
12
600
4
415
426
520
578
4
51
503
456
574
4
178
496
459
585
4
223
384
420
515
4
401
422
460
606
4
436
559
488
581
4
419
411
489
572
4
168
493
446
597
4
195
446
502
597
4
75
525
74
569
4
51
456
531
574
4
432
28
486
538
4
467
489
411
572
4
401
515
420
633
4
421
403
471
556
4
340
510
468
534
4
408
442
426
565
4
384
420
226
552
4
433
465
519
612
4
444
450
401
499
4
429
484
230
506
4
427
78
492
608
4
409
444
440
500
4
479
492
78
608
4
419
489
467
572
4
425
594
491
620
4
419
519
411
572
4
229
469
429
552
4
402
473
442
477
4
401
472
422
508
4
401
499
429
596
4
384
226
223
552
4
405
492
427
527
4
26
448
481
482
4
401
429
457
596
4
442
501
477
643
4
401
420
474
550
4
426
477
473
578
4
219
427
81
548
4
444
440
500
639
4
263
434
260
613
4
489
519
465
612
4
136
133
537
585
4
460
500
431
515
4
432
485
28
538
4
400
468
458
554
4
161
490
443
516
4
18
523
504
528
4
81
427
78
492
4
405
479
435
541
4
427
405
479
492
4
393
253
471
480
4
435
525
75
569
4
473
578
477
599
4
408
473
442
557
4
223
515
420
552
4
396
438
251
576
4
408
449
439
511
4
450
581
398
639
4
133
147
537
585
4
189
482
430
604
4
420
401
474
515
4
290
516
167
543
4
229
231
230
484
4
411
419
489
519
4
408
426
483
565
4
418
537
521
585
4
450
499
444
639
4
370
537
433
575
4
415
477
578
599
4
398
450
559
581
4
403
451
421
592
4
396
549
467
576
4
408
483
507
565
4
440
444
547
590
4
430
482
189
505
4
400
468
421
529
4
437
499
444
508
4
167
516
493
543
4
156
531
427
564
4
401
420
550
633
4
400
433
465
519
4
516
543
290
614
4
370
213
537
575
4
404
440
488
639
4
401
550
450
633
4
427
492
81
548
4
448
476
469
518
4
366
438
467
514
4
399
449
436
581
4
408
439
449
473
4
502
556
451
595
4
115
114
483
565
4
429
596
410
609
4
26
481
268
482
4
497
510
122
623
4
73
75
74
569
4
28
432
337
485
4
73
74
479
569
4
425
523
494
547
4
404
488
450
639
4
483
617
106
630
4
445
487
461
592
4
401
460
472
558
4
219
156
81
427
4
408
480
511
557
4
427
405
527
541
4
409
425
547
571
4
136
496
135
585
4
431
515
500
633
4
444
499
401
508
4
408
449
511
529
4
399
497
455
545
4
448
482
269
546
4
401
457
472
508
4
448
518
420
633
4
340
510
307
617
4
45
472
457
574
4
408
507
442
565
4
161
164
490
516
4
405
435
479
525
4
436
449
399
545
4
427
541
527
561
4
434
523
23
613
4
415
477
426
578
4
497
122
582
623
4
400
433
519
562
4
401
457
508
596
4
449
487
439
511
4
168
446
493
516
4
365
156
219
564
4
408
536
480
557
4
409
494
425
571
4
444
499
437
640
4
454
598
501
629
4
496
537
213
575
4
85
492
441
540
4
108
483
466
631
4
403
421
487
592
4
435
541
479
569
4
426
477
415
520
4
566
583
58
635
4
401
450
444
500
4
366
251
438
514
4
429
474
320
552
4
135
496
178
585
4
115
483
108
631
4
400
519
461
562
4
432
485
484
615
4
414
441
452
539
4
361
280
489
582
4
361
489
467
582
4
423
511
480
557
4
422
401
508
606
4
162
516
443
533
4
356
320
429
609
4
405
427
479
541
4
488
581
450
639
4
527
541
437
561
4
409
425
494
547
4
411
467
438
514
4
78
479
304
492
4
401
474
429
550
4
444
437
618
640
4
487
511
449
529
4
457
472
45
558
4
411
486
517
538
4
410
429
499
596
4
433
537
496
575
4
135
136
178
496
4
425
494
523
594
4
459
496
178
573
4
523
547
425
594
4
399
545
455
572
4
490
491
209
620
4
471
480
421
556
4
461
519
433
562
4
229
230
228
429
4
349
59
515
558
4
361
315
280
582
4
162
281
516
533
4
423
480
536
557
4
356
320
228
429
4
72
479
78
608
4
340
180
510
534
4
417
541
456
561
4
499
444
639
640
4
429
410
506
609
4
323
340
307
617
4
319
457
45
558
4
480
495
339
507
4
472
508
457
596
4
416
467
438
572
4
401
450
500
633
4
421
400
529
592
4
410
499
429
555
4
404
518
448
633
4
409
547
444
571
4
111
556
502
595
4
501
598
462
629
4
337
432
236
485
4
478
566
58
635
4
411
517
514
538
4
384
420
515
625
4
403
551
471
597
4
440
404
500
639
4
306
441
509
573
4
444
500
450
639
4
455
545
497
572
4
278
455
524
530
4
419
497
545
572
4
402
434
501
613
4
399
578
488
579
4
488
518
450
559
4
403
487
421
511
4
229
429
228
552
4
135
178
459
585
4
405
509
492
638
4
399
578
579
589
4
111
471
502
556
4
478
583
566
635
4
460
515
59
558
4
403
502
551
597
4
416
572
438
588
4
496
532
203
573
4
428
461
418
542
4
115
119
114
565
4
401
457
429
474
4
445
563
487
627
4
306
509
459
573
4
402
434
477
501
4
149
430
189
505
4
441
492
509
638
4
436
518
488
559
4
176
465
534
575
4
32
523
18
528
4
189
430
149
604
4
226
420
384
600
4
176
465
575
612
4
405
492
527
638
4
430
579
578
589
4
409
494
523
547
4
285
495
483
507
4
439
398
449
581
4
398
563
445
627
4
228
429
320
552
4
23
523
434
593
4
26
448
269
546
4
426
473
408
526
4
320
474
429
609
4
26
269
448
482
4
336
432
486
603
4
399
579
488
589
4
152
442
154
507
4
193
442
192
477
4
261
434
263
522
4
351
486
517
537
4
421
471
403
511
4
419
455
497
572
4
440
409
500
568
4
441
539
414
638
4
442
507
152
565
4
440
488
578
579
4
319
457
474
609
4
433
411
517
612
4
401
429
499
550
4
285
339
495
507
4
424
408
495
529
4
442
477
426
632
4
103
106
617
630
4
231
230
484
506
4
427
456
541
561
4
479
492
405
509
4
434
263
522
624
4
474
515
223
552
4
161
443
163
516
4
136
133
289
537
4
163
161
162
443
4
475
571
567
618
4
72
304
78
479
4
221
536
462
616
4
404
440
500
634
4
424
408
483
495
4
221
462
536
643
4
475
547
444
590
4
442
477
193
643
4
436
411
572
588
4
437
417
541
596
4
483
495
106
617
4
278
530
524
621
4
440
578
488
581
4
45
46
472
574
4
189
149
218
604
4
290
165
167
516
4
477
501
434
613
4
475
444
571
618
4
263
260
312
613
4
319
474
457
558
4
433
411
519
619
4
402
442
473
557
4
446
516
281
533
4
469
476
406
518
4
409
440
547
568
4
304
492
479
509
4
260
263
261
434
4
443
490
161
535
4
479
525
435
569
4
473
477
402
599
4
447
568
415
579
4
417
508
472
596
4
567
571
407
618
4
429
550
484
555
4
490
516
164
614
4
458
534
400
562
4
418
461
428
619
4
437
541
417
561
4
410
429
506
555
4
51
456
68
531
4
231
232
230
506
4
420
469
448
600
4
85
441
87
540
4
154
507
442
536
4
165
516
290
614
4
399
436
488
581
4
193
192
442
643
4
435
525
405
605
4
429
457
596
609
4
428
542
418
605
4
415
578
560
579
4
430
560
578
579
4
518
550
420
633
4
116
122
497
510
4
71
73
74
479
4
474
550
420
552
4
503
410
596
609
4
102
106
495
617
4
427
492
414
527
4
281
446
194
516
4
465
510
180
534
4
494
523
32
528
4
407
470
464
635
4
269
546
482
604
4
87
452
88
540
4
384
600
420
625
4
461
487
400
562
4
195
168
194
446
4
440
473
578
581
4
477
501
193
643
4
162
163
443
516
4
441
492
196
509
4
69
479
456
569
4
328
522
150
560
4
456
479
69
608
4
486
512
432
538
4
402
454
434
613
4
209
491
490
614
4
402
434
454
547
4
281
194
446
533
4
491
594
380
620
4
417
472
457
596
4
450
500
404
639
4
174
514
173
517
4
444
547
475
571
4
63
494
566
620
4
423
471
551
597
4
255
485
484
577
4
436
398
559
581
4
408
439
473
557
4
430
560
463
578
4
534
562
458
575
4
486
521
418
537
4
485
432
512
538
4
58
583
65
635
4
196
441
85
492
4
489
517
411
612
4
487
529
400
592
4
460
474
401
515
4
204
532
496
575
4
311
467
396
549
4
429
550
474
552
4
408
424
483
526
4
414
452
441
540
4
484
550
406
555
4
408
483
426
526
4
496
537
418
585
4
12
448
357
476
4
103
107
106
630
4
418
428
570
619
4
454
501
325
613
4
174
205
173
514
4
419
497
582
623
4
156
81
427
608
4
116
122
117
497
4
427
492
479
608
4
419
510
497
623
4
195
502
446
610
4
342
306
441
509
4
451
403
502
595
4
418
542
461
562
4
115
120
565
631
4
51
531
191
574
4
487
562
461
592
4
401
472
457
558
4
51
53
456
503
4
403
471
502
597
4
152
154
153
507
4
418
496
542
562
4
436
416
488
518
4
450
550
518
633
4
153
507
154
536
4
399
473
449
581
4
33
494
32
528
4
26
481
448
600
4
44
45
46
472
4
407
464
470
564
4
277
530
335
631
4
428
563
461
586
4
456
479
427
541
4
408
424
526
529
4
461
563
445
586
4
73
479
71
569
4
175
517
433
537
4
414
427
527
587
4
453
475
439
551
4
437
407
508
618
4
438
512
411
538
4
421
529
487
592
4
513
555
410
615
4
371
574
531
601
4
404
505
447
553
4
228
230
356
429
4
506
410
555
615
4
456
531
417
561
4
430
505
149
560
4
403
502
446
551
4
484
506
429
555
4
427
531
456
561
4
442
462
402
501
4
45
457
47
574
4
404
447
505
579
4
284
509
479
525
4
336
432
28
486
4
432
555
513
615
4
448
481
404
633
4
156
77
81
608
4
25
438
514
538
4
456
541
417
596
4
69
71
479
569
4
466
497
399
545
4
8
607
481
625
4
486
215
517
538
4
468
534
510
642
4
277
466
530
631
4
277
466
275
530
4
336
486
521
603
4
8
553
481
607
4
349
515
474
558
4
400
487
461
563
4
503
506
410
609
4
432
406
484
485
4
132
521
147
585
4
424
617
483
630
4
399
449
473
526
4
429
499
550
555
4
406
469
518
550
4
400
458
468
534
4
436
411
519
572
4
429
506
230
609
4
46
44
472
574
4
496
532
413
575
4
465
489
419
519
4
403
511
471
551
4
433
519
461
619
4
408
511
480
529
4
436
488
416
589
4
61
349
59
515
4
138
87
342
441
4
328
505
522
560
4
402
477
434
599
4
173
514
489
517
4
398
445
563
586
4
433
517
175
612
4
469
476
29
577
4
480
507
200
536
4
415
505
447
579
4
203
496
204
532
4
150
560
522
624
4
193
477
192
632
4
201
147
486
537
4
438
476
406
622
4
492
540
84
548
4
461
487
445
563
4
200
480
367
507
4
420
481
448
633
4
454
491
2
598
4
422
472
460
602
4
413
441
459
638
4
160
443
161
535
4
432
236
485
615
4
409
431
528
606
4
404
450
488
518
4
399
488
436
589
4
444
590
440
639
4
402
439
473
590
4
421
480
511
529
4
29
469
12
476
4
356
429
230
609
4
187
486
147
521
4
494
34
594
620
4
456
417
531
574
4
226
552
420
600
4
137
540
533
548
4
442
402
477
501
4
439
398
581
590
4
133
132
147
585
4
284
79
509
525
4
408
480
495
529
4
327
566
494
602
4
447
522
415
568
4
404
579
440
634
4
444
407
571
618
4
9
8
481
625
4
531
564
371
601
4
409
568
434
593
4
393
556
96
626
4
494
528
327
602
4
412
475
453
551
4
87
441
138
498
4
438
406
485
622
4
457
503
596
609
4
426
565
120
631
4
499
636
541
640
4
464
470
564
635
4
69
479
71
608
4
456
503
417
574
4
406
432
484
555
4
400
562
487
592
4
421
495
480
529
4
563
586
428
640
4
466
497
275
530
4
138
342
306
441
4
285
286
339
507
4
138
498
441
573
4
414
527
492
638
4
440
578
473
599
4
532
562
413
575
4
195
446
194
610
4
435
521
80
525
4
471
511
423
551
4
106
108
483
630
4
414
539
452
584
4
407
535
470
635
4
251
576
438
622
4
618
639
444
640
4
84
492
85
540
4
472
574
44
601
4
399
436
545
572
4
403
451
539
595
4
154
152
192
442
4
221
462
214
616
4
514
517
215
538
4
214
462
221
643
4
484
485
236
615
4
152
192
442
565
4
411
489
467
514
4
409
434
523
593
4
409
431
504
528
4
403
539
452
595
4
4
23
523
613
4
399
436
572
589
4
452
498
89
595
4
9
481
8
553
4
2
491
454
594
4
161
163
164
516
4
479
541
456
569
4
440
579
568
634
4
82
81
492
548
4
401
474
460
558
4
424
497
466
545
4
442
565
192
632
4
407
437
587
618
4
401
460
500
606
4
319
474
320
609
4
408
507
480
536
4
13
29
476
577
4
25
438
538
622
4
97
556
554
626
4
5
504
18
523
4
160
162
161
443
4
176
465
317
534
4
444
508
407
618
4
422
508
464
571
4
464
583
478
635
4
427
414
492
548
4
446
533
194
610
4
418
562
461
619
4
74
284
479
525
4
475
544
439
551
4
550
555
499
559
4
402
462
442
557
4
337
432
603
615
4
195
308
168
597
4
430
560
149
621
4
96
556
97
626
4
402
440
473
599
4
425
567
491
629
4
451
498
91
532
4
464
508
407
571
4
409
494
571
606
4
402
473
439
557
4
65
58
52
583
4
399
578
473
581
4
159
161
490
535
4
427
531
156
608
4
183
549
396
576
4
416
476
448
518
4
466
483
108
630
4
425
491
490
620
4
151
483
114
565
4
191
51
68
531
4
399
530
463
589
4
141
455
278
530
4
23
260
261
434
4
137
84
540
548
4
436
416
518
588
4
278
455
146
524
4
428
418
570
605
4
414
492
441
638
4
402
473
440
590
4
43
558
472
602
4
412
491
490
567
4
412
491
567
629
4
406
438
485
512
4
438
411
514
538
4
423
543
493
544
4
404
482
505
553
4
252
393
253
471
4
506
513
410
615
4
85
342
87
441
4
401
457
474
558
4
141
497
455
530
4
407
470
561
564
4
380
209
491
620
4
477
520
426
632
4
475
547
425
571
4
439
449
473
581
4
340
180
307
510
4
117
497
122
582
4
504
523
409
528
4
461
591
428
619
4
411
512
438
588
4
26
10
481
600
4
407
561
464
564
4
46
44
574
601
4
399
488
578
581
4
423
544
493
551
4
115
114
108
483
4
427
414
548
587
4
181
546
524
549
4
355
522
447
593
4
418
496
562
619
4
145
549
142
582
4
138
441
306
573
4
393
113
480
626
4
496
413
562
575
4
225
474
223
552
4
416
576
476
588
4
12
357
19
476
4
490
491
412
614
4
68
51
53
456
4
448
476
416
546
4
119
115
120
565
4
447
505
415
522
4
443
490
412
516
4
490
491
425
567
4
224
223
474
515
4
463
335
530
631
4
80
521
435
603
4
413
532
496
573
4
412
493
544
551
4
436
449
545
563
4
111
471
243
502
4
499
508
437
596
4
417
437
508
596
4
151
507
483
565
4
196
342
85
441
4
398
586
563
640
4
406
555
550
559
4
404
481
448
482
4
422
464
478
571
4
455
497
141
582
4
75
435
80
525
4
342
441
196
509
4
402
440
547
590
4
65
583
52
635
4
287
459
509
525
4
458
413
532
562
4
246
12
469
600
4
27
389
431
625
4
319
375
474
558
4
428
591
570
619
4
106
107
108
630
4
392
463
335
530
4
142
549
455
582
4
412
493
543
544
4
271
372
452
610
4
143
239
513
569
4
539
584
414
638
4
406
438
512
588
4
271
452
502
610
4
458
562
532
575
4
407
437
561
587
4
63
34
494
620
4
399
455
497
530
4
59
515
460
641
4
26
10
268
481
4
398
445
618
627
4
491
598
454
629
4
406
484
469
550
4
450
550
499
559
4
457
503
49
574
4
413
459
441
573
4
404
450
518
633
4
437
508
407
561
4
325
501
359
613
4
82
81
78
492
4
30
355
447
593
4
480
408
495
507
4
453
567
407
618
4
252
393
471
556
4
407
478
464
571
4
347
275
277
466
4
413
459
542
638
4
402
501
454
613
4
47
457
49
574
4
418
496
459
542
4
475
567
453
618
4
33
32
18
528
4
316
159
161
490
4
80
525
521
585
4
4
259
23
613
4
406
485
432
512
4
250
438
251
514
4
400
449
487
563
4
278
524
207
621
4
275
497
466
630
4
436
545
519
563
4
90
452
89
595
4
412
544
475
551
4
404
505
482
579
4
27
431
389
641
4
5
504
523
593
4
431
553
481
634
4
568
579
447
634
4
471
480
253
611
4
162
281
163
516
4
224
474
349
515
4
40
43
472
602
4
166
281
194
516
4
221
611
536
616
4
499
639
450
640
4
145
142
144
582
4
295
468
340
617
4
37
460
38
528
4
46
45
47
574
4
408
473
449
526
4
406
476
438
588
4
436
416
572
589
4
23
434
261
593
4
478
407
535
567
4
120
565
426
632
4
425
494
594
620
4
443
470
407
535
4
399
526
466
545
4
213
496
136
537
4
510
534
465
642
4
195
270
502
610
4
456
503
53
644
4
459
509
405
638
4
411
588
436
591
4
319
47
45
457
4
463
466
399
578
4
116
510
497
630
4
93
451
532
637
4
506
555
484
615
4
431
500
460
606
4
190
459
178
573
4
398
445
586
618
4
242
564
470
635
4
527
587
437
618
4
312
391
477
501
4
176
317
465
612
4
38
528
460
602
4
433
517
411
619
4
429
469
484
550
4
251
438
25
622
4
434
409
523
547
4
412
490
443
567
4
323
295
340
617
4
470
535
158
635
4
363
517
175
537
4
160
162
443
628
4
372
271
452
595
4
15
538
485
622
4
476
576
438
588
4
15
25
538
622
4
271
502
452
595
4
6
593
30
607
4
318
478
58
635
4
229
469
237
484
4
441
509
459
638
4
467
489
206
514
4
74
79
284
525
4
499
541
437
640
4
426
466
463
578
4
319
45
57
558
4
424
468
510
642
4
409
571
444
606
4
409
547
434
568
4
318
58
65
635
4
568
579
440
599
4
407
470
443
587
4
214
543
462
598
4
290
167
170
543
4
466
526
424
545
4
54
506
503
609
4
109
617
510
630
4
434
522
261
593
4
459
496
413
542
4
351
486
215
517
4
422
478
464
583
4
181
546
549
576
4
214
462
543
616
4
453
527
445
618
4
287
459
343
509
4
415
579
568
599
4
424
510
497
545
4
28
337
236
485
4
200
480
536
611
4
399
466
526
578
4
120
426
631
632
4
528
606
431
641
4
476
518
416
588
4
341
576
251
622
4
42
40
472
583
4
463
589
530
621
4
102
103
106
617
4
25
251
250
438
4
400
519
465
642
4
40
558
43
602
4
404
447
579
634
4
286
200
367
507
4
40
43
42
472
4
52
583
464
635
4
472
558
460
602
4
82
492
84
548
4
478
535
490
567
4
443
535
407
567
4
23
260
434
613
4
410
541
499
636
4
167
493
170
543
4
40
472
583
602
4
417
508
437
561
4
2
17
491
594
4
267
447
355
522
4
351
201
486
537
4
142
455
141
582
4
462
501
442
643
4
416
549
467
572
4
93
532
112
637
4
225
224
223
474
4
490
412
516
614
4
267
447
505
553
4
399
497
466
530
4
3
523
454
613
4
527
586
445
618
4
6
504
593
607
4
404
482
448
580
4
400
529
449
545
4
337
432
336
603
4
424
510
468
617
4
345
371
564
601
4
347
275
466
630
4
174
215
514
517
4
98
393
96
626
4
494
409
523
528
4
26
269
244
546
4
426
526
466
578
4
312
501
477
613
4
145
144
311
467
4
447
30
593
607
4
427
479
456
608
4
597
611
185
616
4
267
505
447
522
4
297
302
458
554
4
483
495
408
507
4
541
636
586
640
4
454
425
547
594
4
469
552
246
600
4
403
502
452
584
4
389
625
515
641
4
503
506
54
644
4
268
482
481
553
4
413
542
496
562
4
421
554
592
637
4
162
533
443
628
4
402
547
440
599
4
361
206
467
489
4
143
513
435
569
4
334
194
533
610
4
482
546
448
580
4
406
512
432
555
4
476
546
19
576
4
439
475
453
590
4
178
190
135
459
4
420
552
469
600
4
414
587
443
628
4
177
335
392
463
4
17
380
491
594
4
398
618
590
627
4
415
568
522
599
4
422
494
566
602
4
137
249
533
540
4
422
528
494
602
4
402
544
439
590
4
336
337
28
432
4
120
631
520
632
4
23
5
523
593
4
497
510
419
545
4
278
141
142
455
4
570
591
512
619
4
445
527
584
638
4
404
488
440
579
4
431
607
553
634
4
281
334
194
533
4
422
566
478
583
4
386
317
180
465
4
486
570
512
619
4
454
547
523
594
4
338
193
192
632
4
434
599
477
624
4
146
455
142
549
4
109
307
510
617
4
438
485
512
538
4
428
586
542
605
4
404
481
553
634
4
183
311
396
549
4
431
481
553
607
4
452
502
403
595
4
465
519
419
642
4
328
150
148
560
4
517
537
486
619
4
236
484
255
485
4
224
349
61
515
4
444
508
401
606
4
154
442
192
643
4
463
466
426
631
4
401
508
499
596
4
407
587
453
618
4
458
554
302
637
4
441
492
414
540
4
242
470
158
635
4
48
47
49
574
4
51
191
279
574
4
445
413
539
592
4
293
491
209
614
4
433
562
496
619
4
546
580
482
604
4
414
584
452
610
4
452
502
446
584
4
215
205
174
514
4
267
266
447
553
4
430
589
463
621
4
467
489
419
582
4
437
508
444
618
4
267
30
355
447
4
507
536
408
557
4
453
618
445
627
4
401
499
450
550
4
460
528
37
641
4
382
19
546
576
4
113
495
480
626
4
424
529
468
642
4
410
569
541
636
4
111
92
94
556
4
195
270
271
502
4
428
461
563
591
4
468
534
458
554
4
590
618
453
627
4
95
554
97
556
4
86
85
87
540
4
30
447
266
607
4
396
251
341
576
4
423
551
493
597
4
29
12
13
476
4
409
500
431
606
4
25
438
250
514
4
392
463
530
621
4
104
534
468
554
4
439
581
473
590
4
278
142
146
455
4
445
584
539
638
4
297
458
534
554
4
453
587
527
618
4
425
566
494
620
4
111
92
556
595
4
466
483
426
631
4
449
529
526
545
4
382
19
357
546
4
27
326
607
641
4
404
500
450
633
4
37
38
36
528
4
586
636
428
640
4
180
510
465
623
4
154
536
442
643
4
59
60
515
641
4
337
236
432
615
4
110
116
497
630
4
284
304
479
509
4
389
431
625
641
4
403
539
487
627
4
48
49
503
574
4
417
503
456
596
4
243
502
471
597
4
407
508
464
561
4
462
536
423
616
4
277
392
335
530
4
487
539
445
627
4
567
587
443
645
4
306
343
459
509
4
1
2
491
598
4
217
490
478
535
4
229
369
469
552
4
137
368
249
540
4
271
502
270
610
4
160
443
535
628
4
409
523
504
593
4
461
542
428
586
4
526
529
424
545
4
341
251
332
622
4
434
522
568
599
4
407
443
567
587
4
419
582
489
623
4
108
466
360
631
4
295
99
104
468
4
417
464
472
508
4
285
483
151
507
4
312
391
501
613
4
398
436
563
581
4
458
592
554
637
4
410
541
456
596
4
412
567
443
645
4
417
464
508
561
4
387
462
501
598
4
178
496
203
573
4
310
218
149
621
4
428
591
563
640
4
527
414
584
638
4
457
472
417
574
4
459
496
418
585
4
399
526
473
578
4
416
438
576
588
4
27
431
607
625
4
386
465
180
534
4
150
520
139
560
4
284
388
304
509
4
454
491
425
594
4
402
475
544
590
4
414
443
533
628
4
38
36
528
602
4
422
571
494
606
4
392
177
463
621
4
14
577
13
622
4
504
607
326
641
4
402
501
462
629
4
111
397
252
556
4
474
515
460
558
4
425
494
566
571
4
445
527
453
584
4
99
295
101
468
4
104
468
99
554
4
398
436
559
563
4
423
536
462
557
4
297
302
300
458
4
411
486
512
619
4
365
531
156
564
4
417
472
464
601
4
456
53
569
644
4
398
590
439
627
4
463
520
125
631
4
89
90
88
452
4
431
481
633
634
4
150
520
560
624
4
99
468
101
626
4
405
479
509
525
4
195
194
270
610
4
91
498
451
595
4
412
446
493
551
4
563
591
559
640
4
421
592
451
637
4
385
506
234
513
4
277
360
466
631
4
145
467
311
549
4
440
568
500
634
4
304
196
492
509
4
510
617
424
630
4
70
69
71
608
4
524
546
182
604
4
445
539
487
592
4
411
512
486
538
4
267
266
30
447
4
328
148
505
560
4
124
520
120
631
4
361
280
206
489
4
402
434
547
599
4
13
577
476
622
4
462
536
442
557
4
412
443
516
645
4
348
482
268
553
4
456
503
410
596
4
146
524
455
549
4
422
472
464
508
4
400
529
545
642
4
77
72
78
608
4
435
521
525
605
4
384
21
600
625
4
521
585
525
605
4
125
520
463
560
4
554
556
421
626
4
442
507
408
557
4
366
396
311
467
4
340
468
295
534
4
455
524
530
589
4
411
436
519
591
4
317
465
386
534
4
43
45
472
558
4
198
611
221
616
4
405
605
586
636
4
42
583
472
601
4
135
459
190
585
4
93
91
451
595
4
41
566
322
602
4
9
20
481
553
4
486
432
570
603
4
435
513
143
603
4
410
456
541
569
4
300
458
302
637
4
420
515
474
552
4
221
373
536
611
4
111
252
471
556
4
204
458
532
575
4
478
490
217
620
4
278
352
530
621
4
401
500
444
606
4
196
85
83
492
4
158
535
470
628
4
336
486
187
521
4
66
464
345
564
4
6
30
7
607
4
437
541
499
596
4
143
80
435
603
4
204
458
300
532
4
399
466
463
530
4
287
509
79
525
4
268
481
20
553
4
406
476
469
577
4
212
501
462
643
4
213
136
289
537
4
237
484
469
577
4
423
536
480
611
4
176
534
298
575
4
586
605
428
636
4
13
265
29
577
4
339
480
113
495
4
442
426
565
632
4
29
246
12
469
4
400
468
529
642
4
411
517
486
619
4
554
556
95
637
4
319
57
375
558
4
137
82
84
548
4
36
327
528
602
4
487
539
403
592
4
432
484
555
615
4
275
497
141
530
4
448
481
420
600
4
289
133
147
537
4
425
566
478
571
4
9
20
268
481
4
462
543
423
544
4
226
246
552
600
4
125
520
124
631
4
442
536
507
557
4
439
590
453
627
4
409
431
500
634
4
387
462
212
501
4
453
587
567
645
4
293
380
209
491
4
111
243
344
502
4
447
553
266
607
4
190
459
287
585
4
60
389
515
641
4
44
42
472
601
4
413
496
459
573
4
180
127
510
623
4
319
320
55
609
4
93
556
451
637
4
400
487
449
529
4
32
5
18
523
4
343
287
190
459
4
400
534
468
642
4
431
504
528
641
4
66
52
464
635
4
161
164
316
490
4
522
560
415
624
4
214
221
171
643
4
445
584
453
627
4
402
547
475
590
4
49
503
457
609
4
15
16
485
538
4
418
486
537
619
4
318
58
478
566
4
410
513
569
636
4
441
413
539
638
4
84
83
85
492
4
394
513
239
569
4
408
511
439
557
4
109
323
307
617
4
66
345
464
601
4
27
607
431
641
4
425
475
567
629
4
134
173
489
517
4
428
559
591
640
4
405
509
459
525
4
214
292
543
598
4
297
458
299
534
4
218
310
604
621
4
404
633
481
634
4
424
545
529
642
4
434
523
454
547
4
418
537
496
619
4
496
537
433
619
4
53
69
456
569
4
193
477
391
501
4
470
548
186
628
4
416
546
476
576
4
404
553
447
634
4
443
490
535
567
4
101
468
617
626
4
253
393
113
480
4
181
288
546
576
4
407
464
478
635
4
285
114
151
483
4
319
55
457
609
4
423
543
462
616
4
137
84
368
540
4
412
567
475
629
4
59
324
38
460
4
460
431
606
641
4
330
505
482
553
4
407
567
453
587
4
38
460
324
602
4
431
409
504
634
4
111
502
379
595
4
410
499
541
596
4
119
151
114
565
4
217
159
490
535
4
530
589
524
621
4
403
446
502
584
4
402
454
501
629
4
536
611
423
616
4
488
518
416
580
4
14
265
13
577
4
109
510
116
630
4
214
543
292
616
4
26
268
269
482
4
413
498
441
539
4
408
526
449
529
4
345
564
464
601
4
299
534
458
575
4
412
493
446
516
4
255
22
485
577
4
531
574
417
601
4
407
478
535
635
4
99
554
468
626
4
409
504
568
593
4
460
558
324
602
4
419
545
510
642
4
451
403
539
592
4
402
544
462
557
4
461
519
400
563
4
41
583
566
602
4
324
460
59
558
4
321
583
42
601
4
403
551
446
584
4
338
477
193
632
4
201
147
187
486
4
88
540
452
610
4
66
65
52
635
4
541
586
437
640
4
36
39
327
602
4
541
569
435
636
4
411
512
588
591
4
275
141
276
530
4
62
32
494
523
4
316
217
159
490
4
493
516
412
543
4
95
97
96
556
4
412
453
475
567
4
413
441
498
573
4
116
117
110
497
4
75
143
80
435
4
40
324
43
558
4
300
458
204
575
4
464
472
422
583
4
414
548
587
628
4
129
612
130
623
4
40
324
558
602
4
115
108
360
631
4
15
25
16
538
4
416
436
572
588
4
297
296
104
534
4
406
518
476
588
4
193
172
192
643
4
412
446
551
645
4
393
98
113
626
4
218
310
377
604
4
406
469
484
577
4
88
452
372
610
4
402
439
544
557
4
519
545
436
572
4
100
495
113
626
4
417
464
561
564
4
464
564
66
635
4
330
189
482
505
4
41
322
39
602
4
448
518
404
580
4
486
570
521
603
4
340
295
296
534
4
248
137
533
548
4
83
304
196
492
4
284
79
388
509
4
454
425
491
629
4
466
497
424
630
4
125
139
520
560
4
445
542
461
586
4
459
525
287
585
4
277
335
360
631
4
199
471
253
611
4
221
536
171
643
4
443
414
533
645
4
414
443
587
645
4
414
452
540
610
4
442
536
462
643
4
424
495
483
617
4
44
321
42
601
4
524
604
377
621
4
444
571
508
606
4
410
456
569
644
4
498
539
451
595
4
306
343
190
459
4
424
495
468
529
4
527
541
405
586
4
340
386
180
534
4
297
534
104
554
4
149
560
140
621
4
139
150
282
520
4
422
494
528
606
4
491
543
462
629
4
219
247
470
548
4
510
545
424
642
4
452
539
498
595
4
520
631
426
632
4
435
569
513
636
4
443
516
446
533
4
33
62
32
494
4
414
584
533
645
4
437
541
527
586
4
480
511
423
611
4
412
543
516
614
4
229
237
231
484
4
25
514
250
538
4
180
465
129
623
4
242
158
67
635
4
160
161
159
535
4
449
563
436
581
4
423
493
543
616
4
49
457
47
609
4
508
571
422
606
4
9
264
8
625
4
337
603
240
615
4
280
315
128
623
4
123
117
122
582
4
454
523
434
613
4
382
546
288
576
4
143
239
394
513
4
186
470
247
548
4
470
427
561
564
4
425
478
490
567
4
244
546
269
604
4
300
532
458
637
4
278
207
352
621
4
415
522
505
560
4
68
531
456
608
4
181
288
210
546
4
204
203
179
496
4
385
234
241
513
4
406
484
485
577
4
399
572
455
589
4
234
513
506
615
4
129
465
612
623
4
284
71
74
479
4
141
278
276
530
4
52
321
66
464
4
190
306
459
573
4
462
598
491
629
4
478
566
425
620
4
157
535
478
635
4
150
282
520
624
4
55
47
319
457
4
204
300
390
532
4
111
252
243
471
4
429
474
457
609
4
533
584
446
645
4
450
406
550
559
4
426
483
466
526
4
101
468
295
617
4
346
371
531
564
4
310
377
604
621
4
66
564
197
635
4
221
198
373
611
4
158
470
186
628
4
226
384
273
600
4
68
456
69
608
4
419
489
465
623
4
37
59
38
460
4
135
190
287
585
4
158
160
535
628
4
169
493
168
597
4
355
261
522
593
4
68
53
69
456
4
332
251
25
622
4
195
502
308
597
4
51
50
53
503
4
199
252
253
471
4
169
597
185
616
4
440
581
488
639
4
52
321
464
583
4
421
451
556
637
4
398
563
449
581
4
134
517
489
612
4
407
508
444
571
4
427
548
470
587
4
186
548
247
628
4
421
480
471
511
4
468
495
424
617
4
278
146
207
524
4
439
544
475
590
4
499
555
410
636
4
130
612
489
623
4
425
454
547
629
4
73
239
75
569
4
405
525
459
605
4
528
602
422
606
4
54
503
49
609
4
176
317
298
534
4
462
543
491
598
4
153
200
507
536
4
69
73
71
569
4
404
518
488
580
4
405
586
541
636
4
204
496
179
575
4
446
516
443
645
4
423
611
597
616
4
27
607
264
625
4
129
465
317
612
4
76
525
80
585
4
86
87
88
540
4
390
532
300
637
4
330
482
348
553
4
444
500
409
606
4
410
503
456
644
4
252
397
393
556
4
153
154
155
536
4
100
339
113
495
4
79
287
343
509
4
533
540
414
548
4
454
523
3
594
4
157
217
478
535
4
485
538
438
622
4
281
162
358
533
4
425
478
567
571
4
93
95
556
637
4
349
474
375
558
4
480
495
421
626
4
264
607
8
625
4
445
539
413
542
4
455
530
399
589
4
477
599
415
624
4
481
482
404
553
4
200
536
373
611
4
382
288
19
576
4
67
66
197
635
4
75
80
76
525
4
427
561
527
587
4
468
529
495
626
4
412
544
543
629
4
23
5
4
523
4
412
543
491
629
4
453
590
475
618
4
366
250
251
514
4
66
464
321
601
4
432
603
513
636
4
409
568
504
634
4
111
344
379
502
4
452
584
446
610
4
177
140
125
463
4
327
494
33
528
4
372
452
90
595
4
412
516
446
645
4
481
607
431
625
4
256
380
594
620
4
421
511
487
529
4
337
240
235
615
4
358
533
162
628
4
145
146
142
549
4
504
568
447
634
4
463
530
466
631
4
96
97
98
626
4
539
584
445
627
4
342
196
306
509
4
101
617
495
626
4
468
421
529
626
4
59
60
61
515
4
2
17
380
491
4
411
512
591
619
4
391
193
312
477
4
348
268
20
553
4
413
451
498
539
4
454
24
501
598
4
222
515
389
625
4
364
203
204
532
4
398
563
559
640
4
398
559
450
640
4
495
529
421
626
4
436
518
559
588
4
122
315
582
623
4
488
580
416
589
4
211
182
546
604
4
539
542
445
638
4
443
533
446
645
4
43
45
44
472
4
462
544
423
557
4
439
551
544
557
4
285
339
102
495
4
400
465
534
642
4
371
279
574
601
4
413
542
539
638
4
121
125
124
631
4
320
474
225
552
4
441
498
452
539
4
72
284
304
479
4
424
483
466
630
4
447
568
504
593
4
177
140
463
621
4
543
544
462
629
4
493
597
169
616
4
347
466
108
630
4
434
522
447
568
4
466
483
424
526
4
247
186
219
470
4
120
520
124
632
4
584
587
453
645
4
410
506
503
644
4
169
168
308
597
4
305
190
178
573
4
471
511
480
611
4
346
531
365
564
4
422
566
494
571
4
407
567
478
571
4
405
542
459
638
4
449
526
399
545
4
91
89
498
595
4
173
130
134
489
4
93
95
94
556
4
471
423
511
611
4
512
570
428
591
4
303
374
532
573
4
418
570
486
619
4
180
129
127
623
4
27
353
326
641
4
229
227
369
552
4
189
348
330
482
4
59
460
37
641
4
103
617
109
630
4
308
195
344
502
4
35
504
326
641
4
531
561
427
564
4
414
587
584
645
4
447
593
504
607
4
497
510
424
630
4
129
317
131
612
4
366
467
206
514
4
200
274
480
611
4
319
375
320
474
4
277
360
347
466
4
384
515
222
625
4
246
469
369
552
4
524
546
416
549
4
544
551
423
557
4
347
360
108
466
4
437
586
527
618
4
328
505
267
522
4
214
292
376
616
4
125
463
140
560
4
413
498
451
532
4
419
497
455
582
4
321
464
583
601
4
370
301
213
575
4
140
560
463
621
4
371
56
279
601
4
318
157
478
635
4
72
71
479
608
4
134
174
173
517
4
177
125
335
463
4
460
606
528
641
4
439
551
511
627
4
9
8
20
553
4
414
540
492
548
4
524
580
546
604
4
453
551
439
627
4
83
78
304
492
4
403
452
539
584
4
134
489
130
612
4
489
514
411
517
4
527
561
437
587
4
482
505
430
579
4
188
505
148
560
4
417
564
531
601
4
447
522
434
593
4
335
463
125
631
4
142
141
123
582
4
385
54
506
644
4
417
574
472
601
4
413
451
539
592
4
303
532
498
573
4
280
128
489
623
4
372
88
90
452
4
35
528
504
641
4
53
503
50
644
4
511
551
403
627
4
400
458
562
592
4
48
503
51
574
4
416
546
524
580
4
55
47
457
609
4
364
203
532
573
4
248
548
533
628
4
170
543
493
616
4
425
547
475
629
4
155
536
154
643
4
192
565
313
632
4
520
624
282
632
4
439
511
487
627
4
182
146
181
524
4
128
130
280
489
4
409
500
568
634
4
400
545
519
642
4
215
351
201
486
4
3
454
325
613
4
188
149
189
505
4
43
57
45
558
4
254
230
506
609
4
277
275
276
530
4
406
518
450
550
4
416
518
448
580
4
180
317
129
465
4
267
505
330
553
4
27
264
389
625
4
68
69
70
608
4
93
92
91
595
4
365
346
156
531
4
375
349
224
474
4
446
502
452
610
4
364
532
374
573
4
363
350
175
517
4
212
462
387
598
4
415
520
477
624
4
184
169
185
616
4
72
70
71
608
4
133
136
135
585
4
130
489
128
623
4
416
455
549
572
4
206
489
173
514
4
346
345
371
564
4
261
263
329
522
4
199
243
471
597
4
414
533
548
628
4
450
518
406
559
4
181
524
146
549
4
222
60
389
515
4
201
202
147
537
4
12
11
448
600
4
122
510
127
623
4
481
600
21
625
4
398
618
586
640
4
405
542
586
605
4
412
551
453
645
4
243
344
502
597
4
199
597
471
611
4
158
186
160
628
4
325
454
24
501
4
193
501
331
643
4
398
450
639
640
4
105
540
88
610
4
10
21
481
600
4
248
137
249
533
4
274
367
200
480
4
475
590
444
618
4
447
434
568
593
4
217
318
157
478
4
417
561
531
564
4
219
81
247
548
4
62
494
34
594
4
298
534
299
575
4
223
222
384
515
4
210
211
182
546
4
116
127
122
510
4
11
357
12
448
4
150
522
329
624
4
318
378
58
566
4
121
124
120
631
4
409
528
494
606
4
430
505
560
579
4
351
202
201
537
4
419
545
519
572
4
355
272
261
593
4
301
496
213
575
4
257
336
521
603
4
18
504
35
528
4
403
584
539
627
4
103
109
107
630
4
416
549
546
576
4
27
8
264
607
4
366
311
361
467
4
110
109
116
630
4
237
229
369
469
4
179
203
178
496
4
225
223
226
552
4
308
502
344
597
4
62
31
32
523
4
328
329
150
522
4
513
603
435
636
4
357
11
26
448
4
362
217
316
490
4
470
561
427
587
4
125
139
124
520
4
245
486
28
538
4
364
303
374
532
4
412
453
567
645
4
460
602
528
606
4
106
108
114
483
4
470
443
587
628
4
464
564
417
601
4
188
149
505
560
4
207
524
377
621
4
238
603
513
615
4
74
75
76
525
4
87
138
89
498
4
64
566
478
620
4
44
42
43
472
4
105
88
372
610
4
470
587
548
628
4
362
217
490
620
4
21
9
10
481
4
249
533
540
610
4
431
607
504
641
4
227
246
369
552
4
228
320
225
552
4
236
233
484
615
4
432
570
603
636
4
361
467
144
582
4
254
230
232
506
4
76
80
118
585
4
499
559
555
640
4
421
556
554
637
4
134
175
517
612
4
473
581
440
590
4
312
262
391
613
4
349
324
59
558
4
58
566
41
583
4
359
325
24
501
4
193
331
172
643
4
331
501
212
643
4
416
448
546
580
4
410
569
513
644
4
310
149
140
621
4
455
549
467
582
4
297
299
298
534
4
258
16
0
538
4
300
299
458
575
4
425
490
478
620
4
76
287
525
585
4
82
83
84
492
4
5
6
504
593
4
432
512
486
570
4
257
521
80
603
4
236
255
22
485
4
160
395
162
628
4
404
579
482
580
4
273
384
21
600
4
9
268
10
481
4
451
413
532
592
4
126
520
282
632
4
461
562
433
619
4
120
124
126
632
4
188
148
149
560
4
63
566
64
620
4
495
617
468
626
4
403
487
511
627
4
66
321
345
601
4
380
1
2
491
4
48
50
51
503
4
84
85
86
540
4
199
243
252
471
4
415
560
505
579
4
23
259
260
613
4
134
175
350
517
4
418
521
486
570
4
482
579
430
580
4
330
188
189
505
4
387
212
331
501
4
206
366
361
467
4
311
144
361
467
4
113
339
367
480
4
460
515
431
641
4
428
605
570
636
4
462
544
402
629
4
363
370
213
537
4
26
448
11
600
4
19
333
476
576
4
153
155
200
536
4
515
625
431
641
4
242
186
158
470
4
455
572
416
589
4
547
568
440
599
4
358
162
395
628
4
56
574
279
601
4
13
476
333
622
4
171
536
155
643
4
425
567
475
571
4
217
318
478
620
4
64
478
318
620
4
420
515
625
633
4
263
329
522
624
4
350
517
363
537
4
179
178
136
496
4
407
561
470
587
4
519
591
461
619
4
478
566
422
571
4
458
532
413
592
4
80
521
132
585
4
33
327
62
494
4
416
524
455
589
4
473
526
426
578
4
93
112
354
637
4
455
524
416
549
4
398
639
618
640
4
430
604
524
621
4
21
9
481
625
4
236
233
255
484
4
414
540
533
610
4
224
61
223
515
4
566
583
422
602
4
18
5
6
504
4
463
520
426
578
4
286
153
200
507
4
91
90
89
595
4
197
66
345
564
4
418
542
459
605
4
285
151
286
507
4
171
155
154
643
4
420
600
481
625
4
456
531
427
608
4
451
592
532
637
4
180
127
307
510
4
13
333
14
622
4
417
574
503
596
4
402
547
454
629
4
151
152
507
565
4
553
607
447
634
4
25
250
216
538
4
27
389
353
641
4
82
78
83
492
4
12
19
13
476
4
250
514
216
538
4
254
506
54
609
4
167
169
170
493
4
221
155
171
536
4
450
559
499
640
4
500
633
404
634
4
435
603
570
636
4
532
592
458
637
4
463
560
430
621
4
297
300
299
458
4
467
549
455
572
4
167
165
166
516
4
374
303
138
573
4
174
351
215
517
4
327
63
494
566
4
422
583
472
602
4
229
228
227
552
4
110
497
275
630
4
512
555
428
570
4
432
555
512
570
4
446
584
551
645
4
303
498
138
573
4
394
513
569
644
4
169
167
168
493
4
154
192
172
643
4
249
368
105
540
4
173
206
280
489
4
112
532
354
637
4
152
153
151
507
4
30
266
7
607
4
170
493
169
616
4
124
520
126
632
4
372
90
271
595
4
112
390
354
532
4
417
457
574
596
4
209
490
164
614
4
419
455
572
582
4
412
475
544
629
4
285
106
114
483
4
245
187
336
486
4
271
379
502
595
4
262
501
391
613
4
411
591
519
619
4
431
625
515
633
4
189
383
482
604
4
23
261
272
593
4
559
588
512
591
4
253
480
274
611
4
271
270
372
610
4
428
555
512
559
4
406
512
555
559
4
164
516
165
614
4
410
513
506
644
4
179
496
301
575
4
24
454
2
598
4
390
354
532
637
4
101
495
100
626
4
469
550
429
552
4
420
550
469
552
4
246
29
369
469
4
215
216
514
538
4
423
597
493
616
4
33
18
35
528
4
312
477
283
624
4
320
224
225
474
4
471
597
423
611
4
109
307
116
510
4
275
117
141
497
4
212
220
462
598
4
199
185
597
611
4
212
462
214
643
4
316
164
209
490
4
244
211
546
604
4
30
272
355
593
4
216
205
215
514
4
430
524
580
589
4
364
374
203
573
4
165
164
163
516
4
503
574
457
596
4
294
156
531
608
4
110
117
275
497
4
434
568
547
599
4
520
415
560
624
4
278
352
276
530
4
213
301
179
496
4
459
542
405
605
4
234
506
232
615
4
426
520
463
631
4
76
118
287
585
4
131
130
129
612
4
555
559
428
640
4
3
325
259
613
4
63
34
62
494
4
313
565
120
632
4
28
236
258
485
4
336
28
245
486
4
50
503
54
644
4
256
594
34
620
4
413
562
458
592
4
351
517
350
537
4
420
625
481
633
4
101
102
495
617
4
41
58
322
566
4
63
64
34
620
4
54
50
49
503
4
234
385
232
506
4
504
607
431
634
4
447
607
504
634
4
249
540
105
610
4
237
469
29
577
4
122
128
315
623
4
256
209
380
620
4
328
148
188
505
4
219
186
242
470
4
2
454
3
594
4
333
476
576
622
4
435
570
521
605
4
418
585
521
605
4
377
524
182
604
4
283
477
338
632
4
314
53
50
644
4
586
618
437
640
4
430
580
524
604
4
337
336
240
603
4
338
192
313
632
4
206
173
205
514
4
126
282
283
632
4
328
267
355
522
4
344
195
271
502
4
470
535
443
628
4
72
71
284
479
4
298
317
386
534
4
46
56
44
601
4
214
212
220
462
4
351
350
202
537
4
282
624
283
632
4
385
241
54
644
4
255
233
231
484
4
237
369
29
469
4
489
612
465
623
4
418
521
570
605
4
18
326
35
504
4
416
580
524
589
4
53
309
569
644
4
512
559
406
588
4
152
313
192
565
4
267
330
266
553
4
212
387
220
598
4
336
187
257
521
4
300
204
299
575
4
213
179
136
496
4
145
311
183
549
4
335
125
121
631
4
181
549
183
576
4
80
132
118
585
4
68
294
531
608
4
555
570
432
636
4
418
459
585
605
4
269
482
383
604
4
209
362
490
620
4
376
221
214
616
4
302
554
95
637
4
111
379
92
595
4
227
226
246
552
4
200
373
274
611
4
277
276
392
530
4
214
462
220
598
4
143
257
80
603
4
348
269
268
482
4
189
218
383
604
4
460
422
602
606
4
50
48
49
503
4
31
3
523
594
4
95
302
97
554
4
419
572
467
582
4
36
327
33
528
4
183
396
341
576
4
310
207
377
621
4
157
159
217
535
4
412
491
543
614
4
315
361
144
582
4
120
313
119
565
4
143
513
238
603
4
467
572
455
582
4
244
269
211
604
4
304
388
196
509
4
82
247
81
548
4
55
49
47
609
4
338
283
193
477
4
173
280
130
489
4
394
238
143
513
4
237
255
484
577
4
394
569
309
644
4
2
325
3
454
4
190
305
306
573
4
488
579
404
580
4
344
271
379
502
4
385
54
254
506
4
46
574
56
601
4
198
221
184
616
4
428
570
555
636
4
19
333
13
476
4
387
501
24
598
4
35
326
353
641
4
390
300
354
637
4
359
391
262
501
4
35
37
36
528
4
255
231
237
484
4
481
625
431
633
4
306
196
343
509
4
53
309
69
569
4
402
544
475
629
4
327
63
62
494
4
187
147
132
521
4
94
397
111
556
4
444
618
590
639
4
362
316
209
490
4
125
140
139
560
4
551
584
453
645
4
406
559
518
588
4
430
524
589
621
4
253
113
274
480
4
266
553
8
607
4
28
485
258
538
4
453
584
551
627
4
129
130
128
623
4
166
163
281
516
4
35
37
528
641
4
387
331
359
501
4
100
101
102
495
4
392
530
352
621
4
209
256
362
620
4
436
559
563
591
4
356
55
320
609
4
312
283
263
624
4
472
583
464
601
4
349
375
57
558
4
421
468
554
626
4
343
388
79
509
4
347
108
107
630
4
262
359
501
613
4
393
397
96
556
4
238
513
234
615
4
402
475
547
629
4
283
624
477
632
4
86
88
105
540
4
99
97
554
626
4
261
329
355
522
4
297
104
302
554
4
375
224
320
474
4
327
322
63
566
4
62
34
31
594
4
433
537
517
619
4
215
486
0
538
4
498
532
413
573
4
176
131
317
612
4
436
588
559
591
4
48
51
279
574
4
150
329
381
624
4
24
1
291
598
4
245
215
201
486
4
38
324
40
602
4
267
328
188
505
4
269
189
383
482
4
282
126
124
520
4
246
226
273
600
4
281
358
334
533
4
438
576
476
622
4
262
325
359
613
4
315
123
122
582
4
38
39
36
602
4
97
104
99
554
4
294
77
156
608
4
262
312
260
613
4
358
248
533
628
4
465
419
623
642
4
40
583
41
602
4
74
76
79
525
4
496
562
433
575
4
276
352
392
530
4
208
165
290
614
4
234
232
233
615
4
170
292
290
543
4
266
20
8
553
4
193
283
312
477
4
113
367
274
480
4
347
110
275
630
4
513
603
432
615
4
216
16
25
538
4
405
586
542
638
4
296
386
340
534
4
199
185
243
597
4
542
586
445
638
4
0
486
245
538
4
214
220
292
598
4
181
183
288
576
4
48
46
47
574
4
204
179
301
575
4
519
563
461
591
4
60
59
37
641
4
138
303
89
498
4
191
68
294
531
4
150
139
148
560
4
521
570
435
603
4
115
121
120
631
4
428
559
512
591
4
15
485
22
622
4
64
63
378
566
4
222
61
60
515
4
1
24
2
598
4
243
308
344
597
4
303
364
112
532
4
22
485
577
622
4
258
485
16
538
4
221
373
155
536
4
155
373
200
536
4
19
288
333
576
4
267
188
330
505
4
10
26
11
600
4
27
326
7
607
4
323
101
295
617
4
241
513
394
644
4
359
24
387
501
4
254
54
49
609
4
6
272
30
593
4
519
545
419
642
4
99
101
100
626
4
477
624
520
632
4
12
246
11
600
4
116
307
127
510
4
146
182
207
524
4
403
551
584
627
4
234
238
241
513
4
377
182
211
604
4
339
100
102
495
4
337
235
236
615
4
570
605
435
636
4
355
329
328
522
4
398
590
618
639
4
245
0
215
486
4
223
61
222
515
4
134
350
174
517
4
16
258
15
485
4
197
365
242
564
4
314
50
54
644
4
217
64
318
620
4
382
210
288
546
4
6
326
18
504
4
91
89
303
498
4
527
586
405
638
4
445
586
527
638
4
157
158
535
635
4
52
58
41
583
4
212
214
171
643
4
170
292
543
616
4
334
533
249
610
4
359
331
391
501
4
382
357
244
546
4
364
204
390
532
4
356
230
254
609
4
20
330
348
553
4
291
543
491
614
4
331
193
391
501
4
42
41
40
583
4
394
239
309
569
4
301
370
176
575
4
287
79
76
525
4
124
139
282
520
4
32
4
5
523
4
194
334
270
610
4
286
151
153
507
4
142
123
144
582
4
318
65
157
635
4
10
273
21
600
4
436
563
519
591
4
289
147
202
537
4
1
380
293
491
4
525
585
459
605
4
271
90
379
595
4
176
298
299
575
4
189
269
348
482
4
4
31
3
523
4
86
368
84
540
4
430
482
580
604
4
166
165
163
516
4
100
113
98
626
4
82
137
247
548
4
263
381
329
624
4
371
345
56
601
4
101
103
102
617
4
151
119
152
565
4
21
264
9
625
4
346
371
191
531
4
159
158
160
535
4
510
623
419
642
4
118
132
133
585
4
248
249
358
533
4
207
182
377
524
4
248
247
548
628
4
57
43
324
558
4
24
325
2
454
4
305
178
203
573
4
465
623
510
642
4
237
29
265
577
4
385
254
232
506
4
290
543
291
614
4
296
297
298
534
4
46
279
56
574
4
53
314
309
644
4
135
287
118
585
4
332
25
15
622
4
199
198
185
611
4
52
42
321
583
4
145
181
146
549
4
440
590
581
639
4
23
272
5
593
4
289
363
213
537
4
33
35
36
528
4
22
577
14
622
4
150
381
282
624
4
350
363
202
537
4
177
310
140
621
4
0
245
28
538
4
4
32
31
523
4
95
93
354
637
4
184
170
169
616
4
241
394
309
644
4
581
590
398
639
4
256
380
17
594
4
157
67
158
635
4
94
95
96
556
4
392
352
177
621
4
384
222
21
625
4
138
306
305
573
4
72
77
70
608
4
245
201
187
486
4
131
134
130
612
4
257
240
336
603
4
157
158
159
535
4
205
216
250
514
4
185
169
308
597
4
126
313
120
632
4
335
121
360
631
4
7
266
8
607
4
248
247
137
548
4
109
103
323
617
4
291
491
293
614
4
354
300
302
637
4
40
41
39
602
4
358
395
248
628
4
56
321
44
601
4
122
127
128
623
4
197
345
346
564
4
491
543
291
598
4
334
249
105
610
4
17
2
3
594
4
258
236
22
485
4
349
57
324
558
4
156
346
294
531
4
314
54
241
644
4
199
253
274
611
4
225
226
227
552
4
60
353
389
641
4
331
212
172
643
4
256
17
34
594
4
73
69
309
569
4
235
238
234
615
4
67
65
66
635
4
266
330
20
553
4
248
186
247
628
4
68
70
294
608
4
208
209
164
614
4
174
350
351
517
4
256
34
64
620
4
431
633
500
634
4
127
129
128
623
4
378
322
58
566
4
205
250
206
514
4
5
272
6
593
4
138
305
374
573
4
211
269
383
604
4
140
149
148
560
4
360
121
115
631
4
291
293
208
614
4
376
184
221
616
4
27
7
8
607
4
343
196
388
509
4
86
105
368
540
4
241
238
394
513
4
134
131
175
612
4
144
123
315
582
4
97
302
104
554
4
364
390
112
532
4
241
309
314
644
4
208
164
165
614
4
240
143
238
603
4
22
265
14
577
4
35
353
37
641
4
197
346
365
564
4
99
98
97
626
4
313
152
119
565
4
366
206
250
514
4
131
176
175
612
4
325
262
259
613
4
225
227
228
552
4
90
91
92
595
4
236
235
233
615
4
345
321
56
601
4
309
239
73
569
4
15
22
14
622
4
107
109
110
630
4
183
181
145
549
4
260
259
262
613
4
290
291
208
614
4
358
249
334
533
4
218
377
383
604
4
395
160
186
628
4
283
381
263
624
4
289
202
363
537
4
354
302
95
637
4
126
283
338
632
4
222
389
264
625
4
96
397
94
556
4
80
257
132
521
4
170
376
292
616
4
154
172
171
643
4
296
298
386
534
4
1
491
291
598
4
48
279
46
574
4
346
191
294
531
4
243
185
308
597
4
341
333
288
576
4
301
176
299
575
4
118
133
135
585
4
3
31
17
594
4
208
293
209
614
4
0
28
258
538
4
148
139
140
560
4
52
41
42
583
4
310
352
207
621
4
246
273
11
600
4
15
258
22
485
4
1
293
291
491
4
39
38
40
602
4
362
64
217
620
4
107
110
347
630
4
282
381
283
624
4
105
372
270
610
4
341
288
183
576
4
222
264
21
625
4
14
333
332
622
4
323
103
101
617
4
332
15
14
622
4
244
211
210
546
4
257
187
132
521
4
291
220
24
598
4
374
305
203
573
4
237
22
255
577
4
378
63
322
566
4
65
67
157
635
4
395
186
248
628
4
240
257
143
603
4
237
265
22
577
4
233
235
234
615
4
55
254
49
609
4
98
99
100
626
4
204
301
299
575
4
334
105
270
610
4
77
294
70
608
4
313
126
338
632
4
92
379
90
595
4
170
184
376
616
4
11
273
10
600
4
382
244
210
546
4
274
373
198
611
4
274
198
199
611
4
310
177
352
621
4
291
543
292
598
4
356
254
55
609
4
37
353
60
641
4
291
290
292
543
4
377
211
383
604
4
362
256
64
620
4
34
17
31
594
4
16
216
0
538
4
171
172
212
643
4
215
0
216
538
4
291
292
220
598
4
387
24
220
598
4
612
411
519
433
4
612
519
411
489
4
575
465
562
433
4
575
562
465
534
4
400
562
465
433
4
400
465
562
534
4
604
149
621
430
4
604
621
149
218
4
582
280
623
315
4
582
623
280
489
4
627
563
449
398
4
627
449
563
487
4
476
357
546
448
4
476
546
357
19
4
556
403
502
451
4
556
502
403
471
4
597
446
551
493
4
597
551
446
502
4
589
578
463
399
4
589
463
578
430
4
608
81
78
77
4
608
78
81
427
4
367
507
339
286
4
339
507
367
480
4
106
495
285
102
4
285
495
106
483
4
506
231
615
484
4
506
615
231
232
4
233
615
231
484
4
233
231
615
232
4
194
516
168
166
4
168
516
194
446
4
516
168
167
493
4
516
167
168
166
4
575
612
175
176
4
175
612
575
433
4
175
370
575
176
4
575
370
175
433
4
555
513
636
432
4
555
636
513
410
4
556
93
92
94
4
532
93
91
451
4
532
91
93
112
4
622
406
577
476
4
622
577
406
485
4
569
143
75
435
4
569
75
143
239
4
576
467
416
549
4
576
416
467
438
4
582
145
467
144
4
582
467
145
549
4
562
542
592
413
4
562
592
542
461
4
445
592
542
413
4
445
542
592
461
4
175
537
370
363
4
370
537
175
433
4
546
26
357
244
4
546
357
26
448
4
545
563
400
519
4
400
563
545
449
4
434
624
613
263
4
434
613
624
477
4
312
613
624
263
4
312
624
613
477
4
452
89
87
88
4
452
87
89
498
4
219
564
242
365
4
242
564
219
470
4
574
191
371
531
4
574
371
191
279
4
599
522
624
434
4
599
624
522
415
4
595
93
556
451
4
595
556
93
92
4
613
4
3
523
4
613
3
4
259
4
91
532
303
112
4
303
532
91
498
4
554
592
400
421
4
400
592
554
458
4
182
546
181
210
4
181
546
182
524
4
599
579
578
415
4
599
578
579
440
4
566
318
64
478
4
566
64
318
378
4
602
322
327
566
4
602
327
322
39
4
534
295
104
468
4
534
104
295
296
4
513
385
644
241
4
513
644
385
506
4
560
578
520
463
4
520
578
560
415
4
557
551
511
439
4
557
511
551
423
4
582
117
141
123
4
582
141
117
497
4
622
341
333
332
4
622
333
341
576
4
636
405
435
541
4
636
435
405
605
4
594
62
523
31
4
594
523
62
494
4
587
584
527
414
4
587
527
584
453
4
555
640
636
499
4
636
640
555
428
4
616
198
185
184
4
616
185
198
611
4
197
635
242
67
4
242
635
197
564
4
533
584
610
446
4
610
584
533
414
4
579
589
580
488
4
580
589
579
430
4
615
240
238
603
4
615
238
240
235
4
607
6
326
7
4
607
326
6
504
CELL_TYPES 2648
10
10
10
10
10
10
10
10
10
10
10
10
10
10
10
10
10
10
10
10
10
10
10
10
10
10
10
10
10
10
10
10
10
10
10
10
10
10
10
10
10
10
10
10
10
10
10
10
10
10
10
10
10
10
10
10
10
10
10
10
10
10
10
10
10
10
10
10
10
10
10
10
10
10
10
10
10
10
10
10
10
10
10
10
10
10
10
10
10
10
10
10
10
10
10
10
10
10
10
10
10
10
10
10
10
10
10
10
10
10
10
10
10
10
10
10
10
10
10
10
10
10
10
10
10
10
10
10
10
10
10
10
10
10
10
10
10
10
10
10
10
10
10
10
10
10
10
10
10
10
10
10
10
10
10
10
10
10
10
10
10
10
10
10
10
10
10
10
10
10
10
10
10
10
10
10
10
10
10
10
10
10
10
10
10
10
10
10
10
10
10
10
10
10
10
10
10
10
10
10
10
10
10
10
10
10
10
10
10
10
10
10
10
10
10
10
10
10
10
10
10
10
10
10
10
10
10
10
10
10
10
10
10
10
10
10
10
10
10
10
10
10
10
10
10
10
10
10
10
10
10
10
10
10
10
10
10
10
10
10
10
10
10
10
10
10
10
10
10
10
10
10
10
10
10
10
10
10
10
10
10
10
10
10
10
10
10
10
10
10
10
10
10
10
10
10
10
10
10
10
10
10
10
10
10
10
10
10
10
10
10
10
10
10
10
10
10
10
10
10
10
10
10
10
10
10
10
10
10
10
10
10
10
10
10
10
10
10
10
10
10
10
10
10
10
10
10
10
10
10
10
10
10
10
10
10
10
10
10
10
10
10
10
10
10
10
10
10
10
10
10
10
10
10
10
10
10
10
10
10
10
10
10
10
10
10
10
10
10
10
10
10
10
10
10
10
10
10
10
10
10
10
10
10
10
10
10
10
10
10
10
10
10
10
10
10
10
10
10
10
10
10
10
10
10
10
10
10
10
10
10
10
10
10
10
10
10
10
10
10
10
10
10
10
10
10
10
10
10
10
10
10
10
10
10
10
10
10
10
10
10
10
10
10
10
10
10
10
10
10
10
10
10
10
10
10
10
10
10
10
10
10
10
10
10
10
10
10
10
10
10
10
10
10
10
10
10
10
10
10
10
10
10
10
10
10
10
10
10
10
10
10
10
10
10
10
10
10
10
10
10
10
10
10
10
10
10
10
10
10
10
10
10
10
10
10
10
10
10
10
10
10
10
10
10
10
10
10
10
10
10
10
10
10
10
10
10
10
10
10
10
10
10
10
10
10
10
10
10
10
10
10
10
10
10
10
10
10
10
10
10
10
10
10
10
10
10
10
10
10
10
10
10
10
10
10
10
10
10
10
10
10
10
10
10
10
10
10
10
10
10
10
10
10
10
10
10
10
10
10
10
10
10
10
10
10
10
10
10
10
10
10
10
10
10
10
10
10
10
10
10
10
10
10
10
10
10
10
10
10
10
10
10
10
10
10
10
10
10
10
10
10
10
10
10
10
10
10
10
10
10
10
10
10
10
10
10
10
10
10
10
10
10
10
10
10
10
10
10
10
10
10
10
10
10
10
10
10
10
10
10
10
10
10
10
10
10
10
10
10
10
10
10
10
10
10
10
10
10
10
10
10
10
10
10
10
10
10
10
10
10
10
10
10
10
10
10
10
10
10
10
10
10
10
10
10
10
10
10
10
10
10
10
10
10
10
10
10
10
10
10
10
10
10
10
10
10
10
10
10
10
10
10
10
10
10
10
10
10
10
10
10
10
10
10
10
10
10
10
10
10
10
10
10
10
10
10
10
10
10
10
10
10
10
10
10
10
10
10
10
10
10
10
10
10
10
10
10
10
10
10
10
10
10
10
10
10
10
10
10
10
10
10
10
10
10
10
10
10
10
10
10
10
10
10
10
10
10
10
10
10
10
10
10
10
10
10
10
10
10
10
10
10
10
10
10
10
10
10
10
10
10
10
10
10
10
10
10
10
10
10
10
10
10
10
10
10
10
10
10
10
10
10
10
10
10
10
10
10
10
10
10
10
10
10
10
10
10
10
10
10
10
10
10
10
10
10
10
10
10
10
10
10
10
10
10
10
10
10
10
10
10
10
10
10
10
10
10
10
10
10
10
10
10
10
10
10
10
10
10
10
10
10
10
10
10
10
10
10
10
10
10
10
10
10
10
10
10
10
10
10
10
10
10
10
10
10
10
10
10
10
10
10
10
10
10
10
10
10
10
10
10
10
10
10
10
10
10
10
10
10
10
10
10
10
10
10
10
10
10
10
10
10
10
10
10
10
10
10
10
10
10
10
10
10
10
10
10
10
10
10
10
10
10
10
10
10
10
10
10
10
10
10
10
10
10
10
10
10
10
10
10
10
10
10
10
10
10
10
10
10
10
10
10
10
10
10
10
10
10
10
10
10
10
10
10
10
10
10
10
10
10
10
10
10
10
10
10
10
10
10
10
10
10
10
10
10
10
10
10
10
10
10
10
10
10
10
10
10
10
10
10
10
10
10
10
10
10
10
10
10
10
10
10
10
10
10
10
10
10
10
10
10
10
10
10
10
10
10
10
10
10
10
10
10
10
10
10
10
10
10
10
10
10
10
10
10
10
10
10
10
10
10
10
10
10
10
10
10
10
10
10
10
10
10
10
10
10
10
10
10
10
10
10
10
10
10
10
10
10
10
10
10
10
10
10
10
10
10
10
10
10
10
10
10
10
10
10
10
10
10
10
10
10
10
10
10
10
10
10
10
10
10
10
10
10
10
10
10
10
10
10
10
10
10
10
10
10
10
10
10
10
10
10
10
10
10
10
10
10
10
10
10
10
10
10
10
10
10
10
10
10
10
10
10
10
10
10
10
10
10
10
10
10
10
10
10
10
10
10
10
10
10
10
10
10
10
10
10
10
10
10
10
10
10
10
10
10
10
10
10
10
10
10
10
10
10
10
10
10
10
10
10
10
10
10
10
10
10
10
10
10
10
10
10
10
10
10
10
10
10
10
10
10
10
10
10
10
10
10
10
10
10
10
10
10
10
10
10
10
10
10
10
10
10
10
10
10
10
10
10
10
10
10
10
10
10
10
10
10
10
10
10
10
10
10
10
10
10
10
10
10
10
10
10
10
10
10
10
10
10
10
10
10
10
10
10
10
10
10
10
10
10
10
10
10
10
10
10
10
10
10
10
10
10
10
10
10
10
10
10
10
10
10
10
10
10
10
10
10
10
10
10
10
10
10
10
10
10
10
10
10
10
10
10
10
10
10
10
10
10
10
10
10
10
10
10
10
10
10
10
10
10
10
10
10
10
10
10
10
10
10
10
10
10
10
10
10
10
10
10
10
10
10
10
10
10
10
10
10
10
10
10
10
10
10
10
10
10
10
10
10
10
10
10
10
10
10
10
10
10
10
10
10
10
10
10
10
10
10
10
10
10
10
10
10
10
10
10
10
10
10
10
10
10
10
10
10
10
10
10
10
10
10
10
10
10
10
10
10
10
10
10
10
10
10
10
10
10
10
10
10
10
10
10
10
10
10
10
10
10
10
10
10
10
10
10
10
10
10
10
10
10
10
10
10
10
10
10
10
10
10
10
10
10
10
10
10
10
10
10
10
10
10
10
10
10
10
10
10
10
10
10
10
10
10
10
10
10
10
10
10
10
10
10
10
10
10
10
10
10
10
10
10
10
10
10
10
10
10
10
10
10
10
10
10
10
10
10
10
10
10
10
10
10
10
10
10
10
10
10
10
10
10
10
10
10
10
10
10
10
10
10
10
10
10
10
10
10
10
10
10
10
10
10
10
10
10
10
10
10
10
10
10
10
10
10
10
10
10
10
10
10
10
10
10
10
10
10
10
10
10
10
10
10
10
10
10
10
10
10
10
10
10
10
10
10
10
10
10
10
10
10
10
10
10
10
10
10
10
10
10
10
10
10
10
10
10
10
10
10
10
10
10
10
10
10
10
10
10
10
10
10
10
10
10
10
10
10
10
10
10
10
10
10
10
10
10
10
10
10
10
10
10
10
10
10
10
10
10
10
10
10
10
10
10
10
10
10
10
10
10
10
10
10
10
10
10
10
10
10
10
10
10
10
10
10
10
10
10
10
10
10
10
10
10
10
10
10
10
10
10
10
10
10
10
10
10
10
10
10
10
10
10
10
10
10
10
10
10
10
10
10
10
10
10
10
10
10
10
10
10
10
10
10
10
10
10
10
10
10
10
10
10
10
10
10
10
10
10
10
10
10
10
10
10
10
10
10
10
10
10
10
10
10
10
10
10
10
10
10
10
10
10
10
10
10
10
10
10
10
10
10
10
10
10
10
10
10
10
10
10
10
10
10
10
10
10
10
10
10
10
10
10
10
10
10
10
10
10
10
10
10
10
10
10
10
10
10
10
10
10
10
10
10
10
10
10
10
10
10
10
10
10
10
10
10
10
10
10
10
10
10
10
10
10
10
10
10
10
10
10
10
10
10
10
10
10
10
10
10
10
10
10
10
10
10
10
10
10
10
10
10
10
10
10
10
10
10
10
10
10
10
10
10
10
10
10
10
10
10
10
10
10
10
10
10
10
10
10
10
10
10
10
10
10
10
10
10
10
10
10
10
10
10
10
10
10
10
10
10
10
10
10
10
10
10
10
10
10
10
10
10
10
10
10
10
10
10
10
10
10
10
10
10
10
10
10
10
10
10
10
10
10
10
10
10
10
10
10
10
10
10
10
10
10
10
10
10
10
10
10
10
10
10
10
10
10
10
10
10
10
10
10
10
10
10
10
10
10
10
10
10
10
10
10
10
10
10
10
10
10
10
10
10
10
10
10
10
10
10
10
10
10
10
10
10
10
10
10
10
10
10
10
10
10
10
10
10
10
10
10
10
10
10
10
10
10
10
10
10
10
10
10
10
10
10
10
10
10
10
10
10
10
10
10
10
10
10
10
10
10
10
10
10
10
10
10
10
10
10
10
10
10
10
10
10
10
10
10
10
10
10
10
10
10
10
10
10
10
10
10
10
10
10
10
10
10
10
10
10
10
10
10
10
10
10
10
10
10
10
10
10
10
10
10
10
10
10
10
10
10
10
10
10
10
10
10
10
10
10
10
10
10
10
10
10
10
10
10
10
10
10
10
10
10
10
10
10
10
10
10
10
10
10
10
10
10
10
10
10
10
10
10
10
10
10
10
10
10
10
10
10
10
10
10
10
10
10
10
10
10
10
10
10
10
10
10
10
10
10
10
10
10
10
10
10
10
10
10
10
10
10
10
10
10
10
10
10
10
10
10
10
10
10
10
10
10
10
10
10
10
10
10
10
10
10
10
10
10
10
10
10
10
10
10
10
10
10
10
10
10
10
10
10
10
10
10
10
10
10
10
10
10
10
10
10
10
10
10
10
10
10
10
10
10
10
10
10
10
10
10
10
10
10
10
10
10
10
10
10
10
10
10
10
10
10
10
10
10
10
10
10
10
10
10
10
10
10
10
10
10
10
10
10
10
10
10
10
10
10
10
10
10
10
10
10
10
10
10
10
10
10
10
10
10
10
10
10
10
10
10
10
10
10
10
10
10
10
10
10
10
10
10
10
10
10
10
10
10
10
10
10
10
10
10
10
10
10
10
10
10
10
10
10
10
10
10
10
10
10
10
10
10
10
10
10
10
10
10
10
10
10
10
10
10
10
10
10
10
10
10
10
10
10
10
10
10
10
10
10
10
10
10
10
10
10
10
10
10
10
10
10
10
10
10
10
10
10
10
10
10
10
10
10
10
10
10
10
10
10
10
10
10
10
10
10
10
10
10
10
10
10
10
10
10
10
10
10
10
10
10
10
10
10
10
10
10
10
10
10
10
10
10
10
10
10
10
10
10
10
10
10
10
10
10
10
10
10
10
10
10
10
10
10
10
10
10
10
10
10
10
10
10
10
10
10
10
10
10
10
10
10
10
10
10
10
10
10
10
10
10
10
10
10
10
10
10
