solid Created by Gmsh
facet normal -0.137025 0.250348 0.95841
  outer loop
    vertex 7.87966043240413 8.83313782321633 14.28305213036124
    vertex 3.995891557607087 7.003890512365039 14.2056084875214
    vertex 6.674600000000001 6.6746 14.6746
  endloop
endfacet
facet normal -0.0669579 -0.841237 0.536505
  outer loop
    vertex 5.477754634825041 0.7716065844993594 11.93979039621696
    vertex 4.931467812947063 -0.2821640265329162 10.21930371929694
    vertex 7.436806859829069 -0.3517160758653786 10.42292270553981
  endloop
endfacet
facet normal -0.00472464 -0.806529 0.591176
  outer loop
    vertex 7.436806859829069 -0.3517160758653786 10.42292270553981
    vertex 7.556047865165912 0.9288021639569317 12.17085844446176
    vertex 5.477754634825041 0.7716065844993594 11.93979039621696
  endloop
endfacet
facet normal -0.0674153 -0.867559 -0.492744
  outer loop
    vertex 5.818734694316268 -0.8838499686490282 4.197236754539942
    vertex 5.316992517616797 0.6077008429438955 1.639757744090778
    vertex 7.748997382403072 -0.287332999964991 2.882877545931942
  endloop
endfacet
facet normal -0.30096 0.951659 -0.0613885
  outer loop
    vertex 5.802192991457206 14.59298389258382 5.941045270539045
    vertex 3.255957133742556 13.7333280061969 5.097501433797309
    vertex 4.365502960793929 14.25623115071127 7.76406774073134
  endloop
endfacet
facet normal -0.165174 -0.614106 -0.771746
  outer loop
    vertex 6.470189172978619 2.669199723403047 -0.247465070340894
    vertex 5.316992517616797 0.6077008429438955 1.639757744090778
    vertex 4.142211474361 2.785093428033001 0.1585623250139614
  endloop
endfacet
facet normal -0.0903415 0.290723 0.952533
  outer loop
    vertex 6.318075210293802 10.7485481394021 13.55034262402157
    vertex 4.159519449943176 9.469173050890152 13.73609639169804
    vertex 7.87966043240413 8.83313782321633 14.28305213036124
  endloop
endfacet
facet normal 0.556591 -0.343928 0.756254
  outer loop
    vertex 10.23497978551257 4.572185802643546 13.52321667241403
    vertex 10.91612829206924 2.697505521484924 12.16933905263399
    vertex 12.17158675405114 4.494527163162882 12.06258840494959
  endloop
endfacet
facet normal 0.767494 0.204635 -0.607518
  outer loop
    vertex 13.14673595499959 6.674599999999998 1.972317981660225
    vertex 11.64466486099468 9.071477904895124 0.8820676015984628
    vertex 13.49006437661173 8.99777996207497 3.188587923866325
  endloop
endfacet
facet normal 0.618367 0.773839 -0.137092
  outer loop
    vertex 12.51336087659414 12.14146586831981 6.525439000561555
    vertex 11.61542245009232 12.43840918743872 4.151352654324057
    vertex 10.6674985649947 13.6032920014223 6.451019591444204
  endloop
endfacet
facet normal 0.508526 -0.844585 -0.167565
  outer loop
    vertex 10.25546175067767 -0.4790769472179743 6.722924500781466
    vertex 9.883939807195917 -0.1780643715314669 4.078231572158735
    vertex 11.97554205106465 0.8005134048017224 5.493448001582197
  endloop
endfacet
facet normal -0.1786 -0.864782 -0.469312
  outer loop
    vertex 3.804708753643367 -0.04849740515418333 3.42441761821053
    vertex 5.316992517616797 0.6077008429438955 1.639757744090778
    vertex 5.818734694316268 -0.8838499686490282 4.197236754539942
  endloop
endfacet
facet normal -0.446388 0.80976 -0.380824
  outer loop
    vertex 1.93384686527902 12.14272662704312 3.265076439991182
    vertex 3.255957133742556 13.7333280061969 5.097501433797309
    vertex 3.989546214140149 12.84441919265178 2.347497355386001
  endloop
endfacet
facet normal -0.0673299 -0.652957 -0.754397
  outer loop
    vertex 7.510778218513369 0.9590943246979293 1.139818986945046
    vertex 5.316992517616797 0.6077008429438955 1.639757744090778
    vertex 6.470189172978619 2.669199723403047 -0.247465070340894
  endloop
endfacet
facet normal 0.523807 0.827263 -0.203131
  outer loop
    vertex 10.6674985649947 13.6032920014223 6.451019591444204
    vertex 11.61542245009232 12.43840918743872 4.151352654324057
    vertex 9.687014577950096 13.69833872207826 4.3097632668338
  endloop
endfacet
facet normal -0.707997 -0.677002 0.20102
  outer loop
    vertex 0.1570430699485668 2.460235884786412 8.613823238293758
    vertex 0.9302392861589261 1.10765910449269 6.781787010442214
    vertex 2.136106786956645 0.4834663940419999 8.926697695113802
  endloop
endfacet
facet normal 0.587971 -0.178056 0.789041
  outer loop
    vertex 10.23497978551257 4.572185802643546 13.52321667241403
    vertex 12.17158675405114 4.494527163162882 12.06258840494959
    vertex 11.37688201833979 6.674599999999999 13.14673595499957
  endloop
endfacet
facet normal 0.700878 0.132438 0.700878
  outer loop
    vertex 13.14673595499958 6.674599999999998 11.37688201833978
    vertex 11.7684900908912 9.291598313875136 12.26061857919352
    vertex 11.37688201833979 6.674599999999999 13.14673595499957
  endloop
endfacet
facet normal 0.768478 0.199399 0.608015
  outer loop
    vertex 13.33409384657573 9.216306076787628 10.30652399791638
    vertex 11.7684900908912 9.291598313875136 12.26061857919352
    vertex 13.14673595499958 6.674599999999998 11.37688201833978
  endloop
endfacet
facet normal -0.584034 -0.506425 -0.63438
  outer loop
    vertex 0.9076185590785002 2.897933138877385 2.615201955934201
    vertex 2.208035556384109 3.817064196171503 0.684250160394261
    vertex 3.045397425555448 1.528819331765363 1.740045310054034
  endloop
endfacet
facet normal -0.626769 -0.768499 0.128727
  outer loop
    vertex 2.136106786956645 0.4834663940419999 8.926697695113802
    vertex 0.9302392861589261 1.10765910449269 6.781787010442214
    vertex 2.49783572469991 -0.1430239775430708 6.947809607090814
  endloop
endfacet
facet normal -0.356545 0.856973 -0.372119
  outer loop
    vertex 3.989546214140149 12.84441919265178 2.347497355386001
    vertex 3.255957133742556 13.7333280061969 5.097501433797309
    vertex 5.255043372304286 14.02471011141206 3.853121605455163
  endloop
endfacet
facet normal 0.884071 0.124527 0.450457
  outer loop
    vertex 14.28305213036123 6.674599999999998 9.146735954999585
    vertex 13.33409384657573 9.216306076787628 10.30652399791638
    vertex 13.14673595499958 6.674599999999998 11.37688201833978
  endloop
endfacet
facet normal -0.186555 0.0080381 -0.982412
  outer loop
    vertex 3.625316687015417 7.216070404722164 -0.7016240393011239
    vertex 5.582898535430465 8.384992078868835 -1.063794332728171
    vertex 5.432233817710331 5.063402266636746 -1.062361169161192
  endloop
endfacet
facet normal 0.734306 0.359148 -0.576028
  outer loop
    vertex 11.64466486099468 9.071477904895124 0.8820676015984628
    vertex 11.89750968367146 10.9377140980728 2.367968761662567
    vertex 13.49006437661173 8.99777996207497 3.188587923866325
  endloop
endfacet
facet normal 0.599107 -0.585534 0.546096
  outer loop
    vertex 10.91612829206924 2.697505521484924 12.16933905263399
    vertex 11.5063830400451 1.157188651145764 9.870228993088372
    vertex 12.49787558798228 2.927730425201404 10.680898767673
  endloop
endfacet
facet normal 0.701945 0.120605 -0.701945
  outer loop
    vertex 11.37688201833979 6.674599999999999 0.2024640450004238
    vertex 11.64466486099468 9.071477904895124 0.8820676015984628
    vertex 13.14673595499959 6.674599999999998 1.972317981660225
  endloop
endfacet
facet normal 0.925715 0.1988 0.321761
  outer loop
    vertex 14.28305213036123 6.674599999999998 9.146735954999585
    vertex 14.27027173956141 8.921929455159502 7.794993299159149
    vertex 13.33409384657573 9.216306076787628 10.30652399791638
  endloop
endfacet
facet normal 0.530311 -0.635089 0.561633
  outer loop
    vertex 9.626966382270687 0.8613765107041989 11.31032706361553
    vertex 11.5063830400451 1.157188651145764 9.870228993088372
    vertex 10.91612829206924 2.697505521484924 12.16933905263399
  endloop
endfacet
facet normal 0.358141 -0.920694 -0.155102
  outer loop
    vertex 8.10623774935058 -1.0959568979417 5.422059042392195
    vertex 9.883939807195917 -0.1780643715314669 4.078231572158735
    vertex 10.25546175067767 -0.4790769472179743 6.722924500781466
  endloop
endfacet
facet normal 0.515975 0.179821 -0.837516
  outer loop
    vertex 9.53001615399093 8.919031000090794 -0.4534521935069398
    vertex 11.64466486099468 9.071477904895124 0.8820676015984628
    vertex 11.37688201833979 6.674599999999999 0.2024640450004238
  endloop
endfacet
facet normal -0.21891 0.00950862 -0.975699
  outer loop
    vertex 5.432233817710331 5.063402266636746 -1.062361169161192
    vertex 5.582898535430465 8.384992078868835 -1.063794332728171
    vertex 6.674600000000001 6.6746 -1.3254
  endloop
endfacet
facet normal 0.583916 0.180614 0.791467
  outer loop
    vertex 11.7684900908912 9.291598313875136 12.26061857919352
    vertex 10.20799055077671 8.868840665172042 13.50837341729935
    vertex 11.37688201833979 6.674599999999999 13.14673595499957
  endloop
endfacet
facet normal -0.702749 -0.32992 -0.630314
  outer loop
    vertex 0.2866298493365269 5.260725257746647 2.070819426661334
    vertex 2.208035556384109 3.817064196171503 0.684250160394261
    vertex 0.9076185590785002 2.897933138877385 2.615201955934201
  endloop
endfacet
facet normal -0.410276 0.911925 -0.00811089
  outer loop
    vertex 4.365502960793929 14.25623115071127 7.76406774073134
    vertex 3.255957133742556 13.7333280061969 5.097501433797309
    vertex 2.254005964523336 13.30300570382759 7.397501237358172
  endloop
endfacet
facet normal -0.669848 -0.206526 -0.713197
  outer loop
    vertex 1.761517465701928 6.353367243261511 0.3691714239892123
    vertex 2.208035556384109 3.817064196171503 0.684250160394261
    vertex 0.2866298493365269 5.260725257746647 2.070819426661334
  endloop
endfacet
facet normal -0.599657 -0.592431 -0.537993
  outer loop
    vertex 0.9076185590785002 2.897933138877385 2.615201955934201
    vertex 3.045397425555448 1.528819331765363 1.740045310054034
    vertex 2.019381008373117 1.039892712132544 3.422061004069316
  endloop
endfacet
facet normal 0.45111 0.112466 -0.885354
  outer loop
    vertex 9.146735954999585 6.674599999999999 -0.9338521303612266
    vertex 9.53001615399093 8.919031000090794 -0.4534521935069398
    vertex 11.37688201833979 6.674599999999999 0.2024640450004238
  endloop
endfacet
facet normal -0.291089 -0.640489 -0.710662
  outer loop
    vertex 4.142211474361 2.785093428033001 0.1585623250139614
    vertex 5.316992517616797 0.6077008429438955 1.639757744090778
    vertex 3.045397425555448 1.528819331765363 1.740045310054034
  endloop
endfacet
facet normal 0.561732 -0.77255 -0.296011
  outer loop
    vertex 11.97554205106465 0.8005134048017224 5.493448001582197
    vertex 9.883939807195917 -0.1780643715314669 4.078231572158735
    vertex 11.548237211106 1.371343704126434 3.19277102734779
  endloop
endfacet
facet normal 0.504602 0.398251 0.766011
  outer loop
    vertex 10.37968292736762 11.02149960072173 12.27610197380794
    vertex 10.20799055077671 8.868840665172042 13.50837341729935
    vertex 11.7684900908912 9.291598313875136 12.26061857919352
  endloop
endfacet
facet normal -0.696657 -0.649116 0.305477
  outer loop
    vertex 2.136106786956645 0.4834663940419999 8.926697695113802
    vertex 1.305982702973036 2.079119553837655 10.424201017042
    vertex 0.1570430699485668 2.460235884786412 8.613823238293758
  endloop
endfacet
facet normal -0.256749 0.947498 -0.1906
  outer loop
    vertex 5.255043372304286 14.02471011141206 3.853121605455163
    vertex 3.255957133742556 13.7333280061969 5.097501433797309
    vertex 5.802192991457206 14.59298389258382 5.941045270539045
  endloop
endfacet
facet normal -0.413506 -0.811002 0.41387
  outer loop
    vertex 2.136106786956645 0.4834663940419999 8.926697695113802
    vertex 4.931467812947063 -0.2821640265329162 10.21930371929694
    vertex 3.224080440367302 1.149240841479029 11.31833997311872
  endloop
endfacet
facet normal -0.394359 -0.849943 0.349397
  outer loop
    vertex 4.028396654888319 -0.7435612542949483 8.077629387289145
    vertex 4.931467812947063 -0.2821640265329162 10.21930371929694
    vertex 2.136106786956645 0.4834663940419999 8.926697695113802
  endloop
endfacet
facet normal -0.431272 0.196335 0.880601
  outer loop
    vertex 4.159519449943176 9.469173050890152 13.73609639169804
    vertex 2.114409245009825 7.302617930881366 13.21755451280182
    vertex 3.995891557607087 7.003890512365039 14.2056084875214
  endloop
endfacet
facet normal -0.450603 0.218159 0.865658
  outer loop
    vertex 2.226230887929921 9.360771127610487 12.75707457174896
    vertex 2.114409245009825 7.302617930881366 13.21755451280182
    vertex 4.159519449943176 9.469173050890152 13.73609639169804
  endloop
endfacet
facet normal -0.551196 0.784741 -0.283487
  outer loop
    vertex 1.257630464570041 12.3905227108783 5.265817328510384
    vertex 3.255957133742556 13.7333280061969 5.097501433797309
    vertex 1.93384686527902 12.14272662704312 3.265076439991182
  endloop
endfacet
facet normal -0.0595209 -0.903893 0.423597
  outer loop
    vertex 4.931467812947063 -0.2821640265329162 10.21930371929694
    vertex 6.103793758004418 -1.005328221474501 8.840906244993626
    vertex 7.436806859829069 -0.3517160758653786 10.42292270553981
  endloop
endfacet
facet normal 0.424193 -0.423823 0.800272
  outer loop
    vertex 9.016991662688351 2.401797086596901 13.01938971769609
    vertex 10.91612829206924 2.697505521484924 12.16933905263399
    vertex 10.23497978551257 4.572185802643546 13.52321667241403
  endloop
endfacet
facet normal -0.695819 -0.702304 -0.150347
  outer loop
    vertex 0.5077395182816034 1.966943909901866 4.723239977763744
    vertex 2.123650165635408 0.2775041862875209 5.136412509711779
    vertex 0.9302392861589261 1.10765910449269 6.781787010442214
  endloop
endfacet
facet normal 0.0796306 -0.94653 -0.312634
  outer loop
    vertex 5.818734694316268 -0.8838499686490282 4.197236754539942
    vertex 7.748997382403072 -0.287332999964991 2.882877545931942
    vertex 8.10623774935058 -1.0959568979417 5.422059042392195
  endloop
endfacet
facet normal 0.778623 0.457549 -0.429413
  outer loop
    vertex 11.89750968367146 10.9377140980728 2.367968761662567
    vertex 13.17223447584761 10.8458838843973 4.581483430373749
    vertex 13.49006437661173 8.99777996207497 3.188587923866325
  endloop
endfacet
facet normal -0.283357 -0.0776649 -0.955865
  outer loop
    vertex 3.625316687015417 7.216070404722164 -0.7016240393011239
    vertex 5.432233817710331 5.063402266636746 -1.062361169161192
    vertex 3.437641991730949 5.130954524418305 -0.4765720366957344
  endloop
endfacet
facet normal 0.881127 0.377996 0.284137
  outer loop
    vertex 14.27027173956141 8.921929455159502 7.794993299159149
    vertex 13.1424314206319 11.00616953226725 8.519772648133731
    vertex 13.33409384657573 9.216306076787628 10.30652399791638
  endloop
endfacet
facet normal -0.466944 -0.50561 -0.725481
  outer loop
    vertex 2.208035556384109 3.817064196171503 0.684250160394261
    vertex 4.142211474361 2.785093428033001 0.1585623250139614
    vertex 3.045397425555448 1.528819331765363 1.740045310054034
  endloop
endfacet
facet normal 0.228644 -0.917848 -0.324465
  outer loop
    vertex 8.10623774935058 -1.0959568979417 5.422059042392195
    vertex 7.748997382403072 -0.287332999964991 2.882877545931942
    vertex 9.883939807195917 -0.1780643715314669 4.078231572158735
  endloop
endfacet
facet normal -0.00219495 -0.813567 -0.581466
  outer loop
    vertex 7.748997382403072 -0.287332999964991 2.882877545931942
    vertex 5.316992517616797 0.6077008429438955 1.639757744090778
    vertex 7.510778218513369 0.9590943246979293 1.139818986945046
  endloop
endfacet
facet normal 0.300043 0.683477 -0.665457
  outer loop
    vertex 10.05450766018597 11.21300347992707 1.019591771712254
    vertex 7.727245059187126 12.23764542671374 1.022656620976443
    vertex 8.847431969974817 13.05902066798173 2.371348442804783
  endloop
endfacet
facet normal 0.112763 0.869068 -0.48167
  outer loop
    vertex 8.847431969974817 13.05902066798173 2.371348442804783
    vertex 6.324096170178995 13.26749301196736 2.156756620904975
    vertex 7.408379946294451 14.22831292566914 4.144187380090921
  endloop
endfacet
facet normal -0.552773 -0.197878 -0.809498
  outer loop
    vertex 1.761517465701928 6.353367243261511 0.3691714239892123
    vertex 3.437641991730949 5.130954524418305 -0.4765720366957344
    vertex 2.208035556384109 3.817064196171503 0.684250160394261
  endloop
endfacet
facet normal 0.410555 0.428118 0.805083
  outer loop
    vertex 10.37968292736762 11.02149960072173 12.27610197380794
    vertex 8.734672811737639 10.48975426083572 13.39774643424985
    vertex 10.20799055077671 8.868840665172042 13.50837341729935
  endloop
endfacet
facet normal -0.660818 0.603199 0.446622
  outer loop
    vertex 2.03032705400201 11.18607302141392 11.37325299635177
    vertex 1.84059358171598 12.43282547204973 9.40868510493484
    vertex 0.4668889489627572 10.67027219249056 9.756632971430992
  endloop
endfacet
facet normal 0.984119 -0.177499 -0.001819
  outer loop
    vertex 14.6746 6.674599999999998 6.674600000000012
    vertex 14.28598718878982 4.507979827492039 7.846155414996598
    vertex 14.28305213036128 4.516062176783927 5.469539567595639
  endloop
endfacet
facet normal 0.777832 0.483771 0.401176
  outer loop
    vertex 13.1424314206319 11.00616953226725 8.519772648133731
    vertex 11.88585841772231 11.23329404371991 10.68222951374886
    vertex 13.33409384657573 9.216306076787628 10.30652399791638
  endloop
endfacet
facet normal -0.415702 -0.351918 -0.838657
  outer loop
    vertex 3.437641991730949 5.130954524418305 -0.4765720366957344
    vertex 4.142211474361 2.785093428033001 0.1585623250139614
    vertex 2.208035556384109 3.817064196171503 0.684250160394261
  endloop
endfacet
facet normal 0.237887 0.164277 -0.9573
  outer loop
    vertex 9.146735954999585 6.674599999999999 -0.9338521303612266
    vertex 7.382154665393537 8.778371323254476 -1.011329521855632
    vertex 9.53001615399093 8.919031000090794 -0.4534521935069398
  endloop
endfacet
facet normal -0.00471752 -0.18103 0.983466
  outer loop
    vertex 6.674600000000001 6.6746 14.6746
    vertex 5.386536500445285 4.532759688750799 14.27416659963072
    vertex 7.879660432403301 4.51606217678315 14.28305213036122
  endloop
endfacet
facet normal 0.694925 0.635172 0.337099
  outer loop
    vertex 13.1424314206319 11.00616953226725 8.519772648133731
    vertex 11.39468528460632 12.78242109209928 8.775865431341341
    vertex 11.88585841772231 11.23329404371991 10.68222951374886
  endloop
endfacet
facet normal 0.718842 0.411819 0.560063
  outer loop
    vertex 11.88585841772231 11.23329404371991 10.68222951374886
    vertex 11.7684900908912 9.291598313875136 12.26061857919352
    vertex 13.33409384657573 9.216306076787628 10.30652399791638
  endloop
endfacet
facet normal 0.983484 -0.0921726 0.155769
  outer loop
    vertex 14.28305213036123 6.674599999999998 9.146735954999585
    vertex 14.28598718878982 4.507979827492039 7.846155414996598
    vertex 14.6746 6.674599999999998 6.674600000000012
  endloop
endfacet
facet normal 0.46895 0.398819 -0.788055
  outer loop
    vertex 9.53001615399093 8.919031000090794 -0.4534521935069398
    vertex 10.05450766018597 11.21300347992707 1.019591771712254
    vertex 11.64466486099468 9.071477904895124 0.8820676015984628
  endloop
endfacet
facet normal 0.714979 0.680194 0.161683
  outer loop
    vertex 13.1424314206319 11.00616953226725 8.519772648133731
    vertex 12.51336087659414 12.14146586831981 6.525439000561555
    vertex 11.39468528460632 12.78242109209928 8.775865431341341
  endloop
endfacet
facet normal 0.557055 0.708931 0.432558
  outer loop
    vertex 11.39468528460632 12.78242109209928 8.775865431341341
    vertex 9.891008731266119 12.74292093420003 10.77706217691093
    vertex 11.88585841772231 11.23329404371991 10.68222951374886
  endloop
endfacet
facet normal 0.931779 -0.363018 -0.00238527
  outer loop
    vertex 14.28598718878982 4.507979827492039 7.846155414996598
    vertex 13.50357136464006 2.507455554058216 6.667032465221551
    vertex 14.28305213036128 4.516062176783927 5.469539567595639
  endloop
endfacet
facet normal 0.322416 0.45818 -0.828323
  outer loop
    vertex 9.53001615399093 8.919031000090794 -0.4534521935069398
    vertex 7.775050546997918 10.68001400669433 -0.1624803146217957
    vertex 10.05450766018597 11.21300347992707 1.019591771712254
  endloop
endfacet
facet normal 0.443238 0.825532 0.349338
  outer loop
    vertex 11.39468528460632 12.78242109209928 8.775865431341341
    vertex 9.200479905177339 13.98550007113434 8.716822038493648
    vertex 9.891008731266119 12.74292093420003 10.77706217691093
  endloop
endfacet
facet normal 0.889077 -0.433203 -0.147906
  outer loop
    vertex 13.50357136464006 2.507455554058216 6.667032465221551
    vertex 13.17707101182001 2.617920597799147 4.380864407522136
    vertex 14.28305213036128 4.516062176783927 5.469539567595639
  endloop
endfacet
facet normal 0.212153 0.361449 -0.907935
  outer loop
    vertex 9.53001615399093 8.919031000090794 -0.4534521935069398
    vertex 7.382154665393537 8.778371323254476 -1.011329521855632
    vertex 7.775050546997918 10.68001400669433 -0.1624803146217957
  endloop
endfacet
facet normal 0.2836 0.860227 0.423769
  outer loop
    vertex 9.200479905177339 13.98550007113434 8.716822038493648
    vertex 7.575670000340996 13.64300366283751 10.499442904779
    vertex 9.891008731266119 12.74292093420003 10.77706217691093
  endloop
endfacet
facet normal 0.783876 -0.604657 -0.141166
  outer loop
    vertex 13.50357136464006 2.507455554058216 6.667032465221551
    vertex 11.97554205106465 0.8005134048017224 5.493448001582197
    vertex 13.17707101182001 2.617920597799147 4.380864407522136
  endloop
endfacet
facet normal 0.236461 0.78491 0.572714
  outer loop
    vertex 7.575670000340996 13.64300366283751 10.499442904779
    vertex 8.164615800043835 12.12210326066059 12.34068869862729
    vertex 9.891008731266119 12.74292093420003 10.77706217691093
  endloop
endfacet
facet normal 0.149817 0.936681 0.316519
  outer loop
    vertex 9.200479905177339 13.98550007113434 8.716822038493648
    vertex 6.776982080775939 14.49556800419081 8.354474217600714
    vertex 7.575670000340996 13.64300366283751 10.499442904779
  endloop
endfacet
facet normal 0.706273 -0.645244 -0.29127
  outer loop
    vertex 11.97554205106465 0.8005134048017224 5.493448001582197
    vertex 11.548237211106 1.371343704126434 3.19277102734779
    vertex 13.17707101182001 2.617920597799147 4.380864407522136
  endloop
endfacet
facet normal 0.744704 -0.667394 0.00108393
  outer loop
    vertex 13.50357136464006 2.507455554058216 6.667032465221551
    vertex 12.04713789875083 0.8843815281358287 7.943145062096339
    vertex 11.97554205106465 0.8005134048017224 5.493448001582197
  endloop
endfacet
facet normal 0.182682 0.972171 0.146665
  outer loop
    vertex 9.200479905177339 13.98550007113434 8.716822038493648
    vertex 8.358586042279793 14.49102935664676 6.414555538498664
    vertex 6.776982080775939 14.49556800419081 8.354474217600714
  endloop
endfacet
facet normal 0.351753 0.669544 0.654202
  outer loop
    vertex 8.164615800043835 12.12210326066059 12.34068869862729
    vertex 10.37968292736762 11.02149960072173 12.27610197380794
    vertex 9.891008731266119 12.74292093420003 10.77706217691093
  endloop
endfacet
facet normal 0.0576302 0.77868 0.624769
  outer loop
    vertex 7.575670000340996 13.64300366283751 10.499442904779
    vertex 5.743772127803337 12.60057851172211 11.96764620714288
    vertex 8.164615800043835 12.12210326066059 12.34068869862729
  endloop
endfacet
facet normal 0.601331 -0.79894 0.00977786
  outer loop
    vertex 12.04713789875083 0.8843815281358287 7.943145062096339
    vertex 10.25546175067767 -0.4790769472179743 6.722924500781466
    vertex 11.97554205106465 0.8005134048017224 5.493448001582197
  endloop
endfacet
facet normal 0.0349926 0.999044 0.0261919
  outer loop
    vertex 8.358586042279793 14.49102935664676 6.414555538498664
    vertex 5.802192991457206 14.59298389258382 5.941045270539045
    vertex 6.776982080775939 14.49556800419081 8.354474217600714
  endloop
endfacet
facet normal 0.0119632 0.65176 0.758331
  outer loop
    vertex 5.743772127803337 12.60057851172211 11.96764620714288
    vertex 6.318075210293802 10.7485481394021 13.55034262402157
    vertex 8.164615800043835 12.12210326066059 12.34068869862729
  endloop
endfacet
facet normal 0.528584 -0.834386 0.156201
  outer loop
    vertex 12.04713789875083 0.8843815281358287 7.943145062096339
    vertex 10.10428192374229 -0.1254939694633119 9.123273908143767
    vertex 10.25546175067767 -0.4790769472179743 6.722924500781466
  endloop
endfacet
facet normal 0.0656522 0.98772 -0.141771
  outer loop
    vertex 8.358586042279793 14.49102935664676 6.414555538498664
    vertex 7.408379946294451 14.22831292566914 4.144187380090921
    vertex 5.802192991457206 14.59298389258382 5.941045270539045
  endloop
endfacet
facet normal -0.169813 0.609268 0.774568
  outer loop
    vertex 5.743772127803337 12.60057851172211 11.96764620714288
    vertex 3.953493267288724 11.05656887316085 12.78965739497536
    vertex 6.318075210293802 10.7485481394021 13.55034262402157
  endloop
endfacet
facet normal -0.11976 0.98887 0.088286
  outer loop
    vertex 5.802192991457206 14.59298389258382 5.941045270539045
    vertex 4.365502960793929 14.25623115071127 7.76406774073134
    vertex 6.776982080775939 14.49556800419081 8.354474217600714
  endloop
endfacet
facet normal 0.361356 -0.918923 0.158121
  outer loop
    vertex 10.10428192374229 -0.1254939694633119 9.123273908143767
    vertex 8.208707305186131 -1.057784473403209 8.037224354562738
    vertex 10.25546175067767 -0.4790769472179743 6.722924500781466
  endloop
endfacet
facet normal -0.211329 0.480161 0.851343
  outer loop
    vertex 3.953493267288724 11.05656887316085 12.78965739497536
    vertex 4.159519449943176 9.469173050890152 13.73609639169804
    vertex 6.318075210293802 10.7485481394021 13.55034262402157
  endloop
endfacet
facet normal -0.0579093 0.967022 -0.248021
  outer loop
    vertex 7.408379946294451 14.22831292566914 4.144187380090921
    vertex 5.255043372304286 14.02471011141206 3.853121605455163
    vertex 5.802192991457206 14.59298389258382 5.941045270539045
  endloop
endfacet
facet normal 0.235908 0.949131 -0.208562
  outer loop
    vertex 8.358586042279793 14.49102935664676 6.414555538498664
    vertex 9.687014577950096 13.69833872207826 4.3097632668338
    vertex 7.408379946294451 14.22831292566914 4.144187380090921
  endloop
endfacet
facet normal -0.288462 0.688643 0.665252
  outer loop
    vertex 5.743772127803337 12.60057851172211 11.96764620714288
    vertex 3.581277276801013 12.7130208954263 10.91356539497787
    vertex 3.953493267288724 11.05656887316085 12.78965739497536
  endloop
endfacet
facet normal 0.274038 -0.961713 0.00330013
  outer loop
    vertex 8.208707305186131 -1.057784473403209 8.037224354562738
    vertex 8.10623774935058 -1.0959568979417 5.422059042392195
    vertex 10.25546175067767 -0.4790769472179743 6.722924500781466
  endloop
endfacet
facet normal 0.246 -0.904874 0.3474
  outer loop
    vertex 10.10428192374229 -0.1254939694633119 9.123273908143767
    vertex 7.436806859829069 -0.3517160758653786 10.42292270553981
    vertex 8.208707305186131 -1.057784473403209 8.037224354562738
  endloop
endfacet
facet normal 0.235254 0.888131 -0.394814
  outer loop
    vertex 9.687014577950096 13.69833872207826 4.3097632668338
    vertex 8.847431969974817 13.05902066798173 2.371348442804783
    vertex 7.408379946294451 14.22831292566914 4.144187380090921
  endloop
endfacet
facet normal 0.108112 -0.994086 0.0102741
  outer loop
    vertex 8.208707305186131 -1.057784473403209 8.037224354562738
    vertex 6.078394874470163 -1.302474586751006 6.778621563645306
    vertex 8.10623774935058 -1.0959568979417 5.422059042392195
  endloop
endfacet
facet normal 0.288893 -0.847424 0.445436
  outer loop
    vertex 10.10428192374229 -0.1254939694633119 9.123273908143767
    vertex 9.626966382270687 0.8613765107041989 11.31032706361553
    vertex 7.436806859829069 -0.3517160758653786 10.42292270553981
  endloop
endfacet
facet normal 0.210283 -0.795438 0.568384
  outer loop
    vertex 9.626966382270687 0.8613765107041989 11.31032706361553
    vertex 7.556047865165912 0.9288021639569317 12.17085844446176
    vertex 7.436806859829069 -0.3517160758653786 10.42292270553981
  endloop
endfacet
facet normal -0.00614706 -0.987183 -0.159474
  outer loop
    vertex 6.078394874470163 -1.302474586751006 6.778621563645306
    vertex 5.818734694316268 -0.8838499686490282 4.197236754539942
    vertex 8.10623774935058 -1.0959568979417 5.422059042392195
  endloop
endfacet
facet normal -0.163318 -0.976315 -0.141901
  outer loop
    vertex 6.078394874470163 -1.302474586751006 6.778621563645306
    vertex 3.976241873346594 -0.7759497061876051 5.575430997548009
    vertex 5.818734694316268 -0.8838499686490282 4.197236754539942
  endloop
endfacet
facet normal 0.313217 -0.189042 -0.930676
  outer loop
    vertex 10.32636365409011 4.43612599587151 -0.08216374809031102
    vertex 7.791930422716273 4.570210459625921 -0.9623573384193298
    vertex 9.146735954999585 6.674599999999999 -0.9338521303612266
  endloop
endfacet
facet normal -0.270015 -0.918438 -0.289075
  outer loop
    vertex 3.976241873346594 -0.7759497061876051 5.575430997548009
    vertex 3.804708753643367 -0.04849740515418333 3.42441761821053
    vertex 5.818734694316268 -0.8838499686490282 4.197236754539942
  endloop
endfacet
facet normal -0.252493 -0.967435 0.0177853
  outer loop
    vertex 6.078394874470163 -1.302474586751006 6.778621563645306
    vertex 4.028396654888319 -0.7435612542949483 8.077629387289145
    vertex 3.976241873346594 -0.7759497061876051 5.575430997548009
  endloop
endfacet
facet normal 0.451748 -0.0992717 -0.886605
  outer loop
    vertex 11.37688201833979 6.674599999999999 0.2024640450004238
    vertex 10.32636365409011 4.43612599587151 -0.08216374809031102
    vertex 9.146735954999585 6.674599999999999 -0.9338521303612266
  endloop
endfacet
facet normal -0.814623 -0.457448 -0.356554
  outer loop
    vertex 0.9076185590785002 2.897933138877385 2.615201955934201
    vertex 0.5077395182816034 1.966943909901866 4.723239977763744
    vertex -0.521661980654458 4.211949679219959 4.194848620657881
  endloop
endfacet
facet normal -0.377851 -0.925653 0.0198574
  outer loop
    vertex 4.028396654888319 -0.7435612542949483 8.077629387289145
    vertex 2.49783572469991 -0.1430239775430708 6.947809607090814
    vertex 3.976241873346594 -0.7759497061876051 5.575430997548009
  endloop
endfacet
facet normal -0.590783 0.425394 -0.685577
  outer loop
    vertex 0.9766207389068704 10.1515888217941 2.265112379734865
    vertex 2.990727955952941 11.08386556242301 1.10796152035009
    vertex 2.110895089440828 8.829861232566778 0.4675518683408901
  endloop
endfacet
facet normal -0.448642 0.401919 -0.798236
  outer loop
    vertex 2.990727955952941 11.08386556242301 1.10796152035009
    vertex 4.331897978092223 9.597462676795162 -0.3942486339111149
    vertex 2.110895089440828 8.829861232566778 0.4675518683408901
  endloop
endfacet
facet normal -0.746507 -0.0276808 -0.664802
  outer loop
    vertex 0.3542086944415761 7.756295945760744 1.89102522525818
    vertex 1.761517465701928 6.353367243261511 0.3691714239892123
    vertex 0.2866298493365269 5.260725257746647 2.070819426661334
  endloop
endfacet
facet normal -0.29683 0.208359 -0.931922
  outer loop
    vertex 4.331897978092223 9.597462676795162 -0.3942486339111149
    vertex 5.582898535430465 8.384992078868835 -1.063794332728171
    vertex 3.625316687015417 7.216070404722164 -0.7016240393011239
  endloop
endfacet
facet normal -0.421758 0.238066 -0.874897
  outer loop
    vertex 4.331897978092223 9.597462676795162 -0.3942486339111149
    vertex 3.625316687015417 7.216070404722164 -0.7016240393011239
    vertex 2.110895089440828 8.829861232566778 0.4675518683408901
  endloop
endfacet
facet normal 0.704011 -0.0934698 0.704011
  outer loop
    vertex 11.37688201833979 6.674599999999999 13.14673595499957
    vertex 12.17158675405114 4.494527163162882 12.06258840494959
    vertex 13.14673595499958 6.674599999999998 11.37688201833978
  endloop
endfacet
facet normal 0.155779 -0.0914433 0.98355
  outer loop
    vertex 6.674600000000001 6.6746 14.6746
    vertex 7.879660432403301 4.51606217678315 14.28305213036122
    vertex 9.146735954999595 6.674599999999999 14.28305213036122
  endloop
endfacet
facet normal 0.982815 0.0992184 0.155663
  outer loop
    vertex 14.6746 6.674599999999998 6.674600000000012
    vertex 14.27027173956141 8.921929455159502 7.794993299159149
    vertex 14.28305213036123 6.674599999999998 9.146735954999585
  endloop
endfacet
facet normal 0.886042 0.105414 -0.451461
  outer loop
    vertex 13.14673595499959 6.674599999999998 1.972317981660225
    vertex 13.49006437661173 8.99777996207497 3.188587923866325
    vertex 14.28305213036123 6.674599999999998 4.202464045000433
  endloop
endfacet
facet normal 0.155779 0.0914433 0.98355
  outer loop
    vertex 9.146735954999595 6.674599999999999 14.28305213036122
    vertex 7.87966043240413 8.83313782321633 14.28305213036124
    vertex 6.674600000000001 6.6746 14.6746
  endloop
endfacet
facet normal 0.98355 -0.0914433 -0.155779
  outer loop
    vertex 14.6746 6.674599999999998 6.674600000000012
    vertex 14.28305213036128 4.516062176783927 5.469539567595639
    vertex 14.28305213036123 6.674599999999998 4.202464045000433
  endloop
endfacet
facet normal -0.669224 0.12352 -0.732722
  outer loop
    vertex 0.3542086944415761 7.756295945760744 1.89102522525818
    vertex 2.110895089440828 8.829861232566778 0.4675518683408901
    vertex 1.761517465701928 6.353367243261511 0.3691714239892123
  endloop
endfacet
facet normal -0.702475 0.284427 -0.652403
  outer loop
    vertex 0.3542086944415761 7.756295945760744 1.89102522525818
    vertex 0.9766207389068704 10.1515888217941 2.265112379734865
    vertex 2.110895089440828 8.829861232566778 0.4675518683408901
  endloop
endfacet
facet normal -0.833919 0.508861 0.213637
  outer loop
    vertex -0.6829036559098149 9.605335206265233 7.805056148654689
    vertex 0.4668889489627572 10.67027219249056 9.756632971430992
    vertex 0.554996253745208 11.75995096328765 7.505055037322113
  endloop
endfacet
facet normal -0.781202 0.620291 -0.0704531
  outer loop
    vertex 0.554996253745208 11.75995096328765 7.505055037322113
    vertex 1.257630464570041 12.3905227108783 5.265817328510384
    vertex -0.269010045749825 10.51008088039451 5.637601471220769
  endloop
endfacet
facet normal -0.855101 -0.014183 -0.518267
  outer loop
    vertex -0.8018816565415516 6.671986874823682 3.828160959554113
    vertex 0.3542086944415761 7.756295945760744 1.89102522525818
    vertex 0.2866298493365269 5.260725257746647 2.070819426661334
  endloop
endfacet
facet normal -0.819786 -0.324216 -0.472054
  outer loop
    vertex 0.2866298493365269 5.260725257746647 2.070819426661334
    vertex 0.9076185590785002 2.897933138877385 2.615201955934201
    vertex -0.521661980654458 4.211949679219959 4.194848620657881
  endloop
endfacet
facet normal -0.863503 0.50235 0.0447992
  outer loop
    vertex -0.6829036559098149 9.605335206265233 7.805056148654689
    vertex 0.554996253745208 11.75995096328765 7.505055037322113
    vertex -0.269010045749825 10.51008088039451 5.637601471220769
  endloop
endfacet
facet normal -0.892206 -0.164334 -0.420669
  outer loop
    vertex -0.8018816565415516 6.671986874823682 3.828160959554113
    vertex 0.2866298493365269 5.260725257746647 2.070819426661334
    vertex -0.521661980654458 4.211949679219959 4.194848620657881
  endloop
endfacet
facet normal -0.937929 0.345051 -0.0350732
  outer loop
    vertex -0.6829036559098149 9.605335206265233 7.805056148654689
    vertex -0.269010045749825 10.51008088039451 5.637601471220769
    vertex -1.136170497117544 8.169980112118349 5.805288455363058
  endloop
endfacet
facet normal -0.956969 -0.146358 -0.25058
  outer loop
    vertex -0.8018816565415516 6.671986874823682 3.828160959554113
    vertex -0.521661980654458 4.211949679219959 4.194848620657881
    vertex -1.242098454792956 5.685053986779706 6.085800998982982
  endloop
endfacet
facet normal -0.975409 0.208508 0.0714271
  outer loop
    vertex -1.181853817966229 7.170358026336936 8.099506097076706
    vertex -0.6829036559098149 9.605335206265233 7.805056148654689
    vertex -1.136170497117544 8.169980112118349 5.805288455363058
  endloop
endfacet
facet normal -0.983001 0.0213182 -0.182356
  outer loop
    vertex -1.136170497117544 8.169980112118349 5.805288455363058
    vertex -0.8018816565415516 6.671986874823682 3.828160959554113
    vertex -1.242098454792956 5.685053986779706 6.085800998982982
  endloop
endfacet
facet normal -0.999098 0.042431 -0.00140666
  outer loop
    vertex -1.181853817966229 7.170358026336936 8.099506097076706
    vertex -1.136170497117544 8.169980112118349 5.805288455363058
    vertex -1.242098454792956 5.685053986779706 6.085800998982982
  endloop
endfacet
facet normal -0.988759 -0.104662 0.106779
  outer loop
    vertex -1.181853817966229 7.170358026336936 8.099506097076706
    vertex -1.242098454792956 5.685053986779706 6.085800998982982
    vertex -0.8921023225201576 4.697819025654197 8.359044401526068
  endloop
endfacet
facet normal -0.954989 -0.0819882 0.285085
  outer loop
    vertex -0.4449581825845659 6.220274965312808 10.29474917477853
    vertex -1.181853817966229 7.170358026336936 8.099506097076706
    vertex -0.8921023225201576 4.697819025654197 8.359044401526068
  endloop
endfacet
facet normal -0.87606 -0.376451 0.301336
  outer loop
    vertex -0.8921023225201576 4.697819025654197 8.359044401526068
    vertex 0.1570430699485668 2.460235884786412 8.613823238293758
    vertex 0.1744589123392561 3.818252781658995 10.3609866331111
  endloop
endfacet
facet normal -0.796601 -0.0220307 0.604104
  outer loop
    vertex 1.001035888771791 5.41446112465395 12.17211946705283
    vertex 0.6637979763174826 7.869023741873087 11.8169351657534
    vertex -0.4449581825845659 6.220274965312808 10.29474917477853
  endloop
endfacet
facet normal -0.897704 -0.220983 0.381174
  outer loop
    vertex -0.4449581825845659 6.220274965312808 10.29474917477853
    vertex -0.8921023225201576 4.697819025654197 8.359044401526068
    vertex 0.1744589123392561 3.818252781658995 10.3609866331111
  endloop
endfacet
facet normal -0.815731 -0.195342 0.544449
  outer loop
    vertex 1.001035888771791 5.41446112465395 12.17211946705283
    vertex -0.4449581825845659 6.220274965312808 10.29474917477853
    vertex 0.1744589123392561 3.818252781658995 10.3609866331111
  endloop
endfacet
facet normal -0.581 -0.104331 0.807189
  outer loop
    vertex 3.011904710448019 4.833171323270349 13.54437464291307
    vertex 2.114409245009825 7.302617930881366 13.21755451280182
    vertex 1.001035888771791 5.41446112465395 12.17211946705283
  endloop
endfacet
facet normal -0.716995 -0.32714 0.615546
  outer loop
    vertex 1.001035888771791 5.41446112465395 12.17211946705283
    vertex 0.1744589123392561 3.818252781658995 10.3609866331111
    vertex 1.963605451013565 3.106448197975907 12.06670748011687
  endloop
endfacet
facet normal -0.595095 -0.282549 0.752349
  outer loop
    vertex 3.011904710448019 4.833171323270349 13.54437464291307
    vertex 1.001035888771791 5.41446112465395 12.17211946705283
    vertex 1.963605451013565 3.106448197975907 12.06670748011687
  endloop
endfacet
facet normal -0.447348 -0.555968 0.700557
  outer loop
    vertex 1.963605451013565 3.106448197975907 12.06670748011687
    vertex 3.224080440367302 1.149240841479029 11.31833997311872
    vertex 4.184393993870732 2.66139363446745 13.13161546495645
  endloop
endfacet
facet normal -0.460248 -0.399188 0.792982
  outer loop
    vertex 3.011904710448019 4.833171323270349 13.54437464291307
    vertex 1.963605451013565 3.106448197975907 12.06670748011687
    vertex 4.184393993870732 2.66139363446745 13.13161546495645
  endloop
endfacet
facet normal -0.30752 -0.146977 0.940122
  outer loop
    vertex 5.386536500445285 4.532759688750799 14.27416659963072
    vertex 3.995891557607087 7.003890512365039 14.2056084875214
    vertex 3.011904710448019 4.833171323270349 13.54437464291307
  endloop
endfacet
facet normal 0.267532 -0.666302 0.696038
  outer loop
    vertex 9.016991662688351 2.401797086596901 13.01938971769609
    vertex 7.556047865165912 0.9288021639569317 12.17085844446176
    vertex 9.626966382270687 0.8613765107041989 11.31032706361553
  endloop
endfacet
facet normal -0.315293 -0.338703 0.886493
  outer loop
    vertex 5.386536500445285 4.532759688750799 14.27416659963072
    vertex 3.011904710448019 4.833171323270349 13.54437464291307
    vertex 4.184393993870732 2.66139363446745 13.13161546495645
  endloop
endfacet
facet normal 0.115342 -0.582521 -0.80459
  outer loop
    vertex 7.510778218513369 0.9590943246979293 1.139818986945046
    vertex 6.470189172978619 2.669199723403047 -0.247465070340894
    vertex 8.876107411275713 2.558362116311959 0.1776814378669096
  endloop
endfacet
facet normal 0.886843 0.365543 -0.282646
  outer loop
    vertex 13.17223447584761 10.8458838843973 4.581483430373749
    vertex 14.27396578057801 8.877375142819648 5.492474201636769
    vertex 13.49006437661173 8.99777996207497 3.188587923866325
  endloop
endfacet
facet normal -0.161321 -0.436712 0.885019
  outer loop
    vertex 5.386536500445285 4.532759688750799 14.27416659963072
    vertex 4.184393993870732 2.66139363446745 13.13161546495645
    vertex 6.65175118498657 2.523658387769074 13.51339826164672
  endloop
endfacet
facet normal 0.72719 0.658853 -0.192634
  outer loop
    vertex 13.17223447584761 10.8458838843973 4.581483430373749
    vertex 11.61542245009232 12.43840918743872 4.151352654324057
    vertex 12.51336087659414 12.14146586831981 6.525439000561555
  endloop
endfacet
facet normal -0.153786 0.958634 0.239521
  outer loop
    vertex 4.365502960793929 14.25623115071127 7.76406774073134
    vertex 5.187607060866818 13.86910526208031 9.841293233148217
    vertex 6.776982080775939 14.49556800419081 8.354474217600714
  endloop
endfacet
facet normal 0.255625 -0.649208 -0.716369
  outer loop
    vertex 9.414390536769311 0.869393862686902 1.900384931747244
    vertex 7.510778218513369 0.9590943246979293 1.139818986945046
    vertex 8.876107411275713 2.558362116311959 0.1776814378669096
  endloop
endfacet
facet normal -0.0057215 -0.357267 0.933985
  outer loop
    vertex 7.879660432403301 4.51606217678315 14.28305213036122
    vertex 5.386536500445285 4.532759688750799 14.27416659963072
    vertex 6.65175118498657 2.523658387769074 13.51339826164672
  endloop
endfacet
facet normal -0.619258 -0.783333 -0.0539341
  outer loop
    vertex 0.9302392861589261 1.10765910449269 6.781787010442214
    vertex 2.123650165635408 0.2775041862875209 5.136412509711779
    vertex 2.49783572469991 -0.1430239775430708 6.947809607090814
  endloop
endfacet
facet normal 0.291065 -0.348112 -0.891123
  outer loop
    vertex 10.32636365409011 4.43612599587151 -0.08216374809031102
    vertex 8.876107411275713 2.558362116311959 0.1776814378669096
    vertex 7.791930422716273 4.570210459625921 -0.9623573384193298
  endloop
endfacet
facet normal 0.937612 -0.178009 0.298659
  outer loop
    vertex 13.56097631860355 4.521581553639393 10.13036804317177
    vertex 14.28598718878982 4.507979827492039 7.846155414996598
    vertex 14.28305213036123 6.674599999999998 9.146735954999585
  endloop
endfacet
facet normal 0.577761 -0.344827 -0.739789
  outer loop
    vertex 12.28745176000373 4.693923598058485 1.329245370883703
    vertex 10.98844358784373 2.664693585605764 1.260599256795446
    vertex 10.32636365409011 4.43612599587151 -0.08216374809031102
  endloop
endfacet
facet normal -0.0285648 0.905959 -0.4224
  outer loop
    vertex 7.408379946294451 14.22831292566914 4.144187380090921
    vertex 6.324096170178995 13.26749301196736 2.156756620904975
    vertex 5.255043372304286 14.02471011141206 3.853121605455163
  endloop
endfacet
facet normal 0.382727 0.695528 -0.60808
  outer loop
    vertex 8.847431969974817 13.05902066798173 2.371348442804783
    vertex 10.58758301646082 12.48245859188429 2.807127635578379
    vertex 10.05450766018597 11.21300347992707 1.019591771712254
  endloop
endfacet
facet normal 0.155841 -0.0870025 -0.983943
  outer loop
    vertex 9.146735954999585 6.674599999999999 -0.9338521303612266
    vertex 7.791930422716273 4.570210459625921 -0.9623573384193298
    vertex 6.674600000000001 6.6746 -1.3254
  endloop
endfacet
facet normal -0.474617 -0.860395 0.185633
  outer loop
    vertex 4.028396654888319 -0.7435612542949483 8.077629387289145
    vertex 2.136106786956645 0.4834663940419999 8.926697695113802
    vertex 2.49783572469991 -0.1430239775430708 6.947809607090814
  endloop
endfacet
facet normal -0.428459 0.421048 0.799463
  outer loop
    vertex 3.953493267288724 11.05656887316085 12.78965739497536
    vertex 2.226230887929921 9.360771127610487 12.75707457174896
    vertex 4.159519449943176 9.469173050890152 13.73609639169804
  endloop
endfacet
facet normal -0.180866 -0.0745757 0.980676
  outer loop
    vertex 6.674600000000001 6.6746 14.6746
    vertex 3.995891557607087 7.003890512365039 14.2056084875214
    vertex 5.386536500445285 4.532759688750799 14.27416659963072
  endloop
endfacet
facet normal 0.887307 -0.0910338 0.452105
  outer loop
    vertex 13.14673595499958 6.674599999999998 11.37688201833978
    vertex 13.56097631860355 4.521581553639393 10.13036804317177
    vertex 14.28305213036123 6.674599999999998 9.146735954999585
  endloop
endfacet
facet normal -0.303025 0.528217 -0.793198
  outer loop
    vertex 2.990727955952941 11.08386556242301 1.10796152035009
    vertex 5.409899199970096 11.78348956914925 0.6496701865796179
    vertex 4.331897978092223 9.597462676795162 -0.3942486339111149
  endloop
endfacet
facet normal -0.925523 0.329605 -0.186462
  outer loop
    vertex -0.269010045749825 10.51008088039451 5.637601471220769
    vertex -0.3918530687430541 9.165906837095134 3.87127496164021
    vertex -1.136170497117544 8.169980112118349 5.805288455363058
  endloop
endfacet
facet normal 0.984034 0.177972 -0.00186507
  outer loop
    vertex 14.6746 6.674599999999998 6.674600000000012
    vertex 14.27396578057801 8.877375142819648 5.492474201636769
    vertex 14.27027173956141 8.921929455159502 7.794993299159149
  endloop
endfacet
facet normal 0.0296345 -0.989395 0.142193
  outer loop
    vertex 8.208707305186131 -1.057784473403209 8.037224354562738
    vertex 6.103793758004418 -1.005328221474501 8.840906244993626
    vertex 6.078394874470163 -1.302474586751006 6.778621563645306
  endloop
endfacet
facet normal 0.983198 0.0952517 -0.155723
  outer loop
    vertex 14.28305213036123 6.674599999999998 4.202464045000433
    vertex 14.27396578057801 8.877375142819648 5.492474201636769
    vertex 14.6746 6.674599999999998 6.674600000000012
  endloop
endfacet
facet normal -0.47103 -0.0546715 0.880421
  outer loop
    vertex 3.995891557607087 7.003890512365039 14.2056084875214
    vertex 2.114409245009825 7.302617930881366 13.21755451280182
    vertex 3.011904710448019 4.833171323270349 13.54437464291307
  endloop
endfacet
facet normal -0.692715 0.00917971 0.721153
  outer loop
    vertex 1.001035888771791 5.41446112465395 12.17211946705283
    vertex 2.114409245009825 7.302617930881366 13.21755451280182
    vertex 0.6637979763174826 7.869023741873087 11.8169351657534
  endloop
endfacet
facet normal -0.532494 0.108471 -0.839455
  outer loop
    vertex 2.110895089440828 8.829861232566778 0.4675518683408901
    vertex 3.625316687015417 7.216070404722164 -0.7016240393011239
    vertex 1.761517465701928 6.353367243261511 0.3691714239892123
  endloop
endfacet
facet normal 0.512888 0.641935 0.569969
  outer loop
    vertex 9.891008731266119 12.74292093420003 10.77706217691093
    vertex 10.37968292736762 11.02149960072173 12.27610197380794
    vertex 11.88585841772231 11.23329404371991 10.68222951374886
  endloop
endfacet
facet normal 0.933396 0.184202 -0.307963
  outer loop
    vertex 13.49006437661173 8.99777996207497 3.188587923866325
    vertex 14.27396578057801 8.877375142819648 5.492474201636769
    vertex 14.28305213036123 6.674599999999998 4.202464045000433
  endloop
endfacet
facet normal 0.390676 -0.593338 -0.703791
  outer loop
    vertex 10.98844358784373 2.664693585605764 1.260599256795446
    vertex 9.414390536769311 0.869393862686902 1.900384931747244
    vertex 8.876107411275713 2.558362116311959 0.1776814378669096
  endloop
endfacet
facet normal 0.937542 -0.176104 -0.300003
  outer loop
    vertex 14.28305213036128 4.516062176783927 5.469539567595639
    vertex 13.56745203212267 4.636497906922955 3.162516470034149
    vertex 14.28305213036123 6.674599999999998 4.202464045000433
  endloop
endfacet
facet normal 0.00936455 0.605672 -0.79566
  outer loop
    vertex 5.409899199970096 11.78348956914925 0.6496701865796179
    vertex 7.727245059187126 12.23764542671374 1.022656620976443
    vertex 7.775050546997918 10.68001400669433 -0.1624803146217957
  endloop
endfacet
facet normal 0.567003 0.464695 -0.680122
  outer loop
    vertex 10.05450766018597 11.21300347992707 1.019591771712254
    vertex 11.89750968367146 10.9377140980728 2.367968761662567
    vertex 11.64466486099468 9.071477904895124 0.8820676015984628
  endloop
endfacet
facet normal -0.94606 0.160409 -0.281494
  outer loop
    vertex -1.136170497117544 8.169980112118349 5.805288455363058
    vertex -0.3918530687430541 9.165906837095134 3.87127496164021
    vertex -0.8018816565415516 6.671986874823682 3.828160959554113
  endloop
endfacet
facet normal 0.888084 -0.0809259 -0.452501
  outer loop
    vertex 14.28305213036123 6.674599999999998 4.202464045000433
    vertex 13.56745203212267 4.636497906922955 3.162516470034149
    vertex 13.14673595499959 6.674599999999998 1.972317981660225
  endloop
endfacet
facet normal 0.161707 -0.440738 0.88295
  outer loop
    vertex 7.879660432403301 4.51606217678315 14.28305213036122
    vertex 6.65175118498657 2.523658387769074 13.51339826164672
    vertex 9.016991662688351 2.401797086596901 13.01938971769609
  endloop
endfacet
facet normal -0.661758 -0.699152 -0.270671
  outer loop
    vertex 2.019381008373117 1.039892712132544 3.422061004069316
    vertex 2.123650165635408 0.2775041862875209 5.136412509711779
    vertex 0.5077395182816034 1.966943909901866 4.723239977763744
  endloop
endfacet
facet normal -0.702752 -0.591898 -0.394711
  outer loop
    vertex 0.9076185590785002 2.897933138877385 2.615201955934201
    vertex 2.019381008373117 1.039892712132544 3.422061004069316
    vertex 0.5077395182816034 1.966943909901866 4.723239977763744
  endloop
endfacet
facet normal -0.175283 -0.974148 0.14252
  outer loop
    vertex 6.078394874470163 -1.302474586751006 6.778621563645306
    vertex 6.103793758004418 -1.005328221474501 8.840906244993626
    vertex 4.028396654888319 -0.7435612542949483 8.077629387289145
  endloop
endfacet
facet normal 0.0950436 -0.945758 0.310657
  outer loop
    vertex 7.436806859829069 -0.3517160758653786 10.42292270553981
    vertex 6.103793758004418 -1.005328221474501 8.840906244993626
    vertex 8.208707305186131 -1.057784473403209 8.037224354562738
  endloop
endfacet
facet normal -0.672401 0.740182 -0.0025518
  outer loop
    vertex 0.554996253745208 11.75995096328765 7.505055037322113
    vertex 2.254005964523336 13.30300570382759 7.397501237358172
    vertex 1.257630464570041 12.3905227108783 5.265817328510384
  endloop
endfacet
facet normal 0.501145 -0.644985 -0.57693
  outer loop
    vertex 10.98844358784373 2.664693585605764 1.260599256795446
    vertex 11.548237211106 1.371343704126434 3.19277102734779
    vertex 9.414390536769311 0.869393862686902 1.900384931747244
  endloop
endfacet
facet normal 0.427237 -0.439321 -0.790231
  outer loop
    vertex 10.98844358784373 2.664693585605764 1.260599256795446
    vertex 8.876107411275713 2.558362116311959 0.1776814378669096
    vertex 10.32636365409011 4.43612599587151 -0.08216374809031102
  endloop
endfacet
facet normal -0.452629 -0.743531 -0.492229
  outer loop
    vertex 2.019381008373117 1.039892712132544 3.422061004069316
    vertex 3.045397425555448 1.528819331765363 1.740045310054034
    vertex 3.804708753643367 -0.04849740515418333 3.42441761821053
  endloop
endfacet
facet normal 0.137717 -0.431097 -0.891734
  outer loop
    vertex 8.876107411275713 2.558362116311959 0.1776814378669096
    vertex 6.470189172978619 2.669199723403047 -0.247465070340894
    vertex 7.791930422716273 4.570210459625921 -0.9623573384193298
  endloop
endfacet
facet normal 0.889528 -0.349579 -0.294166
  outer loop
    vertex 13.17707101182001 2.617920597799147 4.380864407522136
    vertex 13.56745203212267 4.636497906922955 3.162516470034149
    vertex 14.28305213036128 4.516062176783927 5.469539567595639
  endloop
endfacet
facet normal -0.731741 0.6243 0.273504
  outer loop
    vertex 0.4668889489627572 10.67027219249056 9.756632971430992
    vertex 1.84059358171598 12.43282547204973 9.40868510493484
    vertex 0.554996253745208 11.75995096328765 7.505055037322113
  endloop
endfacet
facet normal 0.155736 0.0944145 -0.983276
  outer loop
    vertex 6.674600000000001 6.6746 -1.3254
    vertex 7.382154665393537 8.778371323254476 -1.011329521855632
    vertex 9.146735954999585 6.674599999999999 -0.9338521303612266
  endloop
endfacet
facet normal -0.533947 0.689617 0.489212
  outer loop
    vertex 3.581277276801013 12.7130208954263 10.91356539497787
    vertex 1.84059358171598 12.43282547204973 9.40868510493484
    vertex 2.03032705400201 11.18607302141392 11.37325299635177
  endloop
endfacet
facet normal -0.871725 0.38445 0.303799
  outer loop
    vertex -0.6829036559098149 9.605335206265233 7.805056148654689
    vertex -0.3744823384004707 8.647275699391662 9.902445840724148
    vertex 0.4668889489627572 10.67027219249056 9.756632971430992
  endloop
endfacet
facet normal -0.944725 0.222683 0.24064
  outer loop
    vertex -1.181853817966229 7.170358026336936 8.099506097076706
    vertex -0.3744823384004707 8.647275699391662 9.902445840724148
    vertex -0.6829036559098149 9.605335206265233 7.805056148654689
  endloop
endfacet
facet normal -0.871338 -0.447111 -0.202143
  outer loop
    vertex 0.5077395182816034 1.966943909901866 4.723239977763744
    vertex -0.5590478737115667 3.265213685564638 6.450048451154307
    vertex -0.521661980654458 4.211949679219959 4.194848620657881
  endloop
endfacet
facet normal 0.590151 -0.176801 -0.787695
  outer loop
    vertex 11.37688201833979 6.674599999999999 0.2024640450004238
    vertex 12.28745176000373 4.693923598058485 1.329245370883703
    vertex 10.32636365409011 4.43612599587151 -0.08216374809031102
  endloop
endfacet
facet normal 0.379411 0.817199 -0.433858
  outer loop
    vertex 9.687014577950096 13.69833872207826 4.3097632668338
    vertex 10.58758301646082 12.48245859188429 2.807127635578379
    vertex 8.847431969974817 13.05902066798173 2.371348442804783
  endloop
endfacet
facet normal 0.357845 0.925675 -0.122769
  outer loop
    vertex 8.358586042279793 14.49102935664676 6.414555538498664
    vertex 10.6674985649947 13.6032920014223 6.451019591444204
    vertex 9.687014577950096 13.69833872207826 4.3097632668338
  endloop
endfacet
facet normal 0.471377 0.867506 0.158863
  outer loop
    vertex 11.39468528460632 12.78242109209928 8.775865431341341
    vertex 10.6674985649947 13.6032920014223 6.451019591444204
    vertex 9.200479905177339 13.98550007113434 8.716822038493648
  endloop
endfacet
facet normal 0.35687 0.93122 0.073976
  outer loop
    vertex 9.200479905177339 13.98550007113434 8.716822038493648
    vertex 10.6674985649947 13.6032920014223 6.451019591444204
    vertex 8.358586042279793 14.49102935664676 6.414555538498664
  endloop
endfacet
facet normal 0.616596 0.782835 0.0835436
  outer loop
    vertex 12.51336087659414 12.14146586831981 6.525439000561555
    vertex 10.6674985649947 13.6032920014223 6.451019591444204
    vertex 11.39468528460632 12.78242109209928 8.775865431341341
  endloop
endfacet
facet normal -0.901871 -0.406081 0.147398
  outer loop
    vertex -0.8921023225201576 4.697819025654197 8.359044401526068
    vertex -0.5590478737115667 3.265213685564638 6.450048451154307
    vertex 0.1570430699485668 2.460235884786412 8.613823238293758
  endloop
endfacet
facet normal -0.947797 -0.288106 -0.13666
  outer loop
    vertex -0.521661980654458 4.211949679219959 4.194848620657881
    vertex -0.5590478737115667 3.265213685564638 6.450048451154307
    vertex -1.242098454792956 5.685053986779706 6.085800998982982
  endloop
endfacet
facet normal 0.77024 -0.324013 0.549315
  outer loop
    vertex 12.17158675405114 4.494527163162882 12.06258840494959
    vertex 12.49787558798228 2.927730425201404 10.680898767673
    vertex 13.56097631860355 4.521581553639393 10.13036804317177
  endloop
endfacet
facet normal -0.963153 -0.267003 0.032335
  outer loop
    vertex -1.242098454792956 5.685053986779706 6.085800998982982
    vertex -0.5590478737115667 3.265213685564638 6.450048451154307
    vertex -0.8921023225201576 4.697819025654197 8.359044401526068
  endloop
endfacet
facet normal -0.933224 0.0835826 0.349437
  outer loop
    vertex -0.4449581825845659 6.220274965312808 10.29474917477853
    vertex -0.3744823384004707 8.647275699391662 9.902445840724148
    vertex -1.181853817966229 7.170358026336936 8.099506097076706
  endloop
endfacet
facet normal 0.49202 0.797088 -0.350095
  outer loop
    vertex 11.61542245009232 12.43840918743872 4.151352654324057
    vertex 10.58758301646082 12.48245859188429 2.807127635578379
    vertex 9.687014577950096 13.69833872207826 4.3097632668338
  endloop
endfacet
facet normal -0.855178 0.106819 0.507209
  outer loop
    vertex 0.6637979763174826 7.869023741873087 11.8169351657534
    vertex -0.3744823384004707 8.647275699391662 9.902445840724148
    vertex -0.4449581825845659 6.220274965312808 10.29474917477853
  endloop
endfacet
facet normal -0.0264448 0.555165 -0.83132
  outer loop
    vertex 7.775050546997918 10.68001400669433 -0.1624803146217957
    vertex 6.125755327407942 9.922918424662981 -0.6156124068755586
    vertex 5.409899199970096 11.78348956914925 0.6496701865796179
  endloop
endfacet
facet normal 0.25872 0.589916 -0.764894
  outer loop
    vertex 7.775050546997918 10.68001400669433 -0.1624803146217957
    vertex 7.727245059187126 12.23764542671374 1.022656620976443
    vertex 10.05450766018597 11.21300347992707 1.019591771712254
  endloop
endfacet
facet normal 0.800148 -0.177721 0.572869
  outer loop
    vertex 13.14673595499958 6.674599999999998 11.37688201833978
    vertex 12.17158675405114 4.494527163162882 12.06258840494959
    vertex 13.56097631860355 4.521581553639393 10.13036804317177
  endloop
endfacet
facet normal 0.197935 -0.784334 -0.587913
  outer loop
    vertex 9.414390536769311 0.869393862686902 1.900384931747244
    vertex 7.748997382403072 -0.287332999964991 2.882877545931942
    vertex 7.510778218513369 0.9590943246979293 1.139818986945046
  endloop
endfacet
facet normal -0.883923 0.152966 -0.441906
  outer loop
    vertex -0.8018816565415516 6.671986874823682 3.828160959554113
    vertex -0.3918530687430541 9.165906837095134 3.87127496164021
    vertex 0.3542086944415761 7.756295945760744 1.89102522525818
  endloop
endfacet
facet normal 0.891164 0.423662 -0.162287
  outer loop
    vertex 13.17223447584761 10.8458838843973 4.581483430373749
    vertex 13.70568246490219 10.48971711462641 6.581000996642342
    vertex 14.27396578057801 8.877375142819648 5.492474201636769
  endloop
endfacet
facet normal -0.654618 0.733522 0.182812
  outer loop
    vertex 0.554996253745208 11.75995096328765 7.505055037322113
    vertex 1.84059358171598 12.43282547204973 9.40868510493484
    vertex 2.254005964523336 13.30300570382759 7.397501237358172
  endloop
endfacet
facet normal 0.712238 -0.639081 0.290331
  outer loop
    vertex 13.18052117008412 2.564185091112188 8.860344496834907
    vertex 11.5063830400451 1.157188651145764 9.870228993088372
    vertex 12.04713789875083 0.8843815281358287 7.943145062096339
  endloop
endfacet
facet normal -0.591453 0.570509 -0.569828
  outer loop
    vertex 0.9766207389068704 10.1515888217941 2.265112379734865
    vertex 1.93384686527902 12.14272662704312 3.265076439991182
    vertex 2.990727955952941 11.08386556242301 1.10796152035009
  endloop
endfacet
facet normal 0.452281 -0.0866989 0.887651
  outer loop
    vertex 9.146735954999595 6.674599999999999 14.28305213036122
    vertex 10.23497978551257 4.572185802643546 13.52321667241403
    vertex 11.37688201833979 6.674599999999999 13.14673595499957
  endloop
endfacet
facet normal 0.786986 -0.602793 0.131505
  outer loop
    vertex 13.50357136464006 2.507455554058216 6.667032465221551
    vertex 13.18052117008412 2.564185091112188 8.860344496834907
    vertex 12.04713789875083 0.8843815281358287 7.943145062096339
  endloop
endfacet
facet normal 0.451956 0.0945703 0.887013
  outer loop
    vertex 11.37688201833979 6.674599999999999 13.14673595499957
    vertex 10.20799055077671 8.868840665172042 13.50837341729935
    vertex 9.146735954999595 6.674599999999999 14.28305213036122
  endloop
endfacet
facet normal -0.154896 -0.600672 0.784347
  outer loop
    vertex 4.184393993870732 2.66139363446745 13.13161546495645
    vertex 5.477754634825041 0.7716065844993594 11.93979039621696
    vertex 6.65175118498657 2.523658387769074 13.51339826164672
  endloop
endfacet
facet normal -0.188102 0.754466 -0.628808
  outer loop
    vertex 3.989546214140149 12.84441919265178 2.347497355386001
    vertex 6.324096170178995 13.26749301196736 2.156756620904975
    vertex 5.409899199970096 11.78348956914925 0.6496701865796179
  endloop
endfacet
facet normal 0.806202 -0.165319 -0.568073
  outer loop
    vertex 13.14673595499959 6.674599999999998 1.972317981660225
    vertex 13.56745203212267 4.636497906922955 3.162516470034149
    vertex 12.28745176000373 4.693923598058485 1.329245370883703
  endloop
endfacet
facet normal -0.221893 0.810749 0.54171
  outer loop
    vertex 5.743772127803337 12.60057851172211 11.96764620714288
    vertex 5.187607060866818 13.86910526208031 9.841293233148217
    vertex 3.581277276801013 12.7130208954263 10.91356539497787
  endloop
endfacet
facet normal -0.0153571 0.927199 0.374254
  outer loop
    vertex 6.776982080775939 14.49556800419081 8.354474217600714
    vertex 5.187607060866818 13.86910526208031 9.841293233148217
    vertex 7.575670000340996 13.64300366283751 10.499442904779
  endloop
endfacet
facet normal 0.807483 0.579108 -0.112273
  outer loop
    vertex 12.51336087659414 12.14146586831981 6.525439000561555
    vertex 13.70568246490219 10.48971711462641 6.581000996642342
    vertex 13.17223447584761 10.8458838843973 4.581483430373749
  endloop
endfacet
facet normal 0.112277 0.567445 0.815721
  outer loop
    vertex 6.318075210293802 10.7485481394021 13.55034262402157
    vertex 8.734672811737639 10.48975426083572 13.39774643424985
    vertex 8.164615800043835 12.12210326066059 12.34068869862729
  endloop
endfacet
facet normal -0.285492 -0.774232 0.564854
  outer loop
    vertex 3.224080440367302 1.149240841479029 11.31833997311872
    vertex 4.931467812947063 -0.2821640265329162 10.21930371929694
    vertex 5.477754634825041 0.7716065844993594 11.93979039621696
  endloop
endfacet
facet normal -0.557972 -0.584566 0.589024
  outer loop
    vertex 1.963605451013565 3.106448197975907 12.06670748011687
    vertex 1.305982702973036 2.079119553837655 10.424201017042
    vertex 3.224080440367302 1.149240841479029 11.31833997311872
  endloop
endfacet
facet normal -0.77816 -0.492105 0.390255
  outer loop
    vertex 0.1570430699485668 2.460235884786412 8.613823238293758
    vertex 1.305982702973036 2.079119553837655 10.424201017042
    vertex 0.1744589123392561 3.818252781658995 10.3609866331111
  endloop
endfacet
facet normal -0.808993 0.290063 -0.511266
  outer loop
    vertex 0.3542086944415761 7.756295945760744 1.89102522525818
    vertex -0.3918530687430541 9.165906837095134 3.87127496164021
    vertex 0.9766207389068704 10.1515888217941 2.265112379734865
  endloop
endfacet
facet normal -0.550241 -0.705477 0.446696
  outer loop
    vertex 3.224080440367302 1.149240841479029 11.31833997311872
    vertex 1.305982702973036 2.079119553837655 10.424201017042
    vertex 2.136106786956645 0.4834663940419999 8.926697695113802
  endloop
endfacet
facet normal -0.495116 0.490525 0.717109
  outer loop
    vertex 3.953493267288724 11.05656887316085 12.78965739497536
    vertex 2.03032705400201 11.18607302141392 11.37325299635177
    vertex 2.226230887929921 9.360771127610487 12.75707457174896
  endloop
endfacet
facet normal -0.319667 0.660013 -0.67985
  outer loop
    vertex 2.990727955952941 11.08386556242301 1.10796152035009
    vertex 3.989546214140149 12.84441919265178 2.347497355386001
    vertex 5.409899199970096 11.78348956914925 0.6496701865796179
  endloop
endfacet
facet normal 0.604909 0.479948 0.635402
  outer loop
    vertex 11.88585841772231 11.23329404371991 10.68222951374886
    vertex 10.37968292736762 11.02149960072173 12.27610197380794
    vertex 11.7684900908912 9.291598313875136 12.26061857919352
  endloop
endfacet
facet normal 0.102473 0.427188 0.898337
  outer loop
    vertex 7.87966043240413 8.83313782321633 14.28305213036124
    vertex 8.734672811737639 10.48975426083572 13.39774643424985
    vertex 6.318075210293802 10.7485481394021 13.55034262402157
  endloop
endfacet
facet normal -0.430606 -0.864836 -0.258141
  outer loop
    vertex 3.976241873346594 -0.7759497061876051 5.575430997548009
    vertex 2.123650165635408 0.2775041862875209 5.136412509711779
    vertex 3.804708753643367 -0.04849740515418333 3.42441761821053
  endloop
endfacet
facet normal 0.889545 -0.357473 0.284471
  outer loop
    vertex 13.56097631860355 4.521581553639393 10.13036804317177
    vertex 13.18052117008412 2.564185091112188 8.860344496834907
    vertex 14.28598718878982 4.507979827492039 7.846155414996598
  endloop
endfacet
facet normal 0.135436 -0.591995 0.79448
  outer loop
    vertex 6.65175118498657 2.523658387769074 13.51339826164672
    vertex 7.556047865165912 0.9288021639569317 12.17085844446176
    vertex 9.016991662688351 2.401797086596901 13.01938971769609
  endloop
endfacet
facet normal 0.70501 -0.0769592 -0.70501
  outer loop
    vertex 13.14673595499959 6.674599999999998 1.972317981660225
    vertex 12.28745176000373 4.693923598058485 1.329245370883703
    vertex 11.37688201833979 6.674599999999999 0.2024640450004238
  endloop
endfacet
facet normal 0.718778 -0.578837 0.385105
  outer loop
    vertex 12.49787558798228 2.927730425201404 10.680898767673
    vertex 11.5063830400451 1.157188651145764 9.870228993088372
    vertex 13.18052117008412 2.564185091112188 8.860344496834907
  endloop
endfacet
facet normal -0.0297967 -0.33362 -0.942237
  outer loop
    vertex 6.470189172978619 2.669199723403047 -0.247465070340894
    vertex 5.432233817710331 5.063402266636746 -1.062361169161192
    vertex 7.791930422716273 4.570210459625921 -0.9623573384193298
  endloop
endfacet
facet normal -0.560691 0.823092 -0.0902566
  outer loop
    vertex 2.254005964523336 13.30300570382759 7.397501237358172
    vertex 3.255957133742556 13.7333280061969 5.097501433797309
    vertex 1.257630464570041 12.3905227108783 5.265817328510384
  endloop
endfacet
facet normal 0.459017 -0.757937 -0.463503
  outer loop
    vertex 11.548237211106 1.371343704126434 3.19277102734779
    vertex 9.883939807195917 -0.1780643715314669 4.078231572158735
    vertex 9.414390536769311 0.869393862686902 1.900384931747244
  endloop
endfacet
facet normal -0.029967 0.721251 -0.692026
  outer loop
    vertex 6.324096170178995 13.26749301196736 2.156756620904975
    vertex 7.727245059187126 12.23764542671374 1.022656620976443
    vertex 5.409899199970096 11.78348956914925 0.6496701865796179
  endloop
endfacet
facet normal 0.822331 -0.413472 0.390912
  outer loop
    vertex 12.49787558798228 2.927730425201404 10.680898767673
    vertex 13.18052117008412 2.564185091112188 8.860344496834907
    vertex 13.56097631860355 4.521581553639393 10.13036804317177
  endloop
endfacet
facet normal -0.193835 0.844559 -0.499147
  outer loop
    vertex 5.255043372304286 14.02471011141206 3.853121605455163
    vertex 6.324096170178995 13.26749301196736 2.156756620904975
    vertex 3.989546214140149 12.84441919265178 2.347497355386001
  endloop
endfacet
facet normal 0.00701275 -0.166384 -0.986036
  outer loop
    vertex 7.791930422716273 4.570210459625921 -0.9623573384193298
    vertex 5.432233817710331 5.063402266636746 -1.062361169161192
    vertex 6.674600000000001 6.6746 -1.3254
  endloop
endfacet
facet normal 0.890489 -0.432169 0.142337
  outer loop
    vertex 14.28598718878982 4.507979827492039 7.846155414996598
    vertex 13.18052117008412 2.564185091112188 8.860344496834907
    vertex 13.50357136464006 2.507455554058216 6.667032465221551
  endloop
endfacet
facet normal 0.890419 0.431881 0.143639
  outer loop
    vertex 14.27027173956141 8.921929455159502 7.794993299159149
    vertex 13.70568246490219 10.48971711462641 6.581000996642342
    vertex 13.1424314206319 11.00616953226725 8.519772648133731
  endloop
endfacet
facet normal 0.462707 -0.765829 0.446551
  outer loop
    vertex 10.10428192374229 -0.1254939694633119 9.123273908143767
    vertex 11.5063830400451 1.157188651145764 9.870228993088372
    vertex 9.626966382270687 0.8613765107041989 11.31032706361553
  endloop
endfacet
facet normal -0.301481 -0.647647 0.699759
  outer loop
    vertex 3.224080440367302 1.149240841479029 11.31833997311872
    vertex 5.477754634825041 0.7716065844993594 11.93979039621696
    vertex 4.184393993870732 2.66139363446745 13.13161546495645
  endloop
endfacet
facet normal 0.723405 -0.558929 -0.405319
  outer loop
    vertex 11.548237211106 1.371343704126434 3.19277102734779
    vertex 12.497807995401 3.080571146819452 2.530543383011816
    vertex 13.17707101182001 2.617920597799147 4.380864407522136
  endloop
endfacet
facet normal 0.709908 0.590181 -0.38434
  outer loop
    vertex 11.89750968367146 10.9377140980728 2.367968761662567
    vertex 11.61542245009232 12.43840918743872 4.151352654324057
    vertex 13.17223447584761 10.8458838843973 4.581483430373749
  endloop
endfacet
facet normal 0.942063 0.335399 -0.00497866
  outer loop
    vertex 14.27396578057801 8.877375142819648 5.492474201636769
    vertex 13.70568246490219 10.48971711462641 6.581000996642342
    vertex 14.27027173956141 8.921929455159502 7.794993299159149
  endloop
endfacet
facet normal -0.431498 0.632058 0.64367
  outer loop
    vertex 3.581277276801013 12.7130208954263 10.91356539497787
    vertex 2.03032705400201 11.18607302141392 11.37325299635177
    vertex 3.953493267288724 11.05656887316085 12.78965739497536
  endloop
endfacet
facet normal -0.810318 0.36978 0.454585
  outer loop
    vertex -0.3744823384004707 8.647275699391662 9.902445840724148
    vertex 0.8969271873821816 9.730672803513004 11.28750753104429
    vertex 0.4668889489627572 10.67027219249056 9.756632971430992
  endloop
endfacet
facet normal 0.11607 0.802557 -0.585175
  outer loop
    vertex 8.847431969974817 13.05902066798173 2.371348442804783
    vertex 7.727245059187126 12.23764542671374 1.022656620976443
    vertex 6.324096170178995 13.26749301196736 2.156756620904975
  endloop
endfacet
facet normal -0.0638501 0.849599 0.523549
  outer loop
    vertex 7.575670000340996 13.64300366283751 10.499442904779
    vertex 5.187607060866818 13.86910526208031 9.841293233148217
    vertex 5.743772127803337 12.60057851172211 11.96764620714288
  endloop
endfacet
facet normal -0.803273 0.253824 0.538818
  outer loop
    vertex 0.6637979763174826 7.869023741873087 11.8169351657534
    vertex 0.8969271873821816 9.730672803513004 11.28750753104429
    vertex -0.3744823384004707 8.647275699391662 9.902445840724148
  endloop
endfacet
facet normal 0.653765 -0.419323 0.629889
  outer loop
    vertex 12.17158675405114 4.494527163162882 12.06258840494959
    vertex 10.91612829206924 2.697505521484924 12.16933905263399
    vertex 12.49787558798228 2.927730425201404 10.680898767673
  endloop
endfacet
facet normal -0.479511 -0.0513929 -0.87603
  outer loop
    vertex 1.761517465701928 6.353367243261511 0.3691714239892123
    vertex 3.625316687015417 7.216070404722164 -0.7016240393011239
    vertex 3.437641991730949 5.130954524418305 -0.4765720366957344
  endloop
endfacet
facet normal 0.807058 0.585221 0.0785741
  outer loop
    vertex 13.1424314206319 11.00616953226725 8.519772648133731
    vertex 13.70568246490219 10.48971711462641 6.581000996642342
    vertex 12.51336087659414 12.14146586831981 6.525439000561555
  endloop
endfacet
facet normal -0.63872 0.200882 0.742754
  outer loop
    vertex 0.6637979763174826 7.869023741873087 11.8169351657534
    vertex 2.114409245009825 7.302617930881366 13.21755451280182
    vertex 2.226230887929921 9.360771127610487 12.75707457174896
  endloop
endfacet
facet normal -0.281652 0.917026 0.282373
  outer loop
    vertex 4.365502960793929 14.25623115071127 7.76406774073134
    vertex 3.387900948778868 13.4983014102805 9.250392773116278
    vertex 5.187607060866818 13.86910526208031 9.841293233148217
  endloop
endfacet
facet normal 0.303101 -0.831625 -0.465328
  outer loop
    vertex 9.883939807195917 -0.1780643715314669 4.078231572158735
    vertex 7.748997382403072 -0.287332999964991 2.882877545931942
    vertex 9.414390536769311 0.869393862686902 1.900384931747244
  endloop
endfacet
facet normal -0.332329 -0.758539 -0.560514
  outer loop
    vertex 3.045397425555448 1.528819331765363 1.740045310054034
    vertex 5.316992517616797 0.6077008429438955 1.639757744090778
    vertex 3.804708753643367 -0.04849740515418333 3.42441761821053
  endloop
endfacet
facet normal 0.315279 0.590953 0.742546
  outer loop
    vertex 8.164615800043835 12.12210326066059 12.34068869862729
    vertex 8.734672811737639 10.48975426083572 13.39774643424985
    vertex 10.37968292736762 11.02149960072173 12.27610197380794
  endloop
endfacet
facet normal -0.533566 0.810672 0.241076
  outer loop
    vertex 1.84059358171598 12.43282547204973 9.40868510493484
    vertex 3.387900948778868 13.4983014102805 9.250392773116278
    vertex 2.254005964523336 13.30300570382759 7.397501237358172
  endloop
endfacet
facet normal -0.17714 -0.385071 -0.905727
  outer loop
    vertex 4.142211474361 2.785093428033001 0.1585623250139614
    vertex 5.432233817710331 5.063402266636746 -1.062361169161192
    vertex 6.470189172978619 2.669199723403047 -0.247465070340894
  endloop
endfacet
facet normal -0.49127 -0.806561 -0.328806
  outer loop
    vertex 3.804708753643367 -0.04849740515418333 3.42441761821053
    vertex 2.123650165635408 0.2775041862875209 5.136412509711779
    vertex 2.019381008373117 1.039892712132544 3.422061004069316
  endloop
endfacet
facet normal -0.854218 0.440653 -0.275929
  outer loop
    vertex -0.269010045749825 10.51008088039451 5.637601471220769
    vertex 0.5498236233055227 11.05470118122727 3.972410521503579
    vertex -0.3918530687430541 9.165906837095134 3.87127496164021
  endloop
endfacet
facet normal -0.276432 -0.327634 -0.903461
  outer loop
    vertex 3.437641991730949 5.130954524418305 -0.4765720366957344
    vertex 5.432233817710331 5.063402266636746 -1.062361169161192
    vertex 4.142211474361 2.785093428033001 0.1585623250139614
  endloop
endfacet
facet normal -0.429804 0.886861 0.169547
  outer loop
    vertex 2.254005964523336 13.30300570382759 7.397501237358172
    vertex 3.387900948778868 13.4983014102805 9.250392773116278
    vertex 4.365502960793929 14.25623115071127 7.76406774073134
  endloop
endfacet
facet normal 0.402028 -0.604151 0.688023
  outer loop
    vertex 9.626966382270687 0.8613765107041989 11.31032706361553
    vertex 10.91612829206924 2.697505521484924 12.16933905263399
    vertex 9.016991662688351 2.401797086596901 13.01938971769609
  endloop
endfacet
facet normal -0.705361 -0.438687 0.556794
  outer loop
    vertex 0.1744589123392561 3.818252781658995 10.3609866331111
    vertex 1.305982702973036 2.079119553837655 10.424201017042
    vertex 1.963605451013565 3.106448197975907 12.06670748011687
  endloop
endfacet
facet normal -0.8156 -0.574089 -0.0722427
  outer loop
    vertex 0.5077395182816034 1.966943909901866 4.723239977763744
    vertex 0.9302392861589261 1.10765910449269 6.781787010442214
    vertex -0.5590478737115667 3.265213685564638 6.450048451154307
  endloop
endfacet
facet normal -0.825881 -0.560091 0.0649538
  outer loop
    vertex -0.5590478737115667 3.265213685564638 6.450048451154307
    vertex 0.9302392861589261 1.10765910449269 6.781787010442214
    vertex 0.1570430699485668 2.460235884786412 8.613823238293758
  endloop
endfacet
facet normal -0.676313 0.278613 0.681891
  outer loop
    vertex 2.226230887929921 9.360771127610487 12.75707457174896
    vertex 0.8969271873821816 9.730672803513004 11.28750753104429
    vertex 0.6637979763174826 7.869023741873087 11.8169351657534
  endloop
endfacet
facet normal 0.775186 -0.309144 -0.550923
  outer loop
    vertex 13.56745203212267 4.636497906922955 3.162516470034149
    vertex 12.497807995401 3.080571146819452 2.530543383011816
    vertex 12.28745176000373 4.693923598058485 1.329245370883703
  endloop
endfacet
facet normal -0.480993 0.670546 -0.564813
  outer loop
    vertex 1.93384686527902 12.14272662704312 3.265076439991182
    vertex 3.989546214140149 12.84441919265178 2.347497355386001
    vertex 2.990727955952941 11.08386556242301 1.10796152035009
  endloop
endfacet
facet normal 0.618881 -0.558009 -0.552822
  outer loop
    vertex 10.98844358784373 2.664693585605764 1.260599256795446
    vertex 12.497807995401 3.080571146819452 2.530543383011816
    vertex 11.548237211106 1.371343704126434 3.19277102734779
  endloop
endfacet
facet normal 0.652625 -0.395923 -0.646007
  outer loop
    vertex 12.28745176000373 4.693923598058485 1.329245370883703
    vertex 12.497807995401 3.080571146819452 2.530543383011816
    vertex 10.98844358784373 2.664693585605764 1.260599256795446
  endloop
endfacet
facet normal -0.174596 0.331791 -0.927055
  outer loop
    vertex 4.331897978092223 9.597462676795162 -0.3942486339111149
    vertex 6.125755327407942 9.922918424662981 -0.6156124068755586
    vertex 5.582898535430465 8.384992078868835 -1.063794332728171
  endloop
endfacet
facet normal -0.194761 0.49923 -0.844297
  outer loop
    vertex 5.409899199970096 11.78348956914925 0.6496701865796179
    vertex 6.125755327407942 9.922918424662981 -0.6156124068755586
    vertex 4.331897978092223 9.597462676795162 -0.3942486339111149
  endloop
endfacet
facet normal -0.780336 0.596204 -0.188723
  outer loop
    vertex 1.257630464570041 12.3905227108783 5.265817328510384
    vertex 0.5498236233055227 11.05470118122727 3.972410521503579
    vertex -0.269010045749825 10.51008088039451 5.637601471220769
  endloop
endfacet
facet normal -0.693788 0.510354 0.50813
  outer loop
    vertex 0.4668889489627572 10.67027219249056 9.756632971430992
    vertex 0.8969271873821816 9.730672803513004 11.28750753104429
    vertex 2.03032705400201 11.18607302141392 11.37325299635177
  endloop
endfacet
facet normal -0.801387 0.422225 -0.423679
  outer loop
    vertex -0.3918530687430541 9.165906837095134 3.87127496164021
    vertex 0.5498236233055227 11.05470118122727 3.972410521503579
    vertex 0.9766207389068704 10.1515888217941 2.265112379734865
  endloop
endfacet
facet normal 0.308003 0.1808 0.934048
  outer loop
    vertex 9.146735954999595 6.674599999999999 14.28305213036122
    vertex 10.20799055077671 8.868840665172042 13.50837341729935
    vertex 7.87966043240413 8.83313782321633 14.28305213036124
  endloop
endfacet
facet normal 0.29328 -0.369288 0.881824
  outer loop
    vertex 7.879660432403301 4.51606217678315 14.28305213036122
    vertex 9.016991662688351 2.401797086596901 13.01938971769609
    vertex 10.23497978551257 4.572185802643546 13.52321667241403
  endloop
endfacet
facet normal 0.0706912 0.394377 -0.916226
  outer loop
    vertex 7.382154665393537 8.778371323254476 -1.011329521855632
    vertex 6.125755327407942 9.922918424662981 -0.6156124068755586
    vertex 7.775050546997918 10.68001400669433 -0.1624803146217957
  endloop
endfacet
facet normal -0.472537 -0.874971 -0.105517
  outer loop
    vertex 2.49783572469991 -0.1430239775430708 6.947809607090814
    vertex 2.123650165635408 0.2775041862875209 5.136412509711779
    vertex 3.976241873346594 -0.7759497061876051 5.575430997548009
  endloop
endfacet
facet normal -0.225654 -0.928416 0.295167
  outer loop
    vertex 4.028396654888319 -0.7435612542949483 8.077629387289145
    vertex 6.103793758004418 -1.005328221474501 8.840906244993626
    vertex 4.931467812947063 -0.2821640265329162 10.21930371929694
  endloop
endfacet
facet normal 0.567927 -0.77772 0.269463
  outer loop
    vertex 12.04713789875083 0.8843815281358287 7.943145062096339
    vertex 11.5063830400451 1.157188651145764 9.870228993088372
    vertex 10.10428192374229 -0.1254939694633119 9.123273908143767
  endloop
endfacet
facet normal 0.524228 0.612682 -0.591443
  outer loop
    vertex 10.05450766018597 11.21300347992707 1.019591771712254
    vertex 10.58758301646082 12.48245859188429 2.807127635578379
    vertex 11.89750968367146 10.9377140980728 2.367968761662567
  endloop
endfacet
facet normal -0.316476 0.843057 0.434853
  outer loop
    vertex 5.187607060866818 13.86910526208031 9.841293233148217
    vertex 3.387900948778868 13.4983014102805 9.250392773116278
    vertex 3.581277276801013 12.7130208954263 10.91356539497787
  endloop
endfacet
facet normal 0.305905 -0.179568 0.934974
  outer loop
    vertex 7.879660432403301 4.51606217678315 14.28305213036122
    vertex 10.23497978551257 4.572185802643546 13.52321667241403
    vertex 9.146735954999595 6.674599999999999 14.28305213036122
  endloop
endfacet
facet normal -0.680601 0.662843 -0.312126
  outer loop
    vertex 1.93384686527902 12.14272662704312 3.265076439991182
    vertex 0.5498236233055227 11.05470118122727 3.972410521503579
    vertex 1.257630464570041 12.3905227108783 5.265817328510384
  endloop
endfacet
facet normal -0.0343904 -0.654956 0.754884
  outer loop
    vertex 5.477754634825041 0.7716065844993594 11.93979039621696
    vertex 7.556047865165912 0.9288021639569317 12.17085844446176
    vertex 6.65175118498657 2.523658387769074 13.51339826164672
  endloop
endfacet
facet normal -0.610034 0.43609 0.661577
  outer loop
    vertex 2.03032705400201 11.18607302141392 11.37325299635177
    vertex 0.8969271873821816 9.730672803513004 11.28750753104429
    vertex 2.226230887929921 9.360771127610487 12.75707457174896
  endloop
endfacet
facet normal 0.822476 -0.401963 -0.402441
  outer loop
    vertex 13.17707101182001 2.617920597799147 4.380864407522136
    vertex 12.497807995401 3.080571146819452 2.530543383011816
    vertex 13.56745203212267 4.636497906922955 3.162516470034149
  endloop
endfacet
facet normal 0.614629 0.648763 -0.448707
  outer loop
    vertex 11.89750968367146 10.9377140980728 2.367968761662567
    vertex 10.58758301646082 12.48245859188429 2.807127635578379
    vertex 11.61542245009232 12.43840918743872 4.151352654324057
  endloop
endfacet
facet normal -0.681486 0.562644 -0.467983
  outer loop
    vertex 0.9766207389068704 10.1515888217941 2.265112379734865
    vertex 0.5498236233055227 11.05470118122727 3.972410521503579
    vertex 1.93384686527902 12.14272662704312 3.265076439991182
  endloop
endfacet
facet normal -0.485567 0.767367 0.418775
  outer loop
    vertex 3.581277276801013 12.7130208954263 10.91356539497787
    vertex 3.387900948778868 13.4983014102805 9.250392773116278
    vertex 1.84059358171598 12.43282547204973 9.40868510493484
  endloop
endfacet
facet normal 0.293679 0.328212 0.897792
  outer loop
    vertex 10.20799055077671 8.868840665172042 13.50837341729935
    vertex 8.734672811737639 10.48975426083572 13.39774643424985
    vertex 7.87966043240413 8.83313782321633 14.28305213036124
  endloop
endfacet
facet normal -0.0357968 0.291228 -0.955984
  outer loop
    vertex 5.582898535430465 8.384992078868835 -1.063794332728171
    vertex 6.125755327407942 9.922918424662981 -0.6156124068755586
    vertex 7.382154665393537 8.778371323254476 -1.011329521855632
  endloop
endfacet
facet normal -0.00371496 0.148874 -0.988849
  outer loop
    vertex 6.674600000000001 6.6746 -1.3254
    vertex 5.582898535430465 8.384992078868835 -1.063794332728171
    vertex 7.382154665393537 8.778371323254476 -1.011329521855632
  endloop
endfacet
facet normal -0.110347 0.193007 0.974973
  outer loop
    vertex 4.159519449943176 9.469173050890152 13.73609639169804
    vertex 3.995891557607087 7.003890512365039 14.2056084875214
    vertex 7.87966043240413 8.83313782321633 14.28305213036124
  endloop
endfacet
endsolid Created by Gmsh
