solid Created by Gmsh
facet normal -0.137025 0.250348 0.95841
  outer loop
    vertex 3.012651081010322 5.396344558040835 19.02113032590309
    vertex -6.696771105982275 0.8232262809125883 18.82752121880349
    vertex 1.224646799147353e-15 -2.999519565323716e-31 20
  endloop
endfacet
facet normal -0.0669579 -0.841237 0.536505
  outer loop
    vertex -2.992113412937384 -14.75748353875161 13.16297599054239
    vertex -4.357830467632359 -17.39191006633229 8.861759298242344
    vertex 1.905517149572718 -17.56579018966344 9.370806763849522
  endloop
endfacet
facet normal -0.00472464 -0.806529 0.591176
  outer loop
    vertex 1.905517149572718 -17.56579018966344 9.370806763849522
    vertex 2.20361966291478 -14.36449459010767 13.74064611115442
    vertex -2.992113412937384 -14.75748353875161 13.16297599054239
  endloop
endfacet
facet normal -0.0674153 -0.867559 -0.492744
  outer loop
    vertex -2.139663264209279 -18.89612492162257 -6.193408113650158
    vertex -3.394018705957976 -15.16724789264025 -12.58710563977307
    vertex 2.685993456007676 -17.40483249991246 -9.479306135170185
  endloop
endfacet
facet normal -0.30096 0.951659 -0.0613885
  outer loop
    vertex -2.181017521356942 19.79595973145955 -1.833886823652374
    vertex -8.546607165643609 17.64682001549226 -3.942746415506734
    vertex -5.772742598015136 18.95407787677819 2.723669351828359
  endloop
endfacet
facet normal -0.165174 -0.614106 -0.771746
  outer loop
    vertex -0.5110270675534521 -10.01350069149235 -17.30516267585226
    vertex -3.394018705957976 -15.16724789264025 -12.58710563977307
    vertex -6.330971314097483 -9.723766429917474 -16.29009418746512
  endloop
endfacet
facet normal -0.0903415 0.290723 0.952533
  outer loop
    vertex -0.891311974265445 10.18487034850526 17.18935656005394
    vertex -6.287701375142022 6.986432627225392 17.6537409792451
    vertex 3.012651081010322 5.396344558040835 19.02113032590309
  endloop
endfacet
facet normal 0.556591 -0.343928 0.756254
  outer loop
    vertex 8.900949463781435 -5.25603549339114 17.12154168103508
    vertex 10.6038207301731 -9.942736196287692 13.73684763158498
    vertex 13.74246688512788 -5.450182092092789 13.46997101237396
  endloop
endfacet
facet normal 0.767494 0.204635 -0.607518
  outer loop
    vertex 16.18033988749896 -3.963040290468369e-15 -11.75570504584945
    vertex 12.42516215248669 5.992194762237814 -14.48133099600385
    vertex 17.03866094152932 5.807949905187427 -8.715030190334192
  endloop
endfacet
facet normal 0.618367 0.773839 -0.137092
  outer loop
    vertex 14.59690219148536 13.66716467079952 -0.3729024985961113
    vertex 12.35205612523082 14.40952296859679 -6.308118364189854
    vertex 9.982246412486765 17.32173000355573 -0.5589510213894784
  endloop
endfacet
facet normal 0.508526 -0.844585 -0.167565
  outer loop
    vertex 8.952154376694191 -17.88419236804493 0.1208112519536857
    vertex 8.023349517989761 -17.13166092882868 -6.490921069603178
    vertex 13.25235512766164 -14.6852164879957 -2.952879996044491
  endloop
endfacet
facet normal -0.1786 -0.864782 -0.469312
  outer loop
    vertex -7.174728115891535 -16.80774351288547 -8.125455954473686
    vertex -3.394018705957976 -15.16724789264025 -12.58710563977307
    vertex -2.139663264209279 -18.89612492162257 -6.193408113650158
  endloop
endfacet
facet normal -0.446388 0.80976 -0.380824
  outer loop
    vertex -11.85188283680248 13.67031656760779 -8.523808900022022
    vertex -8.546607165643609 17.64682001549226 -3.942746415506734
    vertex -6.712634464649657 15.42454798162945 -10.81775661153496
  endloop
endfacet
facet normal -0.0673299 -0.652957 -0.754397
  outer loop
    vertex 2.090445546283407 -14.28876418825515 -13.83695253263741
    vertex -3.394018705957976 -15.16724789264025 -12.58710563977307
    vertex -0.5110270675534521 -10.01350069149235 -17.30516267585226
  endloop
endfacet
facet normal 0.523807 0.827263 -0.203131
  outer loop
    vertex 9.982246412486765 17.32173000355573 -0.5589510213894784
    vertex 12.35205612523082 14.40952296859679 -6.308118364189854
    vertex 7.53103644487526 17.55934680519564 -5.912091832915486
  endloop
endfacet
facet normal -0.707997 -0.677002 0.20102
  outer loop
    vertex -16.29389232512858 -10.53591028803396 4.848058095734406
    vertex -14.36090178460266 -13.9173522387683 0.2679675261055322
    vertex -11.34623303260836 -15.47783401489502 5.630244237784503
  endloop
endfacet
facet normal 0.587971 -0.178056 0.789041
  outer loop
    vertex 8.900949463781435 -5.25603549339114 17.12154168103508
    vertex 13.74246688512788 -5.450182092092789 13.46997101237396
    vertex 11.7557050458495 -2.879317311223995e-15 16.18033988749892
  endloop
endfacet
facet normal 0.700878 0.132438 0.700878
  outer loop
    vertex 16.18033988749896 -3.96304029046837e-15 11.75570504584944
    vertex 12.73472522722802 6.542495784687827 13.96504644798378
    vertex 11.7557050458495 -2.879317311223995e-15 16.18033988749892
  endloop
endfacet
facet normal 0.768478 0.199399 0.608015
  outer loop
    vertex 16.64873461643932 6.354265191969056 9.079809994790935
    vertex 12.73472522722802 6.542495784687827 13.96504644798378
    vertex 16.18033988749896 -3.96304029046837e-15 11.75570504584944
  endloop
endfacet
facet normal -0.584034 -0.506425 -0.63438
  outer loop
    vertex -14.41745360230378 -9.441667152806511 -10.14849511016448
    vertex -11.16641110903973 -7.143839509571244 -14.97587459901434
    vertex -9.073006436111353 -12.8644516705866 -12.33638672486492
  endloop
endfacet
facet normal -0.626769 -0.768499 0.128727
  outer loop
    vertex -11.34623303260836 -15.47783401489502 5.630244237784503
    vertex -14.36090178460266 -13.9173522387683 0.2679675261055322
    vertex -10.4419106882502 -17.04405994385769 0.6830240177270236
  endloop
endfacet
facet normal -0.356545 0.856973 -0.372119
  outer loop
    vertex -6.712634464649657 15.42454798162945 -10.81775661153496
    vertex -8.546607165643609 17.64682001549226 -3.942746415506734
    vertex -3.54889156923928 18.37527527853017 -7.053695986362065
  endloop
endfacet
facet normal 0.884071 0.124527 0.450457
  outer loop
    vertex 19.02113032590307 -4.658833273956369e-15 6.18033988749896
    vertex 16.64873461643932 6.354265191969056 9.079809994790935
    vertex 16.18033988749896 -3.96304029046837e-15 11.75570504584944
  endloop
endfacet
facet normal -0.186555 0.0080381 -0.982412
  outer loop
    vertex -7.62320828246151 1.35367601180544 -18.44056009825279
    vertex -2.7292536614239 4.275980197172107 -19.34598583182041
    vertex -3.105915455724148 -4.027994333408087 -19.34240292290299
  endloop
endfacet
facet normal 0.734306 0.359148 -0.576028
  outer loop
    vertex 12.42516215248669 5.992194762237814 -14.48133099600385
    vertex 13.05727420917864 10.65778524518202 -10.76657809584358
    vertex 17.03866094152932 5.807949905187427 -8.715030190334192
  endloop
endfacet
facet normal 0.599107 -0.585534 0.546096
  outer loop
    vertex 10.6038207301731 -9.942736196287692 13.73684763158498
    vertex 12.07945760011268 -13.79352837213563 7.989072482720983
    vertex 14.55818896995572 -9.36717393699646 10.01574691918251
  endloop
endfacet
facet normal 0.701945 0.120605 -0.701945
  outer loop
    vertex 11.75570504584947 -2.87931731122399e-15 -16.18033988749894
    vertex 12.42516215248669 5.992194762237814 -14.48133099600385
    vertex 16.18033988749896 -3.963040290468369e-15 -11.75570504584945
  endloop
endfacet
facet normal 0.925715 0.1988 0.321761
  outer loop
    vertex 19.02113032590307 -4.658833273956369e-15 6.18033988749896
    vertex 18.98917934890352 5.618323637898749 2.800983247897869
    vertex 16.64873461643932 6.354265191969056 9.079809994790935
  endloop
endfacet
facet normal 0.530311 -0.635089 0.561633
  outer loop
    vertex 7.380915955676737 -14.53305872323948 11.58931765903884
    vertex 12.07945760011268 -13.79352837213563 7.989072482720983
    vertex 10.6038207301731 -9.942736196287692 13.73684763158498
  endloop
endfacet
facet normal 0.358141 -0.920694 -0.155102
  outer loop
    vertex 3.579094373376451 -19.42639224485425 -3.131352394019511
    vertex 8.023349517989761 -17.13166092882868 -6.490921069603178
    vertex 8.952154376694191 -17.88419236804493 0.1208112519536857
  endloop
endfacet
facet normal 0.515975 0.179821 -0.837516
  outer loop
    vertex 7.138540384977316 5.611077500226982 -17.82013048376735
    vertex 12.42516215248669 5.992194762237814 -14.48133099600385
    vertex 11.75570504584947 -2.87931731122399e-15 -16.18033988749894
  endloop
endfacet
facet normal -0.21891 0.00950862 -0.975699
  outer loop
    vertex -3.105915455724148 -4.027994333408087 -19.34240292290299
    vertex -2.7292536614239 4.275980197172107 -19.34598583182041
    vertex 1.224646799147353e-15 -2.999519565323716e-31 -20
  endloop
endfacet
facet normal 0.583916 0.180614 0.791467
  outer loop
    vertex 12.73472522722802 6.542495784687827 13.96504644798378
    vertex 8.833476376941777 5.485601662930105 17.08443354324837
    vertex 11.7557050458495 -2.879317311223995e-15 16.18033988749892
  endloop
endfacet
facet normal -0.702749 -0.32992 -0.630314
  outer loop
    vertex -15.96992537665871 -3.534686855633365 -11.50945143334664
    vertex -11.16641110903973 -7.143839509571244 -14.97587459901434
    vertex -14.41745360230378 -9.441667152806511 -10.14849511016448
  endloop
endfacet
facet normal -0.410276 0.911925 -0.00811089
  outer loop
    vertex -5.772742598015136 18.95407787677819 2.723669351828359
    vertex -8.546607165643609 17.64682001549226 -3.942746415506734
    vertex -11.05148508869166 16.57101425956898 1.807253093395441
  endloop
endfacet
facet normal -0.669848 -0.206526 -0.713197
  outer loop
    vertex -12.28270633574522 -0.8030818918461974 -15.76357144002694
    vertex -11.16641110903973 -7.143839509571244 -14.97587459901434
    vertex -15.96992537665871 -3.534686855633365 -11.50945143334664
  endloop
endfacet
facet normal -0.599657 -0.592431 -0.537993
  outer loop
    vertex -14.41745360230378 -9.441667152806511 -10.14849511016448
    vertex -9.073006436111353 -12.8644516705866 -12.33638672486492
    vertex -11.63804747906719 -14.08676821966865 -8.131347489826716
  endloop
endfacet
facet normal 0.45111 0.112466 -0.885354
  outer loop
    vertex 6.180339887498945 -1.513746692173659e-15 -19.02113032590307
    vertex 7.138540384977316 5.611077500226982 -17.82013048376735
    vertex 11.75570504584947 -2.87931731122399e-15 -16.18033988749894
  endloop
endfacet
facet normal -0.291089 -0.640489 -0.710662
  outer loop
    vertex -6.330971314097483 -9.723766429917474 -16.29009418746512
    vertex -3.394018705957976 -15.16724789264025 -12.58710563977307
    vertex -9.073006436111353 -12.8644516705866 -12.33638672486492
  endloop
endfacet
facet normal 0.561732 -0.77255 -0.296011
  outer loop
    vertex 13.25235512766164 -14.6852164879957 -2.952879996044491
    vertex 8.023349517989761 -17.13166092882868 -6.490921069603178
    vertex 12.18409302776494 -13.25814073968395 -8.704572431630535
  endloop
endfacet
facet normal 0.504602 0.398251 0.766011
  outer loop
    vertex 9.262707318419068 10.8672490018043 14.00375493451986
    vertex 8.833476376941777 5.485601662930105 17.08443354324837
    vertex 12.73472522722802 6.542495784687827 13.96504644798378
  endloop
endfacet
facet normal -0.696657 -0.649116 0.305477
  outer loop
    vertex -11.34623303260836 -15.47783401489502 5.630244237784503
    vertex -13.42154324256741 -11.48870111540586 9.374002542605011
    vertex -16.29389232512858 -10.53591028803396 4.848058095734406
  endloop
endfacet
facet normal -0.256749 0.947498 -0.1906
  outer loop
    vertex -3.54889156923928 18.37527527853017 -7.053695986362065
    vertex -8.546607165643609 17.64682001549226 -3.942746415506734
    vertex -2.181017521356942 19.79595973145955 -1.833886823652374
  endloop
endfacet
facet normal -0.413506 -0.811002 0.41387
  outer loop
    vertex -11.34623303260836 -15.47783401489502 5.630244237784503
    vertex -4.357830467632359 -17.39191006633229 8.861759298242344
    vertex -8.626298899081755 -13.81339789630242 11.60934993279679
  endloop
endfacet
facet normal -0.394359 -0.849943 0.349397
  outer loop
    vertex -6.615508362779187 -18.54540313573738 3.507573468222849
    vertex -4.357830467632359 -17.39191006633229 8.861759298242344
    vertex -11.34623303260836 -15.47783401489502 5.630244237784503
  endloop
endfacet
facet normal -0.431272 0.196335 0.880601
  outer loop
    vertex -6.287701375142022 6.986432627225392 17.6537409792451
    vertex -11.40047688747543 1.570044827203415 16.35738628200454
    vertex -6.696771105982275 0.8232262809125883 18.82752121880349
  endloop
endfacet
facet normal -0.450603 0.218159 0.865658
  outer loop
    vertex -11.12092278017519 6.715427819026211 15.2061864293724
    vertex -11.40047688747543 1.570044827203415 16.35738628200454
    vertex -6.287701375142022 6.986432627225392 17.6537409792451
  endloop
endfacet
facet normal -0.551196 0.784741 -0.283487
  outer loop
    vertex -13.54242383857492 14.28980677719573 -3.521956678724028
    vertex -8.546607165643609 17.64682001549226 -3.942746415506734
    vertex -11.85188283680248 13.67031656760779 -8.523808900022022
  endloop
endfacet
facet normal -0.0595209 -0.903893 0.423597
  outer loop
    vertex -4.357830467632359 -17.39191006633229 8.861759298242344
    vertex -1.427015604988921 -19.19982055368626 5.415765612484059
    vertex 1.905517149572718 -17.56579018966344 9.370806763849522
  endloop
endfacet
facet normal 0.424193 -0.423823 0.800272
  outer loop
    vertex 5.855979156720867 -10.68200728350775 15.86197429424024
    vertex 10.6038207301731 -9.942736196287692 13.73684763158498
    vertex 8.900949463781435 -5.25603549339114 17.12154168103508
  endloop
endfacet
facet normal -0.695819 -0.702304 -0.150347
  outer loop
    vertex -15.41715120429599 -11.76914022524534 -4.878400055590635
    vertex -11.37737458591146 -15.9927395342812 -3.84546872572056
    vertex -14.36090178460266 -13.9173522387683 0.2679675261055322
  endloop
endfacet
facet normal 0.0796306 -0.94653 -0.312634
  outer loop
    vertex -2.139663264209279 -18.89612492162257 -6.193408113650158
    vertex 2.685993456007676 -17.40483249991246 -9.479306135170185
    vertex 3.579094373376451 -19.42639224485425 -3.131352394019511
  endloop
endfacet
facet normal 0.778623 0.457549 -0.429413
  outer loop
    vertex 13.05727420917864 10.65778524518202 -10.76657809584358
    vertex 16.24408618961903 10.42820971099323 -5.232791424065627
    vertex 17.03866094152932 5.807949905187427 -8.715030190334192
  endloop
endfacet
facet normal -0.283357 -0.0776649 -0.955865
  outer loop
    vertex -7.62320828246151 1.35367601180544 -18.44056009825279
    vertex -3.105915455724148 -4.027994333408087 -19.34240292290299
    vertex -8.092395020672656 -3.859113688954187 -17.87793009173933
  endloop
endfacet
facet normal 0.881127 0.377996 0.284137
  outer loop
    vertex 18.98917934890352 5.618323637898749 2.800983247897869
    vertex 16.16957855157975 10.8289238306681 4.612931620334336
    vertex 16.64873461643932 6.354265191969056 9.079809994790935
  endloop
endfacet
facet normal -0.466944 -0.50561 -0.725481
  outer loop
    vertex -11.16641110903973 -7.143839509571244 -14.97587459901434
    vertex -6.330971314097483 -9.723766429917474 -16.29009418746512
    vertex -9.073006436111353 -12.8644516705866 -12.33638672486492
  endloop
endfacet
facet normal 0.228644 -0.917848 -0.324465
  outer loop
    vertex 3.579094373376451 -19.42639224485425 -3.131352394019511
    vertex 2.685993456007676 -17.40483249991246 -9.479306135170185
    vertex 8.023349517989761 -17.13166092882868 -6.490921069603178
  endloop
endfacet
facet normal -0.00219495 -0.813567 -0.581466
  outer loop
    vertex 2.685993456007676 -17.40483249991246 -9.479306135170185
    vertex -3.394018705957976 -15.16724789264025 -12.58710563977307
    vertex 2.090445546283407 -14.28876418825515 -13.83695253263741
  endloop
endfacet
facet normal 0.300043 0.683477 -0.665457
  outer loop
    vertex 8.449769150464913 11.34600869981767 -14.13752057071937
    vertex 2.631612647967794 13.90761356678438 -14.12985844755888
    vertex 5.432079924937073 15.96105166995433 -10.75812889298802
  endloop
endfacet
facet normal 0.112763 0.869068 -0.48167
  outer loop
    vertex 5.432079924937073 15.96105166995433 -10.75812889298802
    vertex -0.8762595745525235 16.48223252991844 -11.29460844773751
    vertex 1.834449865736162 18.88428231417285 -6.32603154977267
  endloop
endfacet
facet normal -0.552773 -0.197878 -0.809498
  outer loop
    vertex -12.28270633574522 -0.8030818918461974 -15.76357144002694
    vertex -8.092395020672656 -3.859113688954187 -17.87793009173933
    vertex -11.16641110903973 -7.143839509571244 -14.97587459901434
  endloop
endfacet
facet normal 0.410555 0.428118 0.805083
  outer loop
    vertex 9.262707318419068 10.8672490018043 14.00375493451986
    vertex 5.150182029344117 9.537885652089289 16.80786608562462
    vertex 8.833476376941777 5.485601662930105 17.08443354324837
  endloop
endfacet
facet normal -0.660818 0.603199 0.446622
  outer loop
    vertex -11.61068236499495 11.2786825535348 11.74663249087947
    vertex -12.08501604571004 14.39556368012433 6.835212762337114
    vertex -15.51927762759311 9.9891804812264 7.705082428577485
  endloop
endfacet
facet normal 0.984119 -0.177499 -0.001819
  outer loop
    vertex 20 -4.898587196589413e-15 3.06285495914156e-14
    vertex 19.02846797197454 -5.416550431269885 2.9288885374915
    vertex 19.02113032590319 -5.396344558040182 -3.0126510810109
  endloop
endfacet
facet normal 0.777832 0.483771 0.401176
  outer loop
    vertex 16.16957855157975 10.8289238306681 4.612931620334336
    vertex 13.0281460443058 11.39673510929976 10.01907378437215
    vertex 16.64873461643932 6.354265191969056 9.079809994790935
  endloop
endfacet
facet normal -0.415702 -0.351918 -0.838657
  outer loop
    vertex -8.092395020672656 -3.859113688954187 -17.87793009173933
    vertex -6.330971314097483 -9.723766429917474 -16.29009418746512
    vertex -11.16641110903973 -7.143839509571244 -14.97587459901434
  endloop
endfacet
facet normal 0.237887 0.164277 -0.9573
  outer loop
    vertex 6.180339887498945 -1.513746692173659e-15 -19.02113032590307
    vertex 1.768886663483829 5.259428308136196 -19.21482380463908
    vertex 7.138540384977316 5.611077500226982 -17.82013048376735
  endloop
endfacet
facet normal -0.00471752 -0.18103 0.983466
  outer loop
    vertex 1.224646799147353e-15 -2.999519565323716e-31 20
    vertex -3.220158748886787 -5.354600778123012 18.99891649907679
    vertex 3.012651081008253 -5.396344558042134 19.02113032590306
  endloop
endfacet
facet normal 0.694925 0.635172 0.337099
  outer loop
    vertex 16.16957855157975 10.8289238306681 4.612931620334336
    vertex 11.80021321151582 15.26955273024817 5.253163578353362
    vertex 13.0281460443058 11.39673510929976 10.01907378437215
  endloop
endfacet
facet normal 0.718842 0.411819 0.560063
  outer loop
    vertex 13.0281460443058 11.39673510929976 10.01907378437215
    vertex 12.73472522722802 6.542495784687827 13.96504644798378
    vertex 16.64873461643932 6.354265191969056 9.079809994790935
  endloop
endfacet
facet normal 0.983484 -0.0921726 0.155769
  outer loop
    vertex 19.02113032590307 -4.658833273956369e-15 6.18033988749896
    vertex 19.02846797197454 -5.416550431269885 2.9288885374915
    vertex 20 -4.898587196589413e-15 3.06285495914156e-14
  endloop
endfacet
facet normal 0.46895 0.398819 -0.788055
  outer loop
    vertex 7.138540384977316 5.611077500226982 -17.82013048376735
    vertex 8.449769150464913 11.34600869981767 -14.13752057071937
    vertex 12.42516215248669 5.992194762237814 -14.48133099600385
  endloop
endfacet
facet normal 0.714979 0.680194 0.161683
  outer loop
    vertex 16.16957855157975 10.8289238306681 4.612931620334336
    vertex 14.59690219148536 13.66716467079952 -0.3729024985961113
    vertex 11.80021321151582 15.26955273024817 5.253163578353362
  endloop
endfacet
facet normal 0.557055 0.708931 0.432558
  outer loop
    vertex 11.80021321151582 15.26955273024817 5.253163578353362
    vertex 8.041021828165327 15.17080233550005 10.25615544227733
    vertex 13.0281460443058 11.39673510929976 10.01907378437215
  endloop
endfacet
facet normal 0.931779 -0.363018 -0.00238527
  outer loop
    vertex 19.02846797197454 -5.416550431269885 2.9288885374915
    vertex 17.07242841160015 -10.41786111485446 -0.01891883694610645
    vertex 19.02113032590319 -5.396344558040182 -3.0126510810109
  endloop
endfacet
facet normal 0.322416 0.45818 -0.828323
  outer loop
    vertex 7.138540384977316 5.611077500226982 -17.82013048376735
    vertex 2.751126367494788 10.01353501673582 -17.0927007865545
    vertex 8.449769150464913 11.34600869981767 -14.13752057071937
  endloop
endfacet
facet normal 0.443238 0.825532 0.349338
  outer loop
    vertex 11.80021321151582 15.26955273024817 5.253163578353362
    vertex 6.314699762943387 18.27725017783584 5.105555096234133
    vertex 8.041021828165327 15.17080233550005 10.25615544227733
  endloop
endfacet
facet normal 0.889077 -0.433203 -0.147906
  outer loop
    vertex 17.07242841160015 -10.41786111485446 -0.01891883694610645
    vertex 16.25617752955004 -10.14169850550212 -5.734338981194655
    vertex 19.02113032590319 -5.396344558040182 -3.0126510810109
  endloop
endfacet
facet normal 0.212153 0.361449 -0.907935
  outer loop
    vertex 7.138540384977316 5.611077500226982 -17.82013048376735
    vertex 1.768886663483829 5.259428308136196 -19.21482380463908
    vertex 2.751126367494788 10.01353501673582 -17.0927007865545
  endloop
endfacet
facet normal 0.2836 0.860227 0.423769
  outer loop
    vertex 6.314699762943387 18.27725017783584 5.105555096234133
    vertex 2.252675000852529 17.42100915709376 9.562107261947512
    vertex 8.041021828165327 15.17080233550005 10.25615544227733
  endloop
endfacet
facet normal 0.783876 -0.604657 -0.141166
  outer loop
    vertex 17.07242841160015 -10.41786111485446 -0.01891883694610645
    vertex 13.25235512766164 -14.6852164879957 -2.952879996044491
    vertex 16.25617752955004 -10.14169850550212 -5.734338981194655
  endloop
endfacet
facet normal 0.236461 0.78491 0.572714
  outer loop
    vertex 2.252675000852529 17.42100915709376 9.562107261947512
    vertex 3.725039500109627 13.61875815165147 14.16522174656824
    vertex 8.041021828165327 15.17080233550005 10.25615544227733
  endloop
endfacet
facet normal 0.149817 0.936681 0.316519
  outer loop
    vertex 6.314699762943387 18.27725017783584 5.105555096234133
    vertex 0.2559552019398997 19.55242001047702 4.199685544001801
    vertex 2.252675000852529 17.42100915709376 9.562107261947512
  endloop
endfacet
facet normal 0.706273 -0.645244 -0.29127
  outer loop
    vertex 13.25235512766164 -14.6852164879957 -2.952879996044491
    vertex 12.18409302776494 -13.25814073968395 -8.704572431630535
    vertex 16.25617752955004 -10.14169850550212 -5.734338981194655
  endloop
endfacet
facet normal 0.744704 -0.667394 0.00108393
  outer loop
    vertex 17.07242841160015 -10.41786111485446 -0.01891883694610645
    vertex 13.43134474687706 -14.47554617966042 3.171362655240875
    vertex 13.25235512766164 -14.6852164879957 -2.952879996044491
  endloop
endfacet
facet normal 0.182682 0.972171 0.146665
  outer loop
    vertex 6.314699762943387 18.27725017783584 5.105555096234133
    vertex 4.20996510569953 19.5410733916169 -0.6501111537533204
    vertex 0.2559552019398997 19.55242001047702 4.199685544001801
  endloop
endfacet
facet normal 0.351753 0.669544 0.654202
  outer loop
    vertex 3.725039500109627 13.61875815165147 14.16522174656824
    vertex 9.262707318419068 10.8672490018043 14.00375493451986
    vertex 8.041021828165327 15.17080233550005 10.25615544227733
  endloop
endfacet
facet normal 0.0576302 0.77868 0.624769
  outer loop
    vertex 2.252675000852529 17.42100915709376 9.562107261947512
    vertex -2.32706968049161 14.81494627930528 13.23261551785721
    vertex 3.725039500109627 13.61875815165147 14.16522174656824
  endloop
endfacet
facet normal 0.601331 -0.79894 0.00977786
  outer loop
    vertex 13.43134474687706 -14.47554617966042 3.171362655240875
    vertex 8.952154376694191 -17.88419236804493 0.1208112519536857
    vertex 13.25235512766164 -14.6852164879957 -2.952879996044491
  endloop
endfacet
facet normal 0.0349926 0.999044 0.0261919
  outer loop
    vertex 4.20996510569953 19.5410733916169 -0.6501111537533204
    vertex -2.181017521356942 19.79595973145955 -1.833886823652374
    vertex 0.2559552019398997 19.55242001047702 4.199685544001801
  endloop
endfacet
facet normal 0.0119632 0.65176 0.758331
  outer loop
    vertex -2.32706968049161 14.81494627930528 13.23261551785721
    vertex -0.891311974265445 10.18487034850526 17.18935656005394
    vertex 3.725039500109627 13.61875815165147 14.16522174656824
  endloop
endfacet
facet normal 0.528584 -0.834386 0.156201
  outer loop
    vertex 13.43134474687706 -14.47554617966042 3.171362655240875
    vertex 8.574204809355722 -17.00023492365827 6.121684770359449
    vertex 8.952154376694191 -17.88419236804493 0.1208112519536857
  endloop
endfacet
facet normal 0.0656522 0.98772 -0.141771
  outer loop
    vertex 4.20996510569953 19.5410733916169 -0.6501111537533204
    vertex 1.834449865736162 18.88428231417285 -6.32603154977267
    vertex -2.181017521356942 19.79595973145955 -1.833886823652374
  endloop
endfacet
facet normal -0.169813 0.609268 0.774568
  outer loop
    vertex -2.32706968049161 14.81494627930528 13.23261551785721
    vertex -6.802766831778138 10.95492218290212 15.28764348743842
    vertex -0.891311974265445 10.18487034850526 17.18935656005394
  endloop
endfacet
facet normal -0.11976 0.98887 0.088286
  outer loop
    vertex -2.181017521356942 19.79595973145955 -1.833886823652374
    vertex -5.772742598015136 18.95407787677819 2.723669351828359
    vertex 0.2559552019398997 19.55242001047702 4.199685544001801
  endloop
endfacet
facet normal 0.361356 -0.918923 0.158121
  outer loop
    vertex 8.574204809355722 -17.00023492365827 6.121684770359449
    vertex 3.835268262965346 -19.33096118350802 3.406560886406868
    vertex 8.952154376694191 -17.88419236804493 0.1208112519536857
  endloop
endfacet
facet normal -0.211329 0.480161 0.851343
  outer loop
    vertex -6.802766831778138 10.95492218290212 15.28764348743842
    vertex -6.287701375142022 6.986432627225392 17.6537409792451
    vertex -0.891311974265445 10.18487034850526 17.18935656005394
  endloop
endfacet
facet normal -0.0579093 0.967022 -0.248021
  outer loop
    vertex 1.834449865736162 18.88428231417285 -6.32603154977267
    vertex -3.54889156923928 18.37527527853017 -7.053695986362065
    vertex -2.181017521356942 19.79595973145955 -1.833886823652374
  endloop
endfacet
facet normal 0.235908 0.949131 -0.208562
  outer loop
    vertex 4.20996510569953 19.5410733916169 -0.6501111537533204
    vertex 7.53103644487526 17.55934680519564 -5.912091832915486
    vertex 1.834449865736162 18.88428231417285 -6.32603154977267
  endloop
endfacet
facet normal -0.288462 0.688643 0.665252
  outer loop
    vertex -2.32706968049161 14.81494627930528 13.23261551785721
    vertex -7.733306807997439 15.09605223856574 10.59741348744469
    vertex -6.802766831778138 10.95492218290212 15.28764348743842
  endloop
endfacet
facet normal 0.274038 -0.961713 0.00330013
  outer loop
    vertex 3.835268262965346 -19.33096118350802 3.406560886406868
    vertex 3.579094373376451 -19.42639224485425 -3.131352394019511
    vertex 8.952154376694191 -17.88419236804493 0.1208112519536857
  endloop
endfacet
facet normal 0.246 -0.904874 0.3474
  outer loop
    vertex 8.574204809355722 -17.00023492365827 6.121684770359449
    vertex 1.905517149572718 -17.56579018966344 9.370806763849522
    vertex 3.835268262965346 -19.33096118350802 3.406560886406868
  endloop
endfacet
facet normal 0.235254 0.888131 -0.394814
  outer loop
    vertex 7.53103644487526 17.55934680519564 -5.912091832915486
    vertex 5.432079924937073 15.96105166995433 -10.75812889298802
    vertex 1.834449865736162 18.88428231417285 -6.32603154977267
  endloop
endfacet
facet normal 0.108112 -0.994086 0.0102741
  outer loop
    vertex 3.835268262965346 -19.33096118350802 3.406560886406868
    vertex -1.490512813824557 -19.94268646687752 0.2600539091132734
    vertex 3.579094373376451 -19.42639224485425 -3.131352394019511
  endloop
endfacet
facet normal 0.288893 -0.847424 0.445436
  outer loop
    vertex 8.574204809355722 -17.00023492365827 6.121684770359449
    vertex 7.380915955676737 -14.53305872323948 11.58931765903884
    vertex 1.905517149572718 -17.56579018966344 9.370806763849522
  endloop
endfacet
facet normal 0.210283 -0.795438 0.568384
  outer loop
    vertex 7.380915955676737 -14.53305872323948 11.58931765903884
    vertex 2.20361966291478 -14.36449459010767 13.74064611115442
    vertex 1.905517149572718 -17.56579018966344 9.370806763849522
  endloop
endfacet
facet normal -0.00614706 -0.987183 -0.159474
  outer loop
    vertex -1.490512813824557 -19.94268646687752 0.2600539091132734
    vertex -2.139663264209279 -18.89612492162257 -6.193408113650158
    vertex 3.579094373376451 -19.42639224485425 -3.131352394019511
  endloop
endfacet
facet normal -0.163318 -0.976315 -0.141901
  outer loop
    vertex -1.490512813824557 -19.94268646687752 0.2600539091132734
    vertex -6.745895316633464 -18.62637426546903 -2.747922506129988
    vertex -2.139663264209279 -18.89612492162257 -6.193408113650158
  endloop
endfacet
facet normal 0.313217 -0.189042 -0.930676
  outer loop
    vertex 9.129409135225266 -5.596185010321219 -16.89190937022578
    vertex 2.793326056790678 -5.2609738509352 -19.09239334604833
    vertex 6.180339887498945 -1.513746692173659e-15 -19.02113032590307
  endloop
endfacet
facet normal -0.270015 -0.918438 -0.289075
  outer loop
    vertex -6.745895316633464 -18.62637426546903 -2.747922506129988
    vertex -7.174728115891535 -16.80774351288547 -8.125455954473686
    vertex -2.139663264209279 -18.89612492162257 -6.193408113650158
  endloop
endfacet
facet normal -0.252493 -0.967435 0.0177853
  outer loop
    vertex -1.490512813824557 -19.94268646687752 0.2600539091132734
    vertex -6.615508362779187 -18.54540313573738 3.507573468222849
    vertex -6.745895316633464 -18.62637426546903 -2.747922506129988
  endloop
endfacet
facet normal 0.451748 -0.0992717 -0.886605
  outer loop
    vertex 11.75570504584947 -2.87931731122399e-15 -16.18033988749894
    vertex 9.129409135225266 -5.596185010321219 -16.89190937022578
    vertex 6.180339887498945 -1.513746692173659e-15 -19.02113032590307
  endloop
endfacet
facet normal -0.814623 -0.457448 -0.356554
  outer loop
    vertex -14.41745360230378 -9.441667152806511 -10.14849511016448
    vertex -15.41715120429599 -11.76914022524534 -4.878400055590635
    vertex -17.99065495163616 -6.156625801950088 -6.199378448355272
  endloop
endfacet
facet normal -0.377851 -0.925653 0.0198574
  outer loop
    vertex -6.615508362779187 -18.54540313573738 3.507573468222849
    vertex -10.4419106882502 -17.04405994385769 0.6830240177270236
    vertex -6.745895316633464 -18.62637426546903 -2.747922506129988
  endloop
endfacet
facet normal -0.590783 0.425394 -0.685577
  outer loop
    vertex -14.24494815273285 8.692472054485249 -11.0237190506628
    vertex -9.209680110117691 11.02316390605753 -13.91659619912474
    vertex -11.40926227639797 5.388153081416956 -15.51762032914774
  endloop
endfacet
facet normal -0.448642 0.401919 -0.798236
  outer loop
    vertex -9.209680110117691 11.02316390605753 -13.91659619912474
    vertex -5.856755054769496 7.307156691987927 -17.67212158477776
    vertex -11.40926227639797 5.388153081416956 -15.51762032914774
  endloop
endfacet
facet normal -0.746507 -0.0276808 -0.664802
  outer loop
    vertex -15.80097826389609 2.704239864401871 -11.95893693685451
    vertex -12.28270633574522 -0.8030818918461974 -15.76357144002694
    vertex -15.96992537665871 -3.534686855633365 -11.50945143334664
  endloop
endfacet
facet normal -0.29683 0.208359 -0.931922
  outer loop
    vertex -5.856755054769496 7.307156691987927 -17.67212158477776
    vertex -2.7292536614239 4.275980197172107 -19.34598583182041
    vertex -7.62320828246151 1.35367601180544 -18.44056009825279
  endloop
endfacet
facet normal -0.421758 0.238066 -0.874897
  outer loop
    vertex -5.856755054769496 7.307156691987927 -17.67212158477776
    vertex -7.62320828246151 1.35367601180544 -18.44056009825279
    vertex -11.40926227639797 5.388153081416956 -15.51762032914774
  endloop
endfacet
facet normal 0.704011 -0.0934698 0.704011
  outer loop
    vertex 11.7557050458495 -2.879317311223995e-15 16.18033988749892
    vertex 13.74246688512788 -5.450182092092789 13.46997101237396
    vertex 16.18033988749896 -3.96304029046837e-15 11.75570504584944
  endloop
endfacet
facet normal 0.155779 -0.0914433 0.98355
  outer loop
    vertex 1.224646799147353e-15 -2.999519565323716e-31 20
    vertex 3.012651081008253 -5.396344558042134 19.02113032590306
    vertex 6.180339887498988 -1.51374669217367e-15 19.02113032590306
  endloop
endfacet
facet normal 0.982815 0.0992184 0.155663
  outer loop
    vertex 20 -4.898587196589413e-15 3.06285495914156e-14
    vertex 18.98917934890352 5.618323637898749 2.800983247897869
    vertex 19.02113032590307 -4.658833273956369e-15 6.18033988749896
  endloop
endfacet
facet normal 0.886042 0.105414 -0.451461
  outer loop
    vertex 16.18033988749896 -3.963040290468369e-15 -11.75570504584945
    vertex 17.03866094152932 5.807949905187427 -8.715030190334192
    vertex 19.02113032590308 -4.658833273956372e-15 -6.180339887498919
  endloop
endfacet
facet normal 0.155779 0.0914433 0.98355
  outer loop
    vertex 6.180339887498988 -1.51374669217367e-15 19.02113032590306
    vertex 3.012651081010322 5.396344558040835 19.02113032590309
    vertex 1.224646799147353e-15 -2.999519565323716e-31 20
  endloop
endfacet
facet normal 0.98355 -0.0914433 -0.155779
  outer loop
    vertex 20 -4.898587196589413e-15 3.06285495914156e-14
    vertex 19.02113032590319 -5.396344558040182 -3.0126510810109
    vertex 19.02113032590308 -4.658833273956372e-15 -6.180339887498919
  endloop
endfacet
facet normal -0.669224 0.12352 -0.732722
  outer loop
    vertex -15.80097826389609 2.704239864401871 -11.95893693685451
    vertex -11.40926227639797 5.388153081416956 -15.51762032914774
    vertex -12.28270633574522 -0.8030818918461974 -15.76357144002694
  endloop
endfacet
facet normal -0.702475 0.284427 -0.652403
  outer loop
    vertex -15.80097826389609 2.704239864401871 -11.95893693685451
    vertex -14.24494815273285 8.692472054485249 -11.0237190506628
    vertex -11.40926227639797 5.388153081416956 -15.51762032914774
  endloop
endfacet
facet normal -0.833919 0.508861 0.213637
  outer loop
    vertex -18.39375913977454 7.326838015663071 2.826140371636738
    vertex -15.51927762759311 9.9891804812264 7.705082428577485
    vertex -15.29900936563699 12.71337740821911 2.07613759330529
  endloop
endfacet
facet normal -0.781202 0.620291 -0.0704531
  outer loop
    vertex -15.29900936563699 12.71337740821911 2.07613759330529
    vertex -13.54242383857492 14.28980677719573 -3.521956678724028
    vertex -17.35902511437457 9.588702200986253 -2.59249632194806
  endloop
endfacet
facet normal -0.855101 -0.014183 -0.518267
  outer loop
    vertex -18.69120414135389 -0.006532812940794174 -7.116097601114687
    vertex -15.80097826389609 2.704239864401871 -11.95893693685451
    vertex -15.96992537665871 -3.534686855633365 -11.50945143334664
  endloop
endfacet
facet normal -0.819786 -0.324216 -0.472054
  outer loop
    vertex -15.96992537665871 -3.534686855633365 -11.50945143334664
    vertex -14.41745360230378 -9.441667152806511 -10.14849511016448
    vertex -17.99065495163616 -6.156625801950088 -6.199378448355272
  endloop
endfacet
facet normal -0.863503 0.50235 0.0447992
  outer loop
    vertex -18.39375913977454 7.326838015663071 2.826140371636738
    vertex -15.29900936563699 12.71337740821911 2.07613759330529
    vertex -17.35902511437457 9.588702200986253 -2.59249632194806
  endloop
endfacet
facet normal -0.892206 -0.164334 -0.420669
  outer loop
    vertex -18.69120414135389 -0.006532812940794174 -7.116097601114687
    vertex -15.96992537665871 -3.534686855633365 -11.50945143334664
    vertex -17.99065495163616 -6.156625801950088 -6.199378448355272
  endloop
endfacet
facet normal -0.937929 0.345051 -0.0350732
  outer loop
    vertex -18.39375913977454 7.326838015663071 2.826140371636738
    vertex -17.35902511437457 9.588702200986253 -2.59249632194806
    vertex -19.52692624279387 3.738450280295865 -2.173278861592328
  endloop
endfacet
facet normal -0.956969 -0.146358 -0.25058
  outer loop
    vertex -18.69120414135389 -0.006532812940794174 -7.116097601114687
    vertex -17.99065495163616 -6.156625801950088 -6.199378448355272
    vertex -19.79174613698239 -2.473865033050736 -1.471997502542518
  endloop
endfacet
facet normal -0.975409 0.208508 0.0714271
  outer loop
    vertex -19.64113454491557 1.239395065842339 3.562265242691787
    vertex -18.39375913977454 7.326838015663071 2.826140371636738
    vertex -19.52692624279387 3.738450280295865 -2.173278861592328
  endloop
endfacet
facet normal -0.983001 0.0213182 -0.182356
  outer loop
    vertex -19.52692624279387 3.738450280295865 -2.173278861592328
    vertex -18.69120414135389 -0.006532812940794174 -7.116097601114687
    vertex -19.79174613698239 -2.473865033050736 -1.471997502542518
  endloop
endfacet
facet normal -0.999098 0.042431 -0.00140666
  outer loop
    vertex -19.64113454491557 1.239395065842339 3.562265242691787
    vertex -19.52692624279387 3.738450280295865 -2.173278861592328
    vertex -19.79174613698239 -2.473865033050736 -1.471997502542518
  endloop
endfacet
facet normal -0.988759 -0.104662 0.106779
  outer loop
    vertex -19.64113454491557 1.239395065842339 3.562265242691787
    vertex -19.79174613698239 -2.473865033050736 -1.471997502542518
    vertex -18.91675580630039 -4.941952435864497 4.211111003815191
  endloop
endfacet
facet normal -0.954989 -0.0819882 0.285085
  outer loop
    vertex -17.79889545646141 -1.135812586717979 9.050372936946326
    vertex -19.64113454491557 1.239395065842339 3.562265242691787
    vertex -18.91675580630039 -4.941952435864497 4.211111003815191
  endloop
endfacet
facet normal -0.87606 -0.376451 0.301336
  outer loop
    vertex -18.91675580630039 -4.941952435864497 4.211111003815191
    vertex -16.29389232512858 -10.53591028803396 4.848058095734406
    vertex -16.25035271915186 -7.140868045852503 9.215966582777767
  endloop
endfacet
facet normal -0.796601 -0.0220307 0.604104
  outer loop
    vertex -14.18391027807052 -3.150347188365118 13.74379866763209
    vertex -15.02700505920629 2.986059354682716 12.85583791438351
    vertex -17.79889545646141 -1.135812586717979 9.050372936946326
  endloop
endfacet
facet normal -0.897704 -0.220983 0.381174
  outer loop
    vertex -17.79889545646141 -1.135812586717979 9.050372936946326
    vertex -18.91675580630039 -4.941952435864497 4.211111003815191
    vertex -16.25035271915186 -7.140868045852503 9.215966582777767
  endloop
endfacet
facet normal -0.815731 -0.195342 0.544449
  outer loop
    vertex -14.18391027807052 -3.150347188365118 13.74379866763209
    vertex -17.79889545646141 -1.135812586717979 9.050372936946326
    vertex -16.25035271915186 -7.140868045852503 9.215966582777767
  endloop
endfacet
facet normal -0.581 -0.104331 0.807189
  outer loop
    vertex -9.156738223879948 -4.603571691824127 17.17443660728268
    vertex -11.40047688747543 1.570044827203415 16.35738628200454
    vertex -14.18391027807052 -3.150347188365118 13.74379866763209
  endloop
endfacet
facet normal -0.716995 -0.32714 0.615546
  outer loop
    vertex -14.18391027807052 -3.150347188365118 13.74379866763209
    vertex -16.25035271915186 -7.140868045852503 9.215966582777767
    vertex -11.77748637246608 -8.920379505060223 13.48026870029219
  endloop
endfacet
facet normal -0.595095 -0.282549 0.752349
  outer loop
    vertex -9.156738223879948 -4.603571691824127 17.17443660728268
    vertex -14.18391027807052 -3.150347188365118 13.74379866763209
    vertex -11.77748637246608 -8.920379505060223 13.48026870029219
  endloop
endfacet
facet normal -0.447348 -0.555968 0.700557
  outer loop
    vertex -11.77748637246608 -8.920379505060223 13.48026870029219
    vertex -8.626298899081755 -13.81339789630242 11.60934993279679
    vertex -6.225515015323172 -10.03301591383137 16.14253866239112
  endloop
endfacet
facet normal -0.460248 -0.399188 0.792982
  outer loop
    vertex -9.156738223879948 -4.603571691824127 17.17443660728268
    vertex -11.77748637246608 -8.920379505060223 13.48026870029219
    vertex -6.225515015323172 -10.03301591383137 16.14253866239112
  endloop
endfacet
facet normal -0.30752 -0.146977 0.940122
  outer loop
    vertex -3.220158748886787 -5.354600778123012 18.99891649907679
    vertex -6.696771105982275 0.8232262809125883 18.82752121880349
    vertex -9.156738223879948 -4.603571691824127 17.17443660728268
  endloop
endfacet
facet normal 0.267532 -0.666302 0.696038
  outer loop
    vertex 5.855979156720867 -10.68200728350775 15.86197429424024
    vertex 2.20361966291478 -14.36449459010767 13.74064611115442
    vertex 7.380915955676737 -14.53305872323948 11.58931765903884
  endloop
endfacet
facet normal -0.315293 -0.338703 0.886493
  outer loop
    vertex -3.220158748886787 -5.354600778123012 18.99891649907679
    vertex -9.156738223879948 -4.603571691824127 17.17443660728268
    vertex -6.225515015323172 -10.03301591383137 16.14253866239112
  endloop
endfacet
facet normal 0.115342 -0.582521 -0.80459
  outer loop
    vertex 2.090445546283407 -14.28876418825515 -13.83695253263741
    vertex -0.5110270675534521 -10.01350069149235 -17.30516267585226
    vertex 5.503768528189273 -10.29059470922008 -16.24229640533274
  endloop
endfacet
facet normal 0.886843 0.365543 -0.282646
  outer loop
    vertex 16.24408618961903 10.42820971099323 -5.232791424065627
    vertex 18.99841445144502 5.50693785704912 -2.955314495908081
    vertex 17.03866094152932 5.807949905187427 -8.715030190334192
  endloop
endfacet
facet normal -0.161321 -0.436712 0.885019
  outer loop
    vertex -3.220158748886787 -5.354600778123012 18.99891649907679
    vertex -6.225515015323172 -10.03301591383137 16.14253866239112
    vertex -0.0571220375335745 -10.37735403057732 17.0969956541168
  endloop
endfacet
facet normal 0.72719 0.658853 -0.192634
  outer loop
    vertex 16.24408618961903 10.42820971099323 -5.232791424065627
    vertex 12.35205612523082 14.40952296859679 -6.308118364189854
    vertex 14.59690219148536 13.66716467079952 -0.3729024985961113
  endloop
endfacet
facet normal -0.153786 0.958634 0.239521
  outer loop
    vertex -5.772742598015136 18.95407787677819 2.723669351828359
    vertex -3.717482347832917 17.98626315520079 7.916733082870556
    vertex 0.2559552019398997 19.55242001047702 4.199685544001801
  endloop
endfacet
facet normal 0.255625 -0.649208 -0.716369
  outer loop
    vertex 6.849476341923244 -14.51301534328274 -11.93553767063192
    vertex 2.090445546283407 -14.28876418825515 -13.83695253263741
    vertex 5.503768528189273 -10.29059470922008 -16.24229640533274
  endloop
endfacet
facet normal -0.0057215 -0.357267 0.933985
  outer loop
    vertex 3.012651081008253 -5.396344558042134 19.02113032590306
    vertex -3.220158748886787 -5.354600778123012 18.99891649907679
    vertex -0.0571220375335745 -10.37735403057732 17.0969956541168
  endloop
endfacet
facet normal -0.619258 -0.783333 -0.0539341
  outer loop
    vertex -14.36090178460266 -13.9173522387683 0.2679675261055322
    vertex -11.37737458591146 -15.9927395342812 -3.84546872572056
    vertex -10.4419106882502 -17.04405994385769 0.6830240177270236
  endloop
endfacet
facet normal 0.291065 -0.348112 -0.891123
  outer loop
    vertex 9.129409135225266 -5.596185010321219 -16.89190937022578
    vertex 5.503768528189273 -10.29059470922008 -16.24229640533274
    vertex 2.793326056790678 -5.2609738509352 -19.09239334604833
  endloop
endfacet
facet normal 0.937612 -0.178009 0.298659
  outer loop
    vertex 17.21594079650889 -5.38254611590147 8.639420107929412
    vertex 19.02846797197454 -5.416550431269885 2.9288885374915
    vertex 19.02113032590307 -4.658833273956369e-15 6.18033988749896
  endloop
endfacet
facet normal 0.577761 -0.344827 -0.739789
  outer loop
    vertex 14.03212940000931 -4.951691004853809 -13.36338657279075
    vertex 10.78460896960931 -10.0247660359856 -13.5350018580114
    vertex 9.129409135225266 -5.596185010321219 -16.89190937022578
  endloop
endfacet
facet normal -0.0285648 0.905959 -0.4224
  outer loop
    vertex 1.834449865736162 18.88428231417285 -6.32603154977267
    vertex -0.8762595745525235 16.48223252991844 -11.29460844773751
    vertex -3.54889156923928 18.37527527853017 -7.053695986362065
  endloop
endfacet
facet normal 0.382727 0.695528 -0.60808
  outer loop
    vertex 5.432079924937073 15.96105166995433 -10.75812889298802
    vertex 9.782457541152064 14.51964647971073 -9.668680911054045
    vertex 8.449769150464913 11.34600869981767 -14.13752057071937
  endloop
endfacet
facet normal 0.155841 -0.0870025 -0.983943
  outer loop
    vertex 6.180339887498945 -1.513746692173659e-15 -19.02113032590307
    vertex 2.793326056790678 -5.2609738509352 -19.09239334604833
    vertex 1.224646799147353e-15 -2.999519565323716e-31 -20
  endloop
endfacet
facet normal -0.474617 -0.860395 0.185633
  outer loop
    vertex -6.615508362779187 -18.54540313573738 3.507573468222849
    vertex -11.34623303260836 -15.47783401489502 5.630244237784503
    vertex -10.4419106882502 -17.04405994385769 0.6830240177270236
  endloop
endfacet
facet normal -0.428459 0.421048 0.799463
  outer loop
    vertex -6.802766831778138 10.95492218290212 15.28764348743842
    vertex -11.12092278017519 6.715427819026211 15.2061864293724
    vertex -6.287701375142022 6.986432627225392 17.6537409792451
  endloop
endfacet
facet normal -0.180866 -0.0745757 0.980676
  outer loop
    vertex 1.224646799147353e-15 -2.999519565323716e-31 20
    vertex -6.696771105982275 0.8232262809125883 18.82752121880349
    vertex -3.220158748886787 -5.354600778123012 18.99891649907679
  endloop
endfacet
facet normal 0.887307 -0.0910338 0.452105
  outer loop
    vertex 16.18033988749896 -3.96304029046837e-15 11.75570504584944
    vertex 17.21594079650889 -5.38254611590147 8.639420107929412
    vertex 19.02113032590307 -4.658833273956369e-15 6.18033988749896
  endloop
endfacet
facet normal -0.303025 0.528217 -0.793198
  outer loop
    vertex -9.209680110117691 11.02316390605753 -13.91659619912474
    vertex -3.161752000074788 12.77222392287314 -15.06232453355093
    vertex -5.856755054769496 7.307156691987927 -17.67212158477776
  endloop
endfacet
facet normal -0.925523 0.329605 -0.186462
  outer loop
    vertex -17.35902511437457 9.588702200986253 -2.59249632194806
    vertex -17.66613267185765 6.228267092737815 -7.008312595899443
    vertex -19.52692624279387 3.738450280295865 -2.173278861592328
  endloop
endfacet
facet normal 0.984034 0.177972 -0.00186507
  outer loop
    vertex 20 -4.898587196589413e-15 3.06285495914156e-14
    vertex 18.99841445144502 5.50693785704912 -2.955314495908081
    vertex 18.98917934890352 5.618323637898749 2.800983247897869
  endloop
endfacet
facet normal 0.0296345 -0.989395 0.142193
  outer loop
    vertex 3.835268262965346 -19.33096118350802 3.406560886406868
    vertex -1.427015604988921 -19.19982055368626 5.415765612484059
    vertex -1.490512813824557 -19.94268646687752 0.2600539091132734
  endloop
endfacet
facet normal 0.983198 0.0952517 -0.155723
  outer loop
    vertex 19.02113032590308 -4.658833273956372e-15 -6.180339887498919
    vertex 18.99841445144502 5.50693785704912 -2.955314495908081
    vertex 20 -4.898587196589413e-15 3.06285495914156e-14
  endloop
endfacet
facet normal -0.47103 -0.0546715 0.880421
  outer loop
    vertex -6.696771105982275 0.8232262809125883 18.82752121880349
    vertex -11.40047688747543 1.570044827203415 16.35738628200454
    vertex -9.156738223879948 -4.603571691824127 17.17443660728268
  endloop
endfacet
facet normal -0.692715 0.00917971 0.721153
  outer loop
    vertex -14.18391027807052 -3.150347188365118 13.74379866763209
    vertex -11.40047688747543 1.570044827203415 16.35738628200454
    vertex -15.02700505920629 2.986059354682716 12.85583791438351
  endloop
endfacet
facet normal -0.532494 0.108471 -0.839455
  outer loop
    vertex -11.40926227639797 5.388153081416956 -15.51762032914774
    vertex -7.62320828246151 1.35367601180544 -18.44056009825279
    vertex -12.28270633574522 -0.8030818918461974 -15.76357144002694
  endloop
endfacet
facet normal 0.512888 0.641935 0.569969
  outer loop
    vertex 8.041021828165327 15.17080233550005 10.25615544227733
    vertex 9.262707318419068 10.8672490018043 14.00375493451986
    vertex 13.0281460443058 11.39673510929976 10.01907378437215
  endloop
endfacet
facet normal 0.933396 0.184202 -0.307963
  outer loop
    vertex 17.03866094152932 5.807949905187427 -8.715030190334192
    vertex 18.99841445144502 5.50693785704912 -2.955314495908081
    vertex 19.02113032590308 -4.658833273956372e-15 -6.180339887498919
  endloop
endfacet
facet normal 0.390676 -0.593338 -0.703791
  outer loop
    vertex 10.78460896960931 -10.0247660359856 -13.5350018580114
    vertex 6.849476341923244 -14.51301534328274 -11.93553767063192
    vertex 5.503768528189273 -10.29059470922008 -16.24229640533274
  endloop
endfacet
facet normal 0.937542 -0.176104 -0.300003
  outer loop
    vertex 19.02113032590319 -5.396344558040182 -3.0126510810109
    vertex 17.23213008030667 -5.095255232692597 -8.780208824914638
    vertex 19.02113032590308 -4.658833273956372e-15 -6.180339887498919
  endloop
endfacet
facet normal 0.00936455 0.605672 -0.79566
  outer loop
    vertex -3.161752000074788 12.77222392287314 -15.06232453355093
    vertex 2.631612647967794 13.90761356678438 -14.12985844755888
    vertex 2.751126367494788 10.01353501673582 -17.0927007865545
  endloop
endfacet
facet normal 0.567003 0.464695 -0.680122
  outer loop
    vertex 8.449769150464913 11.34600869981767 -14.13752057071937
    vertex 13.05727420917864 10.65778524518202 -10.76657809584358
    vertex 12.42516215248669 5.992194762237814 -14.48133099600385
  endloop
endfacet
facet normal -0.94606 0.160409 -0.281494
  outer loop
    vertex -19.52692624279387 3.738450280295865 -2.173278861592328
    vertex -17.66613267185765 6.228267092737815 -7.008312595899443
    vertex -18.69120414135389 -0.006532812940794174 -7.116097601114687
  endloop
endfacet
facet normal 0.888084 -0.0809259 -0.452501
  outer loop
    vertex 19.02113032590308 -4.658833273956372e-15 -6.180339887498919
    vertex 17.23213008030667 -5.095255232692597 -8.780208824914638
    vertex 16.18033988749896 -3.963040290468369e-15 -11.75570504584945
  endloop
endfacet
facet normal 0.161707 -0.440738 0.88295
  outer loop
    vertex 3.012651081008253 -5.396344558042134 19.02113032590306
    vertex -0.0571220375335745 -10.37735403057732 17.0969956541168
    vertex 5.855979156720867 -10.68200728350775 15.86197429424024
  endloop
endfacet
facet normal -0.661758 -0.699152 -0.270671
  outer loop
    vertex -11.63804747906719 -14.08676821966865 -8.131347489826716
    vertex -11.37737458591146 -15.9927395342812 -3.84546872572056
    vertex -15.41715120429599 -11.76914022524534 -4.878400055590635
  endloop
endfacet
facet normal -0.702752 -0.591898 -0.394711
  outer loop
    vertex -14.41745360230378 -9.441667152806511 -10.14849511016448
    vertex -11.63804747906719 -14.08676821966865 -8.131347489826716
    vertex -15.41715120429599 -11.76914022524534 -4.878400055590635
  endloop
endfacet
facet normal -0.175283 -0.974148 0.14252
  outer loop
    vertex -1.490512813824557 -19.94268646687752 0.2600539091132734
    vertex -1.427015604988921 -19.19982055368626 5.415765612484059
    vertex -6.615508362779187 -18.54540313573738 3.507573468222849
  endloop
endfacet
facet normal 0.0950436 -0.945758 0.310657
  outer loop
    vertex 1.905517149572718 -17.56579018966344 9.370806763849522
    vertex -1.427015604988921 -19.19982055368626 5.415765612484059
    vertex 3.835268262965346 -19.33096118350802 3.406560886406868
  endloop
endfacet
facet normal -0.672401 0.740182 -0.0025518
  outer loop
    vertex -15.29900936563699 12.71337740821911 2.07613759330529
    vertex -11.05148508869166 16.57101425956898 1.807253093395441
    vertex -13.54242383857492 14.28980677719573 -3.521956678724028
  endloop
endfacet
facet normal 0.501145 -0.644985 -0.57693
  outer loop
    vertex 10.78460896960931 -10.0247660359856 -13.5350018580114
    vertex 12.18409302776494 -13.25814073968395 -8.704572431630535
    vertex 6.849476341923244 -14.51301534328274 -11.93553767063192
  endloop
endfacet
facet normal 0.427237 -0.439321 -0.790231
  outer loop
    vertex 10.78460896960931 -10.0247660359856 -13.5350018580114
    vertex 5.503768528189273 -10.29059470922008 -16.24229640533274
    vertex 9.129409135225266 -5.596185010321219 -16.89190937022578
  endloop
endfacet
facet normal -0.452629 -0.743531 -0.492229
  outer loop
    vertex -11.63804747906719 -14.08676821966865 -8.131347489826716
    vertex -9.073006436111353 -12.8644516705866 -12.33638672486492
    vertex -7.174728115891535 -16.80774351288547 -8.125455954473686
  endloop
endfacet
facet normal 0.137717 -0.431097 -0.891734
  outer loop
    vertex 5.503768528189273 -10.29059470922008 -16.24229640533274
    vertex -0.5110270675534521 -10.01350069149235 -17.30516267585226
    vertex 2.793326056790678 -5.2609738509352 -19.09239334604833
  endloop
endfacet
facet normal 0.889528 -0.349579 -0.294166
  outer loop
    vertex 16.25617752955004 -10.14169850550212 -5.734338981194655
    vertex 17.23213008030667 -5.095255232692597 -8.780208824914638
    vertex 19.02113032590319 -5.396344558040182 -3.0126510810109
  endloop
endfacet
facet normal -0.731741 0.6243 0.273504
  outer loop
    vertex -15.51927762759311 9.9891804812264 7.705082428577485
    vertex -12.08501604571004 14.39556368012433 6.835212762337114
    vertex -15.29900936563699 12.71337740821911 2.07613759330529
  endloop
endfacet
facet normal 0.155736 0.0944145 -0.983276
  outer loop
    vertex 1.224646799147353e-15 -2.999519565323716e-31 -20
    vertex 1.768886663483829 5.259428308136196 -19.21482380463908
    vertex 6.180339887498945 -1.513746692173659e-15 -19.02113032590307
  endloop
endfacet
facet normal -0.533947 0.689617 0.489212
  outer loop
    vertex -7.733306807997439 15.09605223856574 10.59741348744469
    vertex -12.08501604571004 14.39556368012433 6.835212762337114
    vertex -11.61068236499495 11.2786825535348 11.74663249087947
  endloop
endfacet
facet normal -0.871725 0.38445 0.303799
  outer loop
    vertex -18.39375913977454 7.326838015663071 2.826140371636738
    vertex -17.62270584600117 4.931689248479143 8.069614601810382
    vertex -15.51927762759311 9.9891804812264 7.705082428577485
  endloop
endfacet
facet normal -0.944725 0.222683 0.24064
  outer loop
    vertex -19.64113454491557 1.239395065842339 3.562265242691787
    vertex -17.62270584600117 4.931689248479143 8.069614601810382
    vertex -18.39375913977454 7.326838015663071 2.826140371636738
  endloop
endfacet
facet normal -0.871338 -0.447111 -0.202143
  outer loop
    vertex -15.41715120429599 -11.76914022524534 -4.878400055590635
    vertex -18.08411968427892 -8.523465786088396 -0.5613788721142162
    vertex -17.99065495163616 -6.156625801950088 -6.199378448355272
  endloop
endfacet
facet normal 0.590151 -0.176801 -0.787695
  outer loop
    vertex 11.75570504584947 -2.87931731122399e-15 -16.18033988749894
    vertex 14.03212940000931 -4.951691004853809 -13.36338657279075
    vertex 9.129409135225266 -5.596185010321219 -16.89190937022578
  endloop
endfacet
facet normal 0.379411 0.817199 -0.433858
  outer loop
    vertex 7.53103644487526 17.55934680519564 -5.912091832915486
    vertex 9.782457541152064 14.51964647971073 -9.668680911054045
    vertex 5.432079924937073 15.96105166995433 -10.75812889298802
  endloop
endfacet
facet normal 0.357845 0.925675 -0.122769
  outer loop
    vertex 4.20996510569953 19.5410733916169 -0.6501111537533204
    vertex 9.982246412486765 17.32173000355573 -0.5589510213894784
    vertex 7.53103644487526 17.55934680519564 -5.912091832915486
  endloop
endfacet
facet normal 0.471377 0.867506 0.158863
  outer loop
    vertex 11.80021321151582 15.26955273024817 5.253163578353362
    vertex 9.982246412486765 17.32173000355573 -0.5589510213894784
    vertex 6.314699762943387 18.27725017783584 5.105555096234133
  endloop
endfacet
facet normal 0.35687 0.93122 0.073976
  outer loop
    vertex 6.314699762943387 18.27725017783584 5.105555096234133
    vertex 9.982246412486765 17.32173000355573 -0.5589510213894784
    vertex 4.20996510569953 19.5410733916169 -0.6501111537533204
  endloop
endfacet
facet normal 0.616596 0.782835 0.0835436
  outer loop
    vertex 14.59690219148536 13.66716467079952 -0.3729024985961113
    vertex 9.982246412486765 17.32173000355573 -0.5589510213894784
    vertex 11.80021321151582 15.26955273024817 5.253163578353362
  endloop
endfacet
facet normal -0.901871 -0.406081 0.147398
  outer loop
    vertex -18.91675580630039 -4.941952435864497 4.211111003815191
    vertex -18.08411968427892 -8.523465786088396 -0.5613788721142162
    vertex -16.29389232512858 -10.53591028803396 4.848058095734406
  endloop
endfacet
facet normal -0.947797 -0.288106 -0.13666
  outer loop
    vertex -17.99065495163616 -6.156625801950088 -6.199378448355272
    vertex -18.08411968427892 -8.523465786088396 -0.5613788721142162
    vertex -19.79174613698239 -2.473865033050736 -1.471997502542518
  endloop
endfacet
facet normal 0.77024 -0.324013 0.549315
  outer loop
    vertex 13.74246688512788 -5.450182092092789 13.46997101237396
    vertex 14.55818896995572 -9.36717393699646 10.01574691918251
    vertex 17.21594079650889 -5.38254611590147 8.639420107929412
  endloop
endfacet
facet normal -0.963153 -0.267003 0.032335
  outer loop
    vertex -19.79174613698239 -2.473865033050736 -1.471997502542518
    vertex -18.08411968427892 -8.523465786088396 -0.5613788721142162
    vertex -18.91675580630039 -4.941952435864497 4.211111003815191
  endloop
endfacet
facet normal -0.933224 0.0835826 0.349437
  outer loop
    vertex -17.79889545646141 -1.135812586717979 9.050372936946326
    vertex -17.62270584600117 4.931689248479143 8.069614601810382
    vertex -19.64113454491557 1.239395065842339 3.562265242691787
  endloop
endfacet
facet normal 0.49202 0.797088 -0.350095
  outer loop
    vertex 12.35205612523082 14.40952296859679 -6.308118364189854
    vertex 9.782457541152064 14.51964647971073 -9.668680911054045
    vertex 7.53103644487526 17.55934680519564 -5.912091832915486
  endloop
endfacet
facet normal -0.855178 0.106819 0.507209
  outer loop
    vertex -15.02700505920629 2.986059354682716 12.85583791438351
    vertex -17.62270584600117 4.931689248479143 8.069614601810382
    vertex -17.79889545646141 -1.135812586717979 9.050372936946326
  endloop
endfacet
facet normal -0.0264448 0.555165 -0.83132
  outer loop
    vertex 2.751126367494788 10.01353501673582 -17.0927007865545
    vertex -1.372111681480183 8.120796061657458 -18.22553101718889
    vertex -3.161752000074788 12.77222392287314 -15.06232453355093
  endloop
endfacet
facet normal 0.25872 0.589916 -0.764894
  outer loop
    vertex 2.751126367494788 10.01353501673582 -17.0927007865545
    vertex 2.631612647967794 13.90761356678438 -14.12985844755888
    vertex 8.449769150464913 11.34600869981767 -14.13752057071937
  endloop
endfacet
facet normal 0.800148 -0.177721 0.572869
  outer loop
    vertex 16.18033988749896 -3.96304029046837e-15 11.75570504584944
    vertex 13.74246688512788 -5.450182092092789 13.46997101237396
    vertex 17.21594079650889 -5.38254611590147 8.639420107929412
  endloop
endfacet
facet normal 0.197935 -0.784334 -0.587913
  outer loop
    vertex 6.849476341923244 -14.51301534328274 -11.93553767063192
    vertex 2.685993456007676 -17.40483249991246 -9.479306135170185
    vertex 2.090445546283407 -14.28876418825515 -13.83695253263741
  endloop
endfacet
facet normal -0.883923 0.152966 -0.441906
  outer loop
    vertex -18.69120414135389 -0.006532812940794174 -7.116097601114687
    vertex -17.66613267185765 6.228267092737815 -7.008312595899443
    vertex -15.80097826389609 2.704239864401871 -11.95893693685451
  endloop
endfacet
facet normal 0.891164 0.423662 -0.162287
  outer loop
    vertex 16.24408618961903 10.42820971099323 -5.232791424065627
    vertex 17.57770616225549 9.537792786566012 -0.233997508394145
    vertex 18.99841445144502 5.50693785704912 -2.955314495908081
  endloop
endfacet
facet normal -0.654618 0.733522 0.182812
  outer loop
    vertex -15.29900936563699 12.71337740821911 2.07613759330529
    vertex -12.08501604571004 14.39556368012433 6.835212762337114
    vertex -11.05148508869166 16.57101425956898 1.807253093395441
  endloop
endfacet
facet normal 0.712238 -0.639081 0.290331
  outer loop
    vertex 16.26480292521028 -10.27603727221956 5.464361242087285
    vertex 12.07945760011268 -13.79352837213563 7.989072482720983
    vertex 13.43134474687706 -14.47554617966042 3.171362655240875
  endloop
endfacet
facet normal -0.591453 0.570509 -0.569828
  outer loop
    vertex -14.24494815273285 8.692472054485249 -11.0237190506628
    vertex -11.85188283680248 13.67031656760779 -8.523808900022022
    vertex -9.209680110117691 11.02316390605753 -13.91659619912474
  endloop
endfacet
facet normal 0.452281 -0.0866989 0.887651
  outer loop
    vertex 6.180339887498988 -1.51374669217367e-15 19.02113032590306
    vertex 8.900949463781435 -5.25603549339114 17.12154168103508
    vertex 11.7557050458495 -2.879317311223995e-15 16.18033988749892
  endloop
endfacet
facet normal 0.786986 -0.602793 0.131505
  outer loop
    vertex 17.07242841160015 -10.41786111485446 -0.01891883694610645
    vertex 16.26480292521028 -10.27603727221956 5.464361242087285
    vertex 13.43134474687706 -14.47554617966042 3.171362655240875
  endloop
endfacet
facet normal 0.451956 0.0945703 0.887013
  outer loop
    vertex 11.7557050458495 -2.879317311223995e-15 16.18033988749892
    vertex 8.833476376941777 5.485601662930105 17.08443354324837
    vertex 6.180339887498988 -1.51374669217367e-15 19.02113032590306
  endloop
endfacet
facet normal -0.154896 -0.600672 0.784347
  outer loop
    vertex -6.225515015323172 -10.03301591383137 16.14253866239112
    vertex -2.992113412937384 -14.75748353875161 13.16297599054239
    vertex -0.0571220375335745 -10.37735403057732 17.0969956541168
  endloop
endfacet
facet normal -0.188102 0.754466 -0.628808
  outer loop
    vertex -6.712634464649657 15.42454798162945 -10.81775661153496
    vertex -0.8762595745525235 16.48223252991844 -11.29460844773751
    vertex -3.161752000074788 12.77222392287314 -15.06232453355093
  endloop
endfacet
facet normal 0.806202 -0.165319 -0.568073
  outer loop
    vertex 16.18033988749896 -3.963040290468369e-15 -11.75570504584945
    vertex 17.23213008030667 -5.095255232692597 -8.780208824914638
    vertex 14.03212940000931 -4.951691004853809 -13.36338657279075
  endloop
endfacet
facet normal -0.221893 0.810749 0.54171
  outer loop
    vertex -2.32706968049161 14.81494627930528 13.23261551785721
    vertex -3.717482347832917 17.98626315520079 7.916733082870556
    vertex -7.733306807997439 15.09605223856574 10.59741348744469
  endloop
endfacet
facet normal -0.0153571 0.927199 0.374254
  outer loop
    vertex 0.2559552019398997 19.55242001047702 4.199685544001801
    vertex -3.717482347832917 17.98626315520079 7.916733082870556
    vertex 2.252675000852529 17.42100915709376 9.562107261947512
  endloop
endfacet
facet normal 0.807483 0.579108 -0.112273
  outer loop
    vertex 14.59690219148536 13.66716467079952 -0.3729024985961113
    vertex 17.57770616225549 9.537792786566012 -0.233997508394145
    vertex 16.24408618961903 10.42820971099323 -5.232791424065627
  endloop
endfacet
facet normal 0.112277 0.567445 0.815721
  outer loop
    vertex -0.891311974265445 10.18487034850526 17.18935656005394
    vertex 5.150182029344117 9.537885652089289 16.80786608562462
    vertex 3.725039500109627 13.61875815165147 14.16522174656824
  endloop
endfacet
facet normal -0.285492 -0.774232 0.564854
  outer loop
    vertex -8.626298899081755 -13.81339789630242 11.60934993279679
    vertex -4.357830467632359 -17.39191006633229 8.861759298242344
    vertex -2.992113412937384 -14.75748353875161 13.16297599054239
  endloop
endfacet
facet normal -0.557972 -0.584566 0.589024
  outer loop
    vertex -11.77748637246608 -8.920379505060223 13.48026870029219
    vertex -13.42154324256741 -11.48870111540586 9.374002542605011
    vertex -8.626298899081755 -13.81339789630242 11.60934993279679
  endloop
endfacet
facet normal -0.77816 -0.492105 0.390255
  outer loop
    vertex -16.29389232512858 -10.53591028803396 4.848058095734406
    vertex -13.42154324256741 -11.48870111540586 9.374002542605011
    vertex -16.25035271915186 -7.140868045852503 9.215966582777767
  endloop
endfacet
facet normal -0.808993 0.290063 -0.511266
  outer loop
    vertex -15.80097826389609 2.704239864401871 -11.95893693685451
    vertex -17.66613267185765 6.228267092737815 -7.008312595899443
    vertex -14.24494815273285 8.692472054485249 -11.0237190506628
  endloop
endfacet
facet normal -0.550241 -0.705477 0.446696
  outer loop
    vertex -8.626298899081755 -13.81339789630242 11.60934993279679
    vertex -13.42154324256741 -11.48870111540586 9.374002542605011
    vertex -11.34623303260836 -15.47783401489502 5.630244237784503
  endloop
endfacet
facet normal -0.495116 0.490525 0.717109
  outer loop
    vertex -6.802766831778138 10.95492218290212 15.28764348743842
    vertex -11.61068236499495 11.2786825535348 11.74663249087947
    vertex -11.12092278017519 6.715427819026211 15.2061864293724
  endloop
endfacet
facet normal -0.319667 0.660013 -0.67985
  outer loop
    vertex -9.209680110117691 11.02316390605753 -13.91659619912474
    vertex -6.712634464649657 15.42454798162945 -10.81775661153496
    vertex -3.161752000074788 12.77222392287314 -15.06232453355093
  endloop
endfacet
facet normal 0.604909 0.479948 0.635402
  outer loop
    vertex 13.0281460443058 11.39673510929976 10.01907378437215
    vertex 9.262707318419068 10.8672490018043 14.00375493451986
    vertex 12.73472522722802 6.542495784687827 13.96504644798378
  endloop
endfacet
facet normal 0.102473 0.427188 0.898337
  outer loop
    vertex 3.012651081010322 5.396344558040835 19.02113032590309
    vertex 5.150182029344117 9.537885652089289 16.80786608562462
    vertex -0.891311974265445 10.18487034850526 17.18935656005394
  endloop
endfacet
facet normal -0.430606 -0.864836 -0.258141
  outer loop
    vertex -6.745895316633464 -18.62637426546903 -2.747922506129988
    vertex -11.37737458591146 -15.9927395342812 -3.84546872572056
    vertex -7.174728115891535 -16.80774351288547 -8.125455954473686
  endloop
endfacet
facet normal 0.889545 -0.357473 0.284471
  outer loop
    vertex 17.21594079650889 -5.38254611590147 8.639420107929412
    vertex 16.26480292521028 -10.27603727221956 5.464361242087285
    vertex 19.02846797197454 -5.416550431269885 2.9288885374915
  endloop
endfacet
facet normal 0.135436 -0.591995 0.79448
  outer loop
    vertex -0.0571220375335745 -10.37735403057732 17.0969956541168
    vertex 2.20361966291478 -14.36449459010767 13.74064611115442
    vertex 5.855979156720867 -10.68200728350775 15.86197429424024
  endloop
endfacet
facet normal 0.70501 -0.0769592 -0.70501
  outer loop
    vertex 16.18033988749896 -3.963040290468369e-15 -11.75570504584945
    vertex 14.03212940000931 -4.951691004853809 -13.36338657279075
    vertex 11.75570504584947 -2.87931731122399e-15 -16.18033988749894
  endloop
endfacet
facet normal 0.718778 -0.578837 0.385105
  outer loop
    vertex 14.55818896995572 -9.36717393699646 10.01574691918251
    vertex 12.07945760011268 -13.79352837213563 7.989072482720983
    vertex 16.26480292521028 -10.27603727221956 5.464361242087285
  endloop
endfacet
facet normal -0.0297967 -0.33362 -0.942237
  outer loop
    vertex -0.5110270675534521 -10.01350069149235 -17.30516267585226
    vertex -3.105915455724148 -4.027994333408087 -19.34240292290299
    vertex 2.793326056790678 -5.2609738509352 -19.09239334604833
  endloop
endfacet
facet normal -0.560691 0.823092 -0.0902566
  outer loop
    vertex -11.05148508869166 16.57101425956898 1.807253093395441
    vertex -8.546607165643609 17.64682001549226 -3.942746415506734
    vertex -13.54242383857492 14.28980677719573 -3.521956678724028
  endloop
endfacet
facet normal 0.459017 -0.757937 -0.463503
  outer loop
    vertex 12.18409302776494 -13.25814073968395 -8.704572431630535
    vertex 8.023349517989761 -17.13166092882868 -6.490921069603178
    vertex 6.849476341923244 -14.51301534328274 -11.93553767063192
  endloop
endfacet
facet normal -0.029967 0.721251 -0.692026
  outer loop
    vertex -0.8762595745525235 16.48223252991844 -11.29460844773751
    vertex 2.631612647967794 13.90761356678438 -14.12985844755888
    vertex -3.161752000074788 12.77222392287314 -15.06232453355093
  endloop
endfacet
facet normal 0.822331 -0.413472 0.390912
  outer loop
    vertex 14.55818896995572 -9.36717393699646 10.01574691918251
    vertex 16.26480292521028 -10.27603727221956 5.464361242087285
    vertex 17.21594079650889 -5.38254611590147 8.639420107929412
  endloop
endfacet
facet normal -0.193835 0.844559 -0.499147
  outer loop
    vertex -3.54889156923928 18.37527527853017 -7.053695986362065
    vertex -0.8762595745525235 16.48223252991844 -11.29460844773751
    vertex -6.712634464649657 15.42454798162945 -10.81775661153496
  endloop
endfacet
facet normal 0.00701275 -0.166384 -0.986036
  outer loop
    vertex 2.793326056790678 -5.2609738509352 -19.09239334604833
    vertex -3.105915455724148 -4.027994333408087 -19.34240292290299
    vertex 1.224646799147353e-15 -2.999519565323716e-31 -20
  endloop
endfacet
facet normal 0.890489 -0.432169 0.142337
  outer loop
    vertex 19.02846797197454 -5.416550431269885 2.9288885374915
    vertex 16.26480292521028 -10.27603727221956 5.464361242087285
    vertex 17.07242841160015 -10.41786111485446 -0.01891883694610645
  endloop
endfacet
facet normal 0.890419 0.431881 0.143639
  outer loop
    vertex 18.98917934890352 5.618323637898749 2.800983247897869
    vertex 17.57770616225549 9.537792786566012 -0.233997508394145
    vertex 16.16957855157975 10.8289238306681 4.612931620334336
  endloop
endfacet
facet normal 0.462707 -0.765829 0.446551
  outer loop
    vertex 8.574204809355722 -17.00023492365827 6.121684770359449
    vertex 12.07945760011268 -13.79352837213563 7.989072482720983
    vertex 7.380915955676737 -14.53305872323948 11.58931765903884
  endloop
endfacet
facet normal -0.301481 -0.647647 0.699759
  outer loop
    vertex -8.626298899081755 -13.81339789630242 11.60934993279679
    vertex -2.992113412937384 -14.75748353875161 13.16297599054239
    vertex -6.225515015323172 -10.03301591383137 16.14253866239112
  endloop
endfacet
facet normal 0.723405 -0.558929 -0.405319
  outer loop
    vertex 12.18409302776494 -13.25814073968395 -8.704572431630535
    vertex 14.55801998850249 -8.985072132951379 -10.36014154247047
    vertex 16.25617752955004 -10.14169850550212 -5.734338981194655
  endloop
endfacet
facet normal 0.709908 0.590181 -0.38434
  outer loop
    vertex 13.05727420917864 10.65778524518202 -10.76657809584358
    vertex 12.35205612523082 14.40952296859679 -6.308118364189854
    vertex 16.24408618961903 10.42820971099323 -5.232791424065627
  endloop
endfacet
facet normal 0.942063 0.335399 -0.00497866
  outer loop
    vertex 18.99841445144502 5.50693785704912 -2.955314495908081
    vertex 17.57770616225549 9.537792786566012 -0.233997508394145
    vertex 18.98917934890352 5.618323637898749 2.800983247897869
  endloop
endfacet
facet normal -0.431498 0.632058 0.64367
  outer loop
    vertex -7.733306807997439 15.09605223856574 10.59741348744469
    vertex -11.61068236499495 11.2786825535348 11.74663249087947
    vertex -6.802766831778138 10.95492218290212 15.28764348743842
  endloop
endfacet
facet normal -0.810318 0.36978 0.454585
  outer loop
    vertex -17.62270584600117 4.931689248479143 8.069614601810382
    vertex -14.44418203154453 7.640182008782511 11.53226882761073
    vertex -15.51927762759311 9.9891804812264 7.705082428577485
  endloop
endfacet
facet normal 0.11607 0.802557 -0.585175
  outer loop
    vertex 5.432079924937073 15.96105166995433 -10.75812889298802
    vertex 2.631612647967794 13.90761356678438 -14.12985844755888
    vertex -0.8762595745525235 16.48223252991844 -11.29460844773751
  endloop
endfacet
facet normal -0.0638501 0.849599 0.523549
  outer loop
    vertex 2.252675000852529 17.42100915709376 9.562107261947512
    vertex -3.717482347832917 17.98626315520079 7.916733082870556
    vertex -2.32706968049161 14.81494627930528 13.23261551785721
  endloop
endfacet
facet normal -0.803273 0.253824 0.538818
  outer loop
    vertex -15.02700505920629 2.986059354682716 12.85583791438351
    vertex -14.44418203154453 7.640182008782511 11.53226882761073
    vertex -17.62270584600117 4.931689248479143 8.069614601810382
  endloop
endfacet
facet normal 0.653765 -0.419323 0.629889
  outer loop
    vertex 13.74246688512788 -5.450182092092789 13.46997101237396
    vertex 10.6038207301731 -9.942736196287692 13.73684763158498
    vertex 14.55818896995572 -9.36717393699646 10.01574691918251
  endloop
endfacet
facet normal -0.479511 -0.0513929 -0.87603
  outer loop
    vertex -12.28270633574522 -0.8030818918461974 -15.76357144002694
    vertex -7.62320828246151 1.35367601180544 -18.44056009825279
    vertex -8.092395020672656 -3.859113688954187 -17.87793009173933
  endloop
endfacet
facet normal 0.807058 0.585221 0.0785741
  outer loop
    vertex 16.16957855157975 10.8289238306681 4.612931620334336
    vertex 17.57770616225549 9.537792786566012 -0.233997508394145
    vertex 14.59690219148536 13.66716467079952 -0.3729024985961113
  endloop
endfacet
facet normal -0.63872 0.200882 0.742754
  outer loop
    vertex -15.02700505920629 2.986059354682716 12.85583791438351
    vertex -11.40047688747543 1.570044827203415 16.35738628200454
    vertex -11.12092278017519 6.715427819026211 15.2061864293724
  endloop
endfacet
facet normal -0.281652 0.917026 0.282373
  outer loop
    vertex -5.772742598015136 18.95407787677819 2.723669351828359
    vertex -8.216747628052822 17.05925352570125 6.439481932790696
    vertex -3.717482347832917 17.98626315520079 7.916733082870556
  endloop
endfacet
facet normal 0.303101 -0.831625 -0.465328
  outer loop
    vertex 8.023349517989761 -17.13166092882868 -6.490921069603178
    vertex 2.685993456007676 -17.40483249991246 -9.479306135170185
    vertex 6.849476341923244 -14.51301534328274 -11.93553767063192
  endloop
endfacet
facet normal -0.332329 -0.758539 -0.560514
  outer loop
    vertex -9.073006436111353 -12.8644516705866 -12.33638672486492
    vertex -3.394018705957976 -15.16724789264025 -12.58710563977307
    vertex -7.174728115891535 -16.80774351288547 -8.125455954473686
  endloop
endfacet
facet normal 0.315279 0.590953 0.742546
  outer loop
    vertex 3.725039500109627 13.61875815165147 14.16522174656824
    vertex 5.150182029344117 9.537885652089289 16.80786608562462
    vertex 9.262707318419068 10.8672490018043 14.00375493451986
  endloop
endfacet
facet normal -0.533566 0.810672 0.241076
  outer loop
    vertex -12.08501604571004 14.39556368012433 6.835212762337114
    vertex -8.216747628052822 17.05925352570125 6.439481932790696
    vertex -11.05148508869166 16.57101425956898 1.807253093395441
  endloop
endfacet
facet normal -0.17714 -0.385071 -0.905727
  outer loop
    vertex -6.330971314097483 -9.723766429917474 -16.29009418746512
    vertex -3.105915455724148 -4.027994333408087 -19.34240292290299
    vertex -0.5110270675534521 -10.01350069149235 -17.30516267585226
  endloop
endfacet
facet normal -0.49127 -0.806561 -0.328806
  outer loop
    vertex -7.174728115891535 -16.80774351288547 -8.125455954473686
    vertex -11.37737458591146 -15.9927395342812 -3.84546872572056
    vertex -11.63804747906719 -14.08676821966865 -8.131347489826716
  endloop
endfacet
facet normal -0.854218 0.440653 -0.275929
  outer loop
    vertex -17.35902511437457 9.588702200986253 -2.59249632194806
    vertex -15.31194094173622 10.95025295306814 -6.755473696241029
    vertex -17.66613267185765 6.228267092737815 -7.008312595899443
  endloop
endfacet
facet normal -0.276432 -0.327634 -0.903461
  outer loop
    vertex -8.092395020672656 -3.859113688954187 -17.87793009173933
    vertex -3.105915455724148 -4.027994333408087 -19.34240292290299
    vertex -6.330971314097483 -9.723766429917474 -16.29009418746512
  endloop
endfacet
facet normal -0.429804 0.886861 0.169547
  outer loop
    vertex -11.05148508869166 16.57101425956898 1.807253093395441
    vertex -8.216747628052822 17.05925352570125 6.439481932790696
    vertex -5.772742598015136 18.95407787677819 2.723669351828359
  endloop
endfacet
facet normal 0.402028 -0.604151 0.688023
  outer loop
    vertex 7.380915955676737 -14.53305872323948 11.58931765903884
    vertex 10.6038207301731 -9.942736196287692 13.73684763158498
    vertex 5.855979156720867 -10.68200728350775 15.86197429424024
  endloop
endfacet
facet normal -0.705361 -0.438687 0.556794
  outer loop
    vertex -16.25035271915186 -7.140868045852503 9.215966582777767
    vertex -13.42154324256741 -11.48870111540586 9.374002542605011
    vertex -11.77748637246608 -8.920379505060223 13.48026870029219
  endloop
endfacet
facet normal -0.8156 -0.574089 -0.0722427
  outer loop
    vertex -15.41715120429599 -11.76914022524534 -4.878400055590635
    vertex -14.36090178460266 -13.9173522387683 0.2679675261055322
    vertex -18.08411968427892 -8.523465786088396 -0.5613788721142162
  endloop
endfacet
facet normal -0.825881 -0.560091 0.0649538
  outer loop
    vertex -18.08411968427892 -8.523465786088396 -0.5613788721142162
    vertex -14.36090178460266 -13.9173522387683 0.2679675261055322
    vertex -16.29389232512858 -10.53591028803396 4.848058095734406
  endloop
endfacet
facet normal -0.676313 0.278613 0.681891
  outer loop
    vertex -11.12092278017519 6.715427819026211 15.2061864293724
    vertex -14.44418203154453 7.640182008782511 11.53226882761073
    vertex -15.02700505920629 2.986059354682716 12.85583791438351
  endloop
endfacet
facet normal 0.775186 -0.309144 -0.550923
  outer loop
    vertex 17.23213008030667 -5.095255232692597 -8.780208824914638
    vertex 14.55801998850249 -8.985072132951379 -10.36014154247047
    vertex 14.03212940000931 -4.951691004853809 -13.36338657279075
  endloop
endfacet
facet normal -0.480993 0.670546 -0.564813
  outer loop
    vertex -11.85188283680248 13.67031656760779 -8.523808900022022
    vertex -6.712634464649657 15.42454798162945 -10.81775661153496
    vertex -9.209680110117691 11.02316390605753 -13.91659619912474
  endloop
endfacet
facet normal 0.618881 -0.558009 -0.552822
  outer loop
    vertex 10.78460896960931 -10.0247660359856 -13.5350018580114
    vertex 14.55801998850249 -8.985072132951379 -10.36014154247047
    vertex 12.18409302776494 -13.25814073968395 -8.704572431630535
  endloop
endfacet
facet normal 0.652625 -0.395923 -0.646007
  outer loop
    vertex 14.03212940000931 -4.951691004853809 -13.36338657279075
    vertex 14.55801998850249 -8.985072132951379 -10.36014154247047
    vertex 10.78460896960931 -10.0247660359856 -13.5350018580114
  endloop
endfacet
facet normal -0.174596 0.331791 -0.927055
  outer loop
    vertex -5.856755054769496 7.307156691987927 -17.67212158477776
    vertex -1.372111681480183 8.120796061657458 -18.22553101718889
    vertex -2.7292536614239 4.275980197172107 -19.34598583182041
  endloop
endfacet
facet normal -0.194761 0.49923 -0.844297
  outer loop
    vertex -3.161752000074788 12.77222392287314 -15.06232453355093
    vertex -1.372111681480183 8.120796061657458 -18.22553101718889
    vertex -5.856755054769496 7.307156691987927 -17.67212158477776
  endloop
endfacet
facet normal -0.780336 0.596204 -0.188723
  outer loop
    vertex -13.54242383857492 14.28980677719573 -3.521956678724028
    vertex -15.31194094173622 10.95025295306814 -6.755473696241029
    vertex -17.35902511437457 9.588702200986253 -2.59249632194806
  endloop
endfacet
facet normal -0.693788 0.510354 0.50813
  outer loop
    vertex -15.51927762759311 9.9891804812264 7.705082428577485
    vertex -14.44418203154453 7.640182008782511 11.53226882761073
    vertex -11.61068236499495 11.2786825535348 11.74663249087947
  endloop
endfacet
facet normal -0.801387 0.422225 -0.423679
  outer loop
    vertex -17.66613267185765 6.228267092737815 -7.008312595899443
    vertex -15.31194094173622 10.95025295306814 -6.755473696241029
    vertex -14.24494815273285 8.692472054485249 -11.0237190506628
  endloop
endfacet
facet normal 0.308003 0.1808 0.934048
  outer loop
    vertex 6.180339887498988 -1.51374669217367e-15 19.02113032590306
    vertex 8.833476376941777 5.485601662930105 17.08443354324837
    vertex 3.012651081010322 5.396344558040835 19.02113032590309
  endloop
endfacet
facet normal 0.29328 -0.369288 0.881824
  outer loop
    vertex 3.012651081008253 -5.396344558042134 19.02113032590306
    vertex 5.855979156720867 -10.68200728350775 15.86197429424024
    vertex 8.900949463781435 -5.25603549339114 17.12154168103508
  endloop
endfacet
facet normal 0.0706912 0.394377 -0.916226
  outer loop
    vertex 1.768886663483829 5.259428308136196 -19.21482380463908
    vertex -1.372111681480183 8.120796061657458 -18.22553101718889
    vertex 2.751126367494788 10.01353501673582 -17.0927007865545
  endloop
endfacet
facet normal -0.472537 -0.874971 -0.105517
  outer loop
    vertex -10.4419106882502 -17.04405994385769 0.6830240177270236
    vertex -11.37737458591146 -15.9927395342812 -3.84546872572056
    vertex -6.745895316633464 -18.62637426546903 -2.747922506129988
  endloop
endfacet
facet normal -0.225654 -0.928416 0.295167
  outer loop
    vertex -6.615508362779187 -18.54540313573738 3.507573468222849
    vertex -1.427015604988921 -19.19982055368626 5.415765612484059
    vertex -4.357830467632359 -17.39191006633229 8.861759298242344
  endloop
endfacet
facet normal 0.567927 -0.77772 0.269463
  outer loop
    vertex 13.43134474687706 -14.47554617966042 3.171362655240875
    vertex 12.07945760011268 -13.79352837213563 7.989072482720983
    vertex 8.574204809355722 -17.00023492365827 6.121684770359449
  endloop
endfacet
facet normal 0.524228 0.612682 -0.591443
  outer loop
    vertex 8.449769150464913 11.34600869981767 -14.13752057071937
    vertex 9.782457541152064 14.51964647971073 -9.668680911054045
    vertex 13.05727420917864 10.65778524518202 -10.76657809584358
  endloop
endfacet
facet normal -0.316476 0.843057 0.434853
  outer loop
    vertex -3.717482347832917 17.98626315520079 7.916733082870556
    vertex -8.216747628052822 17.05925352570125 6.439481932790696
    vertex -7.733306807997439 15.09605223856574 10.59741348744469
  endloop
endfacet
facet normal 0.305905 -0.179568 0.934974
  outer loop
    vertex 3.012651081008253 -5.396344558042134 19.02113032590306
    vertex 8.900949463781435 -5.25603549339114 17.12154168103508
    vertex 6.180339887498988 -1.51374669217367e-15 19.02113032590306
  endloop
endfacet
facet normal -0.680601 0.662843 -0.312126
  outer loop
    vertex -11.85188283680248 13.67031656760779 -8.523808900022022
    vertex -15.31194094173622 10.95025295306814 -6.755473696241029
    vertex -13.54242383857492 14.28980677719573 -3.521956678724028
  endloop
endfacet
facet normal -0.0343904 -0.654956 0.754884
  outer loop
    vertex -2.992113412937384 -14.75748353875161 13.16297599054239
    vertex 2.20361966291478 -14.36449459010767 13.74064611115442
    vertex -0.0571220375335745 -10.37735403057732 17.0969956541168
  endloop
endfacet
facet normal -0.610034 0.43609 0.661577
  outer loop
    vertex -11.61068236499495 11.2786825535348 11.74663249087947
    vertex -14.44418203154453 7.640182008782511 11.53226882761073
    vertex -11.12092278017519 6.715427819026211 15.2061864293724
  endloop
endfacet
facet normal 0.822476 -0.401963 -0.402441
  outer loop
    vertex 16.25617752955004 -10.14169850550212 -5.734338981194655
    vertex 14.55801998850249 -8.985072132951379 -10.36014154247047
    vertex 17.23213008030667 -5.095255232692597 -8.780208824914638
  endloop
endfacet
facet normal 0.614629 0.648763 -0.448707
  outer loop
    vertex 13.05727420917864 10.65778524518202 -10.76657809584358
    vertex 9.782457541152064 14.51964647971073 -9.668680911054045
    vertex 12.35205612523082 14.40952296859679 -6.308118364189854
  endloop
endfacet
facet normal -0.681486 0.562644 -0.467983
  outer loop
    vertex -14.24494815273285 8.692472054485249 -11.0237190506628
    vertex -15.31194094173622 10.95025295306814 -6.755473696241029
    vertex -11.85188283680248 13.67031656760779 -8.523808900022022
  endloop
endfacet
facet normal -0.485567 0.767367 0.418775
  outer loop
    vertex -7.733306807997439 15.09605223856574 10.59741348744469
    vertex -8.216747628052822 17.05925352570125 6.439481932790696
    vertex -12.08501604571004 14.39556368012433 6.835212762337114
  endloop
endfacet
facet normal 0.293679 0.328212 0.897792
  outer loop
    vertex 8.833476376941777 5.485601662930105 17.08443354324837
    vertex 5.150182029344117 9.537885652089289 16.80786608562462
    vertex 3.012651081010322 5.396344558040835 19.02113032590309
  endloop
endfacet
facet normal -0.0357968 0.291228 -0.955984
  outer loop
    vertex -2.7292536614239 4.275980197172107 -19.34598583182041
    vertex -1.372111681480183 8.120796061657458 -18.22553101718889
    vertex 1.768886663483829 5.259428308136196 -19.21482380463908
  endloop
endfacet
facet normal -0.00371496 0.148874 -0.988849
  outer loop
    vertex 1.224646799147353e-15 -2.999519565323716e-31 -20
    vertex -2.7292536614239 4.275980197172107 -19.34598583182041
    vertex 1.768886663483829 5.259428308136196 -19.21482380463908
  endloop
endfacet
facet normal -0.110347 0.193007 0.974973
  outer loop
    vertex -6.287701375142022 6.986432627225392 17.6537409792451
    vertex -6.696771105982275 0.8232262809125883 18.82752121880349
    vertex 3.012651081010322 5.396344558040835 19.02113032590309
  endloop
endfacet
endsolid Created by Gmsh
